{"glyphs":{"0":{"ha":393,"x_min":4,"x_max":367,"o":"m 33 822 l 28 817 q 25 817 28 814 q 25 821 24 819 q 31 828 29 825 q 33 829 33 829 l 33 832 l 33 839 l 33 843 q 29 840 31 840 q 22 836 28 839 q 22 832 22 833 q 21 828 21 831 q 20 826 21 826 q 19 824 19 825 q 17 822 19 819 q 14 824 15 822 q 17 832 15 831 q 11 829 17 832 q 8 831 8 829 q 8 833 7 832 l 11 836 q 14 838 13 836 l 11 838 q 4 842 4 838 q 5 843 4 843 q 6 844 6 843 q 10 843 8 844 q 17 842 14 843 q 19 840 19 842 q 28 846 28 846 q 31 847 31 847 q 25 851 28 850 q 19 854 22 853 q 16 853 17 853 q 13 851 15 853 q 10 851 11 851 q 7 850 10 850 q 4 853 4 850 q 8 856 7 856 q 14 857 10 857 q 8 860 14 857 q 8 864 7 863 l 14 864 q 17 863 14 863 q 15 865 15 863 q 14 869 15 868 q 17 872 14 872 q 20 866 19 868 q 22 861 21 864 l 22 858 q 31 853 31 853 q 33 851 33 853 l 33 857 l 33 865 q 31 867 32 867 q 28 871 29 868 l 25 874 q 25 878 24 876 q 26 879 25 879 q 28 878 28 879 l 33 872 l 33 876 q 36 881 33 881 q 39 878 39 881 l 39 875 l 39 872 q 40 873 40 872 q 42 874 40 874 q 44 878 42 875 q 49 878 47 881 q 49 874 51 876 q 44 870 46 871 q 42 867 43 869 q 40 866 40 867 q 39 865 40 865 l 39 863 l 39 856 l 39 851 q 43 854 42 854 q 50 858 49 857 q 51 863 51 861 q 53 867 51 864 q 54 871 53 869 q 57 872 54 875 q 58 871 58 872 q 58 865 58 867 q 57 863 57 864 q 61 865 56 863 q 65 864 64 865 l 65 861 q 60 857 60 857 l 63 857 q 65 856 64 857 q 67 856 65 856 q 68 853 71 856 l 68 850 l 65 850 q 57 853 57 853 q 53 854 54 853 q 49 851 50 851 q 44 849 47 850 q 43 848 43 849 q 42 847 43 847 q 44 846 43 846 q 46 844 44 846 q 53 840 51 842 q 57 842 56 842 q 61 843 58 842 q 63 844 63 843 q 65 844 64 844 q 68 842 68 844 q 69 841 69 842 q 68 840 69 840 q 60 838 64 838 l 63 835 q 65 831 65 833 q 61 829 63 829 l 58 832 q 57 832 57 832 l 57 829 q 58 825 58 828 q 57 822 61 822 l 54 822 q 52 828 53 826 q 51 833 51 831 q 50 836 50 835 q 42 842 47 839 q 39 843 40 842 l 39 838 l 39 829 q 44 824 43 828 q 47 822 46 822 q 49 821 47 822 q 49 817 49 821 q 44 817 47 815 l 39 822 l 39 818 q 36 814 39 814 q 33 817 33 814 l 33 819 l 33 822 m 276 325 q 276 319 279 322 q 272 318 276 318 l 267 321 l 265 315 q 263 313 265 313 q 258 318 258 315 l 260 325 l 254 328 l 253 319 q 250 317 250 317 l 247 317 l 239 319 l 239 313 l 246 310 q 249 306 249 310 q 243 303 246 303 l 239 304 l 239 299 q 235 294 239 294 q 231 299 231 294 l 231 304 l 226 303 q 221 306 221 303 q 224 310 221 310 l 231 313 l 231 319 l 222 317 l 218 317 q 217 319 217 318 l 215 328 l 210 325 l 211 318 q 208 313 211 315 q 203 315 206 313 l 203 321 l 197 318 q 192 319 193 318 q 193 325 190 322 l 199 328 l 194 331 q 194 336 192 333 q 200 338 199 340 l 206 332 l 211 335 l 204 342 q 203 344 203 342 q 204 347 203 346 l 211 353 l 206 357 l 200 351 q 197 350 199 350 q 194 351 194 351 q 194 357 192 354 l 199 360 l 193 364 q 192 368 188 364 q 197 369 194 372 l 203 367 l 203 372 q 208 375 206 375 q 211 371 211 375 l 210 363 l 215 360 l 217 369 q 222 372 219 372 l 231 369 l 231 375 l 224 378 q 221 383 221 379 q 226 385 224 386 l 231 383 l 231 389 q 235 393 231 393 q 239 389 239 393 l 239 383 l 243 385 q 249 383 246 386 q 246 378 249 378 l 239 375 l 239 368 l 247 372 q 250 371 250 372 q 253 369 253 369 l 254 360 l 260 363 l 258 371 q 261 375 258 375 q 267 372 264 375 l 267 367 l 272 369 q 278 368 275 372 q 276 364 278 364 l 271 360 l 275 357 q 275 351 278 354 q 272 350 274 350 q 269 351 271 350 l 264 357 l 258 353 l 265 347 q 267 344 267 344 q 265 342 265 342 l 258 335 l 264 332 l 269 336 q 275 336 272 339 q 275 331 278 333 l 271 328 l 276 325 m 222 356 l 226 353 q 228 354 228 354 q 231 356 229 354 l 231 361 l 224 364 l 222 356 m 224 342 l 224 346 l 218 349 l 213 344 l 218 339 l 224 342 m 231 333 q 228 334 229 333 q 226 335 228 335 l 222 332 l 224 325 l 231 326 l 231 333 m 235 340 q 239 344 239 340 q 235 347 239 347 q 231 344 231 347 q 235 340 231 340 m 239 354 q 242 353 240 354 l 247 356 l 246 363 l 239 361 l 239 354 m 247 332 l 242 335 q 239 333 240 333 l 239 328 l 246 325 l 247 332 m 257 344 l 251 349 l 246 346 l 246 342 l 251 339 l 257 344 m 294 771 q 329 713 315 743 q 351 641 343 683 q 363 540 360 599 q 367 396 367 481 q 355 235 367 311 q 322 101 343 158 q 269 10 300 43 q 199 -24 238 -24 q 134 -7 165 -24 q 79 52 103 10 q 41 166 56 94 q 26 346 26 238 q 40 530 26 454 q 72 656 54 606 q 108 733 90 706 q 133 774 125 761 q 165 799 144 792 q 207 807 185 807 q 258 797 233 807 q 294 771 282 788 m 143 29 q 144 33 149 29 q 110 166 121 82 q 103 346 100 250 q 119 365 119 350 q 104 386 119 381 q 117 503 108 446 q 138 611 125 561 q 169 700 151 661 q 210 760 188 739 q 210 765 213 763 q 204 765 207 768 q 136 634 164 726 q 99 413 108 542 q 98 399 99 406 q 97 386 97 393 q 83 380 89 386 q 78 365 78 374 q 96 346 78 349 q 103 162 93 246 q 138 31 114 78 q 142 28 140 28 l 143 29 m 215 18 q 244 38 228 18 q 276 103 261 58 q 303 220 292 147 q 314 399 314 293 q 308 567 314 503 q 292 665 301 631 q 273 710 283 699 q 253 721 263 721 q 227 706 243 721 q 195 649 211 690 q 167 532 179 607 q 156 338 156 457 q 172 94 156 171 q 215 18 189 18 z "},"1":{"ha":303,"x_min":14,"x_max":356,"o":"m 350 896 q 353 888 354 893 q 347 885 350 885 q 346 885 346 885 q 344 886 346 886 l 336 890 l 335 882 q 328 878 335 878 q 324 885 322 881 l 326 897 l 317 901 l 314 888 q 311 883 314 886 l 308 883 l 306 883 l 292 888 l 292 878 l 303 874 q 307 867 310 871 q 300 863 307 863 l 293 865 l 293 856 q 286 850 293 850 q 281 856 281 850 l 281 865 l 272 863 q 265 867 268 863 q 269 874 263 874 l 281 878 l 281 888 l 267 883 l 263 883 q 260 888 260 886 l 256 901 l 247 897 l 250 885 q 244 878 250 879 q 238 883 240 878 l 236 890 l 229 886 q 227 885 228 886 q 225 885 226 885 q 221 889 224 885 q 222 896 218 894 l 231 901 l 225 907 q 224 915 221 910 q 232 915 231 918 l 242 907 l 250 913 l 239 922 l 239 931 l 250 940 l 242 946 l 232 938 q 228 936 232 936 q 224 938 225 936 q 225 946 221 943 l 231 951 l 222 956 q 221 964 218 960 q 229 967 224 968 l 236 963 l 238 969 q 244 975 239 975 q 250 968 250 974 l 247 956 l 256 951 l 260 965 q 263 968 260 968 q 267 969 264 969 l 281 965 l 281 975 l 269 979 q 265 986 264 982 q 274 990 268 992 l 281 988 l 281 997 q 286 1003 281 1003 q 293 997 293 1003 l 293 988 l 300 990 q 307 986 307 990 q 304 979 311 979 l 293 975 l 293 964 l 307 969 q 311 968 310 969 q 314 965 314 968 l 317 950 l 326 956 l 324 967 q 328 974 321 974 l 331 974 q 335 969 335 974 l 338 963 l 344 967 q 353 964 350 969 q 350 956 356 958 l 343 951 l 349 946 q 349 938 354 943 q 344 936 347 936 q 340 938 342 936 l 332 946 l 322 940 l 333 931 q 336 926 336 928 q 333 922 336 925 l 322 913 l 332 907 l 340 915 q 349 914 346 918 q 349 906 354 911 l 343 901 l 350 896 m 267 944 l 275 940 q 281 943 278 943 l 281 953 l 269 956 l 267 944 m 269 924 q 268 926 268 924 q 269 929 268 928 l 261 935 l 253 926 l 261 918 l 269 924 m 281 910 q 275 913 278 910 l 267 908 l 269 897 l 281 900 l 281 910 m 286 921 q 293 926 293 921 q 286 932 293 932 q 281 926 281 932 q 286 921 281 921 m 293 943 q 299 940 293 943 l 306 944 l 304 956 l 293 953 l 293 943 m 306 908 l 299 913 q 293 910 296 910 l 293 900 l 304 897 l 306 908 m 321 926 l 313 935 l 304 929 l 304 926 l 304 924 l 313 918 l 321 926 m 71 96 q 63 90 63 90 q 60 89 60 89 q 65 85 63 86 q 71 82 68 83 q 74 83 74 83 q 78 85 75 83 q 83 86 81 85 q 86 83 86 86 q 82 81 83 81 q 76 79 81 79 q 82 76 76 79 q 82 72 85 75 l 76 72 q 74 74 76 74 q 75 71 75 74 q 76 67 75 68 q 74 64 76 64 q 70 70 71 68 q 68 74 69 72 l 68 78 q 61 81 65 79 q 57 85 57 82 l 57 79 l 57 71 l 63 65 l 65 63 q 65 58 68 61 q 64 57 65 57 q 63 58 63 57 l 57 64 l 57 60 q 54 56 57 56 q 51 58 51 56 l 51 61 l 51 64 l 49 61 l 46 58 q 42 58 44 57 q 42 63 42 58 q 46 66 44 65 q 49 68 47 67 q 51 71 51 71 l 51 81 l 51 85 q 47 82 49 82 q 40 78 42 79 q 39 74 39 75 q 38 69 39 72 q 36 65 38 67 q 33 64 36 61 q 32 67 32 65 q 33 71 32 69 q 33 74 33 72 q 29 71 35 74 q 25 72 26 71 l 25 75 q 31 79 31 79 l 28 79 q 26 80 26 79 q 24 81 25 81 q 22 83 19 81 l 22 86 l 25 86 q 32 84 28 85 q 38 82 36 83 q 42 85 40 85 q 46 88 43 86 q 47 88 47 88 q 49 89 47 89 q 47 90 47 90 q 44 92 46 90 q 38 96 39 94 q 29 93 32 93 q 27 92 28 93 q 25 92 26 92 q 22 93 22 92 q 22 96 19 96 q 31 99 26 99 l 28 101 q 25 106 25 103 l 26 107 q 29 106 28 107 q 32 104 32 104 l 33 104 l 33 107 q 32 111 32 108 q 33 114 29 114 l 36 114 q 38 108 38 110 q 39 103 39 106 q 40 100 40 101 q 49 94 43 97 q 51 93 50 94 l 51 99 l 51 106 q 46 113 47 110 q 42 115 44 113 q 42 119 42 115 q 46 119 42 119 l 51 114 l 51 118 q 54 122 51 122 q 57 119 57 122 l 57 117 l 57 114 l 63 119 q 65 119 63 119 q 65 115 68 118 q 60 108 61 111 q 57 106 57 108 l 57 96 l 57 93 q 63 97 60 96 q 68 100 65 99 q 69 108 68 103 q 74 114 71 114 q 76 113 75 114 q 74 104 75 106 q 79 106 76 104 q 82 106 82 108 q 82 103 83 104 l 79 100 q 76 99 78 100 l 79 99 q 85 97 81 97 q 86 93 86 97 q 81 92 82 92 q 78 93 79 93 q 74 94 76 93 q 71 96 71 94 m 194 797 q 230 790 213 796 q 250 772 247 785 q 250 736 251 769 q 247 650 249 703 q 242 531 244 597 q 235 395 239 465 q 229 258 232 325 q 224 138 226 192 q 219 50 221 85 q 218 10 218 15 q 210 -2 218 1 q 190 -6 201 -6 q 156 1 174 -6 q 138 17 139 7 q 121 185 125 97 q 117 357 117 272 q 121 518 117 442 q 131 653 125 594 q 77 608 103 624 q 39 585 51 592 q 29 582 31 582 q 16 593 18 582 q 22 611 14 604 q 44 635 29 617 q 76 677 58 653 q 113 730 94 701 q 147 785 132 758 q 169 796 158 794 q 194 797 181 797 m 181 390 q 200 410 200 390 q 182 431 200 428 q 185 543 183 489 q 189 640 188 597 q 192 708 190 682 q 193 735 193 733 q 189 738 193 738 q 185 735 185 738 q 184 708 185 733 q 181 640 183 682 q 178 543 179 597 q 174 431 176 489 q 158 410 158 425 q 172 390 158 394 q 170 294 171 342 q 169 204 169 246 q 171 129 169 163 q 174 75 172 96 q 176 72 174 72 q 181 75 181 72 q 178 129 179 96 q 176 204 176 163 q 178 294 176 246 q 181 390 179 342 z "},"2":{"ha":365,"x_min":15,"x_max":343,"o":"m 111 -87 q 104 -92 107 -90 q 99 -94 101 -93 q 97 -96 97 -96 q 94 -97 96 -96 q 98 -99 97 -99 q 101 -101 99 -100 q 106 -104 104 -103 q 111 -107 108 -106 q 124 -104 119 -104 q 126 -103 125 -103 q 129 -101 128 -103 q 135 -104 135 -101 l 135 -108 q 133 -109 133 -108 q 132 -110 133 -110 l 129 -110 q 125 -111 126 -111 q 121 -112 124 -111 q 124 -114 122 -114 q 128 -117 125 -114 q 129 -122 131 -119 q 126 -124 128 -124 l 124 -124 q 121 -122 122 -122 q 119 -121 119 -121 q 117 -119 118 -121 q 117 -122 117 -121 q 118 -124 118 -122 q 119 -127 118 -126 q 119 -131 119 -128 q 117 -135 124 -135 q 114 -135 117 -137 q 113 -132 113 -135 q 108 -119 111 -124 q 108 -116 108 -117 q 107 -114 107 -115 q 100 -110 103 -111 q 94 -107 97 -108 q 92 -106 93 -106 q 90 -104 92 -106 l 90 -112 l 90 -124 q 99 -132 97 -128 q 104 -137 103 -133 q 104 -143 107 -140 q 99 -143 101 -146 q 98 -142 99 -142 q 97 -140 97 -142 q 90 -135 94 -139 l 90 -140 q 86 -147 90 -147 q 82 -143 82 -147 l 82 -139 l 82 -135 q 79 -137 82 -135 q 77 -140 78 -139 q 75 -143 76 -142 q 69 -143 71 -144 q 69 -137 64 -140 q 71 -135 69 -136 l 82 -124 l 82 -121 l 82 -108 l 82 -104 q 79 -106 81 -106 q 76 -108 78 -107 q 71 -111 74 -110 q 65 -114 68 -112 q 63 -125 65 -119 q 62 -129 63 -128 q 61 -132 61 -131 q 56 -135 58 -136 q 53 -131 53 -132 q 53 -129 53 -129 q 54 -128 54 -129 q 55 -124 54 -125 q 56 -119 56 -122 q 53 -121 54 -121 q 51 -122 53 -121 q 50 -123 50 -122 q 49 -124 50 -124 q 43 -122 47 -126 l 43 -119 q 46 -117 43 -117 q 49 -115 46 -115 q 51 -112 51 -112 q 50 -112 50 -112 q 49 -111 50 -111 q 44 -110 46 -111 q 42 -110 43 -110 q 39 -104 38 -107 q 43 -101 42 -101 q 44 -102 44 -101 q 46 -103 44 -103 q 57 -106 49 -103 q 59 -106 58 -106 q 63 -107 60 -107 q 69 -103 67 -104 q 75 -100 72 -101 q 77 -99 76 -99 q 79 -97 78 -99 q 72 -93 74 -94 q 67 -90 69 -92 q 63 -87 65 -89 q 56 -90 58 -89 q 50 -90 53 -90 q 47 -92 47 -92 q 43 -93 46 -92 q 39 -90 39 -93 q 39 -86 38 -89 q 42 -85 40 -85 q 47 -83 44 -83 q 51 -82 49 -83 q 49 -81 50 -81 q 47 -79 49 -81 q 43 -72 43 -76 q 46 -71 46 -71 l 49 -71 q 53 -72 50 -72 q 56 -75 56 -75 l 56 -71 q 54 -67 54 -68 q 53 -64 54 -67 q 56 -60 53 -60 q 60 -60 56 -60 q 61 -62 61 -61 q 64 -75 64 -74 q 65 -81 65 -78 q 67 -81 67 -81 q 68 -82 67 -82 q 74 -85 71 -83 q 79 -87 76 -86 l 82 -90 l 82 -82 l 82 -71 l 74 -62 q 69 -57 71 -60 q 69 -51 64 -54 q 75 -51 72 -49 q 76 -53 75 -53 q 76 -54 76 -53 l 82 -60 l 82 -54 q 86 -47 82 -47 q 90 -51 90 -47 l 90 -56 l 90 -60 q 93 -57 93 -57 q 97 -54 96 -56 q 99 -51 97 -53 q 104 -51 101 -49 q 104 -57 107 -54 q 103 -58 104 -58 q 103 -60 103 -58 q 94 -67 97 -65 l 90 -71 l 90 -74 l 90 -86 l 90 -90 q 94 -88 93 -89 q 97 -86 94 -87 q 102 -83 100 -85 q 107 -81 104 -82 q 110 -69 110 -72 q 111 -65 111 -67 q 113 -62 111 -64 q 117 -60 113 -56 q 119 -61 119 -60 q 119 -64 119 -64 l 119 -67 q 118 -71 118 -69 q 117 -75 118 -72 q 119 -74 118 -74 q 124 -71 121 -74 q 129 -72 126 -69 q 129 -75 132 -75 q 128 -78 129 -78 q 125 -79 126 -79 q 121 -82 122 -82 q 123 -83 122 -82 q 125 -83 124 -83 q 128 -84 128 -83 q 132 -85 129 -85 q 135 -90 135 -86 q 129 -93 132 -93 q 117 -89 121 -92 q 114 -88 115 -89 q 111 -87 113 -87 m 267 174 q 263 170 264 171 q 258 168 261 169 q 257 167 257 168 q 256 167 257 167 q 258 165 257 165 q 260 164 258 165 q 263 162 263 163 q 267 160 264 161 q 271 161 269 161 q 275 163 272 161 q 279 164 278 163 q 282 161 282 164 q 274 157 276 157 q 276 154 274 157 q 279 150 279 153 q 276 149 276 149 l 275 149 q 271 151 274 150 l 271 149 q 272 144 272 147 q 271 142 272 142 q 268 142 271 142 q 265 151 265 153 q 264 156 264 153 q 260 158 261 157 q 256 160 258 158 l 253 163 l 253 157 l 253 149 q 258 144 254 147 q 263 140 261 142 l 263 136 q 258 136 261 135 l 253 142 l 253 138 q 250 133 253 133 q 247 136 247 133 l 247 139 l 247 142 q 247 140 247 140 q 246 139 246 140 q 242 136 244 139 q 240 135 242 135 q 239 136 239 135 q 239 140 238 139 l 244 146 l 247 149 l 247 158 l 247 163 q 243 160 244 160 q 240 158 240 158 q 236 156 239 157 q 235 151 236 153 q 235 147 235 150 q 233 143 233 146 q 229 142 231 140 q 228 144 228 143 q 229 151 229 149 l 228 150 q 225 149 226 150 q 222 150 222 149 q 221 153 221 150 q 225 156 224 154 q 228 157 226 156 l 225 157 q 218 161 218 157 q 219 164 218 163 q 228 162 224 163 q 233 160 232 161 q 242 165 242 165 q 244 167 244 167 q 242 168 243 168 q 240 169 242 168 q 237 172 238 171 q 233 174 236 172 q 226 171 228 171 q 223 170 224 171 q 221 169 222 169 q 218 171 218 169 l 218 174 q 228 176 224 176 q 222 179 228 176 q 222 183 221 182 q 229 182 226 183 l 229 185 q 228 187 229 186 q 228 189 228 188 q 229 192 228 192 l 232 192 q 235 185 235 188 q 236 181 235 183 l 236 178 q 244 172 244 172 q 247 171 247 172 l 247 176 l 247 183 q 244 187 246 186 q 242 190 243 188 q 239 193 239 190 q 239 197 238 196 q 240 199 239 199 q 240 197 240 199 q 242 197 240 197 l 247 192 l 247 196 q 250 200 247 200 q 253 197 253 200 l 253 194 l 253 192 l 258 197 q 263 197 258 197 l 263 193 q 256 186 257 190 q 253 183 256 186 l 253 174 l 253 171 q 255 172 254 172 q 257 174 256 172 q 260 176 260 175 q 264 178 261 176 q 265 182 265 181 q 267 186 265 183 l 267 190 q 271 192 268 192 l 271 182 l 272 182 q 275 183 274 183 q 279 183 278 186 l 279 181 q 274 176 276 179 l 276 176 q 281 175 278 175 q 282 171 286 175 q 269 172 272 171 q 267 174 268 172 m 24 544 q 22 550 21 546 q 28 551 25 553 l 32 549 l 33 553 q 38 556 33 560 q 40 551 43 556 l 39 544 l 44 540 l 47 550 q 49 553 47 551 l 51 553 l 61 550 l 61 557 l 53 558 q 51 564 50 563 q 56 567 51 567 l 61 565 l 61 571 q 64 574 61 574 q 68 571 68 574 l 68 565 l 74 567 q 78 564 78 567 q 75 558 79 561 l 68 557 l 68 550 l 78 553 l 81 553 q 82 550 82 551 l 85 540 l 90 544 l 89 551 q 92 556 88 556 q 96 553 96 560 l 97 549 l 101 551 q 107 550 106 551 q 106 544 108 546 l 101 542 l 104 538 q 106 532 108 535 q 103 531 104 532 q 101 531 103 531 l 100 532 l 94 538 l 88 535 l 94 528 q 96 525 96 528 q 94 522 96 524 l 88 517 l 94 513 l 100 518 q 104 518 103 521 q 104 513 106 514 l 101 508 l 106 506 q 107 500 108 503 q 104 499 106 499 l 101 499 l 97 501 l 96 497 q 92 494 96 494 q 89 499 88 494 l 90 506 l 85 510 l 82 500 q 81 499 82 499 q 81 497 81 499 l 78 497 l 68 500 l 68 493 l 75 492 q 78 486 79 489 q 74 483 78 483 l 68 485 l 68 479 q 64 476 68 476 q 61 479 61 476 l 61 486 l 56 483 q 51 486 51 483 q 53 492 50 489 l 61 493 l 61 500 l 51 497 l 49 497 q 47 500 47 499 l 44 510 l 39 506 l 40 499 q 38 494 44 494 q 33 497 33 494 l 32 501 l 28 499 l 25 499 q 22 500 22 500 q 24 506 21 504 l 28 508 l 25 513 q 24 518 21 515 q 29 518 26 521 l 35 513 l 42 517 l 35 522 q 33 525 33 524 q 35 528 33 528 l 42 535 l 35 538 l 29 532 l 26 532 q 24 533 25 532 q 25 538 21 536 l 28 542 l 24 544 m 78 514 l 72 517 q 70 515 71 515 q 68 514 69 515 l 68 508 l 75 506 l 78 514 m 76 528 l 76 524 l 81 519 l 86 525 l 81 531 l 76 528 m 68 536 q 70 535 69 535 q 72 533 71 535 l 78 536 l 75 544 l 68 542 l 68 536 m 64 529 q 61 525 61 529 q 64 521 61 521 q 68 525 68 521 q 64 529 68 529 m 61 514 q 57 517 60 514 l 51 514 l 53 506 l 61 508 l 61 514 m 51 538 l 57 533 q 61 536 60 536 l 61 542 l 53 544 l 51 538 m 43 525 l 49 519 l 53 524 l 53 528 l 49 531 l 43 525 m 282 63 q 299 53 294 63 q 303 31 304 43 q 296 10 301 19 q 281 1 290 1 q 230 4 254 4 q 182 4 206 4 q 124 3 150 4 q 78 1 97 3 q 38 -3 56 -1 q 21 7 26 -4 q 15 31 15 18 q 31 147 17 88 q 66 267 44 207 q 113 384 88 326 q 158 494 138 442 q 193 594 179 547 q 207 678 207 640 q 201 709 207 697 q 186 727 194 721 q 169 736 178 733 q 157 739 161 739 q 136 730 144 739 q 123 708 128 721 q 116 681 118 696 q 114 654 114 667 q 107 637 114 643 q 92 631 100 631 q 75 637 82 631 q 68 656 68 643 q 70 692 68 668 q 82 740 72 717 q 113 782 92 764 q 172 800 133 800 q 258 781 225 800 q 310 736 290 763 q 336 681 329 710 q 343 633 343 653 q 328 555 343 597 q 288 467 313 513 q 236 372 264 421 q 184 273 208 324 q 142 169 160 222 q 121 64 124 117 l 176 64 q 242 64 214 64 q 282 63 271 64 m 68 67 q 72 69 69 67 q 101 176 75 113 q 158 310 126 239 q 175 345 167 328 q 190 382 183 363 q 208 385 200 382 q 217 401 217 388 q 207 419 217 413 q 242 511 226 465 q 265 598 257 557 q 272 674 274 639 q 253 736 269 710 q 249 738 253 742 q 247 732 246 735 q 264 672 263 707 q 258 597 265 638 q 235 513 250 557 q 200 422 219 468 q 182 417 189 422 q 175 401 175 413 q 185 385 175 392 q 168 349 176 367 q 151 313 160 331 q 94 178 119 242 q 64 69 68 114 q 68 67 64 67 z "},"3":{"ha":322,"x_min":-29,"x_max":303,"o":"m 229 -82 q 225 -85 226 -85 q 221 -87 224 -86 q 218 -89 219 -87 q 222 -92 219 -89 q 226 -93 225 -93 q 229 -94 226 -93 q 233 -94 232 -94 q 238 -93 235 -93 q 240 -92 239 -93 q 242 -92 240 -92 q 244 -93 244 -92 l 244 -96 q 239 -98 240 -97 q 236 -99 238 -99 q 239 -100 236 -100 q 242 -106 242 -103 q 240 -107 240 -106 q 238 -106 238 -107 q 233 -103 233 -104 l 233 -106 q 235 -111 235 -108 q 233 -114 235 -114 l 231 -114 q 228 -108 229 -110 q 228 -103 228 -106 q 226 -100 226 -101 q 222 -97 224 -97 q 218 -94 221 -96 q 217 -94 217 -94 q 215 -93 217 -93 l 215 -99 l 215 -106 q 221 -112 219 -110 q 225 -115 222 -112 l 225 -119 l 221 -119 l 215 -114 l 215 -117 l 215 -119 q 213 -122 215 -119 q 210 -119 210 -122 l 210 -117 l 210 -114 l 204 -119 l 201 -119 q 201 -115 200 -118 q 205 -111 204 -112 q 207 -108 206 -110 q 210 -106 210 -108 l 210 -96 l 210 -93 q 208 -94 208 -94 q 206 -96 207 -94 q 202 -98 203 -97 q 199 -100 201 -99 q 198 -104 199 -103 q 197 -107 197 -106 q 196 -112 196 -110 q 192 -114 196 -114 l 192 -103 q 188 -106 192 -104 q 185 -106 185 -108 q 183 -103 183 -104 q 188 -100 189 -100 q 190 -99 189 -99 l 188 -99 q 182 -97 185 -97 q 181 -93 181 -96 q 193 -94 190 -93 l 196 -94 q 204 -90 203 -93 q 207 -89 207 -89 q 205 -87 206 -87 q 203 -86 204 -87 q 199 -84 200 -85 q 196 -82 199 -83 q 192 -83 193 -83 q 189 -85 190 -83 q 183 -86 185 -85 q 181 -83 181 -86 q 186 -80 185 -81 q 190 -78 188 -79 q 185 -76 188 -78 q 185 -72 183 -75 l 190 -72 q 192 -71 192 -72 q 191 -69 192 -69 q 190 -67 190 -68 q 192 -62 190 -64 q 194 -64 193 -62 q 197 -70 197 -68 q 199 -74 197 -72 l 199 -78 q 207 -82 206 -81 q 210 -83 210 -83 l 210 -79 l 210 -71 l 204 -65 l 201 -62 q 201 -58 200 -61 q 203 -57 201 -57 q 204 -58 204 -57 l 210 -64 l 210 -60 q 213 -56 210 -56 q 215 -58 215 -56 l 215 -61 l 215 -64 q 217 -61 217 -62 q 221 -58 218 -61 q 225 -58 224 -57 l 225 -62 q 218 -68 221 -65 q 215 -71 215 -71 l 215 -81 l 215 -83 q 217 -83 217 -83 q 219 -82 218 -82 q 223 -80 222 -81 q 226 -78 224 -79 q 228 -74 228 -75 q 229 -69 228 -72 l 229 -65 q 233 -62 232 -62 q 235 -67 235 -65 q 233 -74 233 -69 q 238 -71 232 -74 q 242 -72 240 -71 q 241 -75 242 -75 q 240 -76 240 -75 q 236 -78 239 -76 q 239 -80 236 -79 q 243 -81 242 -81 q 244 -83 247 -81 q 243 -85 244 -85 q 237 -84 239 -85 q 232 -83 235 -83 q 229 -82 231 -82 m 56 892 q 54 897 53 896 q 60 899 57 900 l 64 896 l 65 901 q 69 904 65 904 q 72 900 72 901 l 71 892 l 76 889 l 78 897 q 81 900 78 900 q 83 900 82 901 l 92 897 l 92 904 l 85 907 q 82 911 82 907 q 88 914 83 914 l 92 913 l 92 918 q 96 921 92 921 q 99 918 99 921 l 99 913 l 104 914 q 108 911 108 914 q 107 907 113 907 l 99 904 l 99 897 l 108 900 l 111 900 q 113 897 113 900 l 115 889 l 121 892 l 119 899 q 122 904 118 901 q 126 901 124 904 l 126 896 l 132 899 q 138 897 135 901 q 136 892 138 893 l 131 889 l 135 886 q 135 881 138 883 l 129 881 l 124 886 l 118 882 l 125 876 q 126 874 126 875 q 125 871 126 871 l 118 865 l 124 861 l 129 867 q 135 867 132 869 q 135 861 138 864 l 131 857 l 136 854 q 136 850 140 854 q 133 847 136 847 q 132 849 132 847 l 126 851 l 126 846 q 122 843 124 843 q 118 847 118 843 l 119 856 l 114 858 l 113 849 q 108 846 107 846 l 108 847 l 99 850 l 99 843 l 106 840 q 108 836 113 840 q 104 833 108 833 l 99 835 l 99 829 q 96 825 99 825 q 92 829 92 825 l 92 835 l 88 833 q 82 836 85 833 q 85 840 82 840 l 92 843 l 92 850 l 83 847 q 81 847 81 844 q 78 850 78 847 l 76 858 l 71 856 l 72 847 q 69 843 72 846 q 65 846 65 843 l 64 851 l 60 849 q 58 848 58 849 q 57 847 58 847 q 54 850 54 847 q 56 854 50 854 l 60 858 l 57 861 q 57 867 53 865 q 61 867 57 871 l 67 861 l 72 865 l 65 871 l 65 874 l 65 876 l 72 882 l 67 886 l 61 881 q 58 879 60 879 q 56 881 57 881 q 57 886 54 883 l 60 889 l 56 892 m 108 863 l 103 865 q 101 864 101 864 q 99 863 100 864 l 99 857 l 106 856 l 108 863 m 107 875 l 107 872 l 111 868 l 117 874 l 111 879 l 107 875 m 99 883 q 103 882 101 883 l 108 885 l 106 892 l 99 890 l 99 883 m 96 878 q 92 874 92 878 q 96 869 92 869 q 99 874 99 869 q 96 878 99 878 m 92 863 q 90 864 90 864 q 88 865 89 864 l 83 863 l 85 856 l 92 857 l 92 863 m 83 885 l 88 882 q 90 883 89 883 q 92 885 90 883 l 92 890 l 85 892 l 83 885 m 74 874 l 79 868 l 85 871 l 85 875 l 79 879 l 74 874 m 18 264 q 14 260 18 260 q 11 264 11 260 l 11 269 l 6 268 q 1 271 1 268 q 4 275 1 275 l 11 278 l 11 283 l 3 281 q -3 283 0 281 l -4 293 l -10 289 l -8 282 q -11 278 -8 278 q -17 281 -14 278 l -17 285 l -22 282 q -25 283 -25 282 q -26 283 -26 283 q -25 289 -28 288 l -21 292 l -25 296 q -25 300 -28 299 q -19 301 -22 304 l -14 296 l -8 299 l -15 306 q -17 308 -17 307 q -15 311 -15 310 l -8 317 l -14 319 l -19 315 q -22 314 -19 314 q -25 315 -24 314 q -25 321 -28 318 l -21 324 l -25 326 q -26 332 -29 329 q -22 333 -26 338 l -17 331 l -17 335 q -11 338 -14 339 q -8 333 -8 338 l -10 326 l -4 324 l -3 332 q -2 333 -3 333 q -1 335 -1 333 l 3 335 l 11 332 l 11 339 l 4 340 q 1 346 1 342 q 6 347 1 351 l 11 346 l 11 351 q 14 356 11 356 q 18 351 18 356 l 18 346 l 24 347 q 28 346 28 351 q 25 340 28 342 l 18 339 l 18 332 l 26 335 l 31 335 q 31 333 31 333 q 32 332 32 333 l 33 324 l 39 326 l 38 333 q 40 338 38 338 q 44 335 44 340 l 46 331 l 51 333 q 56 332 56 333 q 54 326 57 328 l 50 324 l 54 321 q 54 315 57 318 q 51 314 51 314 q 49 315 49 314 l 43 319 l 38 317 l 44 311 q 46 308 46 308 q 44 306 44 306 l 38 299 l 43 296 l 49 300 q 54 300 51 303 q 53 296 57 297 l 50 292 l 54 289 q 56 283 57 288 l 54 283 q 51 282 54 282 l 46 285 l 44 281 q 42 278 44 278 q 38 282 38 278 l 39 289 l 33 293 l 32 283 q 29 281 32 283 l 26 281 l 18 283 l 18 278 l 25 275 q 28 269 28 274 q 24 268 28 268 l 18 269 l 18 264 m 26 296 l 22 299 q 20 298 21 299 q 18 297 19 297 l 18 292 l 25 289 l 26 296 m 25 310 l 25 306 l 31 303 l 36 308 l 31 313 l 25 310 m 18 318 q 20 317 19 318 q 22 317 21 317 l 26 319 l 25 326 l 18 324 l 18 318 m 3 319 l 7 317 q 9 317 8 317 q 11 318 10 318 l 11 324 l 4 326 l 3 319 m 3 306 l 3 310 l -1 313 l -7 308 l -1 303 l 3 306 m 11 297 q 9 298 10 297 q 7 299 8 299 l 3 296 l 4 289 l 11 292 l 11 297 m 11 308 q 14 304 11 304 q 18 308 18 304 q 14 311 18 311 q 11 308 11 311 m 190 417 q 260 365 243 407 q 278 250 278 322 q 258 112 278 163 q 211 36 238 61 q 158 4 185 11 q 119 -3 132 -3 q 57 19 78 -3 q 26 73 36 42 q 16 136 17 104 q 15 189 15 168 q 26 200 15 199 l 35 200 q 49 195 46 200 q 51 182 51 190 q 53 157 51 176 q 61 115 54 138 q 81 76 68 93 q 117 58 94 58 q 133 76 124 58 q 150 122 142 93 q 164 189 158 151 q 169 267 169 226 q 153 358 169 328 q 119 394 138 389 q 97 406 100 397 q 107 421 94 415 q 130 452 118 426 q 152 514 142 478 q 169 590 163 550 q 175 664 175 631 q 170 707 175 692 q 158 729 165 722 q 141 738 150 736 q 125 739 132 739 q 103 726 113 739 q 87 697 93 714 q 77 665 81 681 q 74 643 74 649 q 72 624 74 632 q 54 617 69 617 q 36 626 40 617 q 32 639 32 635 q 37 687 32 660 q 57 739 42 714 q 101 781 72 764 q 179 799 131 799 q 211 793 190 799 q 252 773 232 788 q 288 733 272 758 q 303 667 303 707 q 271 510 303 575 q 190 417 239 446 m 188 492 q 189 488 183 488 l 190 486 q 194 489 192 486 q 217 543 206 508 q 233 618 228 578 q 248 625 242 619 q 254 639 254 631 q 236 660 254 654 q 233 708 238 685 q 215 749 228 732 q 211 750 214 750 q 210 744 207 747 q 225 706 221 729 q 229 660 229 683 q 213 639 213 656 q 226 619 213 624 q 210 544 221 579 q 188 492 199 510 m 221 201 q 238 221 238 204 q 219 242 238 239 q 211 308 217 275 q 194 371 206 342 q 190 374 193 374 q 188 368 188 372 q 204 307 199 340 q 213 240 210 274 q 196 221 196 238 q 201 208 196 214 q 213 201 206 203 q 206 131 213 164 q 188 74 200 97 q 189 69 183 69 q 194 71 193 69 q 213 128 207 94 q 221 201 219 163 z "},"4":{"ha":365,"x_min":24,"x_max":340,"o":"m 194 944 q 199 948 197 947 q 204 951 201 949 q 206 952 206 951 q 208 953 207 953 q 206 955 207 954 q 203 957 204 956 q 197 960 200 958 q 192 963 194 961 q 186 961 189 961 q 181 960 183 961 q 174 958 178 958 q 168 961 171 957 q 169 964 168 963 q 172 965 172 965 l 174 967 q 178 967 176 967 q 182 968 179 968 q 178 971 179 971 q 175 972 176 972 q 174 978 174 974 q 176 979 175 979 q 179 979 179 982 q 181 978 181 979 q 183 978 182 978 q 186 975 183 978 q 185 979 186 978 q 183 986 185 985 q 186 992 183 989 q 189 990 189 992 q 190 990 190 990 q 192 989 190 989 l 192 986 q 194 975 194 978 q 196 969 196 974 q 199 968 197 969 q 203 965 201 967 q 208 963 206 964 q 210 961 210 961 q 213 960 211 961 l 213 968 l 213 979 q 208 983 210 982 q 204 988 207 985 q 199 993 203 992 q 199 999 196 996 q 204 999 201 1001 q 206 998 206 999 q 207 997 206 997 q 210 994 208 994 q 213 990 211 993 l 213 996 q 217 1003 213 1003 q 221 999 221 1003 l 221 994 l 221 990 q 224 993 224 993 q 226 997 225 996 q 229 999 228 997 q 235 999 232 1001 q 235 993 238 996 l 225 983 l 221 979 l 221 976 l 221 965 l 221 960 q 224 962 224 961 q 228 964 225 963 q 233 967 231 965 q 238 969 235 968 q 240 976 239 974 q 240 982 240 979 q 242 985 242 983 q 243 989 242 986 q 247 992 243 992 q 250 989 250 992 l 250 986 l 250 983 q 249 979 249 981 q 247 975 249 978 q 251 978 250 978 q 254 979 253 979 q 260 978 257 982 l 260 975 q 258 972 260 974 q 256 971 256 971 q 253 969 254 969 q 251 968 253 969 l 256 968 q 259 967 258 967 q 263 965 260 967 q 265 961 265 965 q 264 958 264 958 q 260 958 260 958 q 247 961 249 961 q 242 963 244 963 q 239 961 240 963 q 234 958 236 960 q 229 956 232 957 q 227 954 228 954 q 225 953 226 954 q 232 950 231 950 q 242 943 233 949 q 253 947 250 946 q 257 948 256 947 q 260 949 258 949 q 265 946 264 949 l 265 943 l 263 940 l 260 940 q 256 939 257 939 q 251 938 254 939 q 256 935 253 938 q 258 933 257 935 q 260 929 264 933 q 257 926 260 926 l 254 926 q 251 929 251 929 q 249 930 250 929 q 247 931 249 931 q 248 928 247 929 q 249 926 249 928 q 249 924 249 925 q 250 919 250 922 q 247 915 254 915 l 244 915 q 243 918 243 917 q 242 921 242 919 q 240 926 240 924 q 239 932 240 929 q 238 934 239 933 q 238 936 238 935 q 231 940 233 939 q 225 944 228 942 q 223 945 224 944 q 221 946 222 946 l 221 939 l 221 928 q 229 918 224 924 q 232 916 231 917 q 235 914 233 915 q 235 908 236 910 q 229 908 232 903 q 226 910 228 908 q 224 913 225 911 q 221 915 224 914 l 221 910 q 217 904 221 904 q 213 911 213 904 l 213 915 l 210 913 q 204 908 207 910 q 199 908 203 904 q 199 914 196 911 q 200 915 200 914 q 201 915 200 915 q 208 924 207 921 l 213 928 l 213 942 l 213 946 q 206 943 210 943 q 196 936 204 942 q 194 931 194 933 q 193 925 194 928 q 192 922 193 922 q 192 918 192 921 q 186 915 190 915 q 185 916 185 915 q 183 917 185 917 l 183 919 q 185 922 183 922 q 185 926 185 925 q 186 931 186 928 q 182 928 185 931 q 179 926 181 928 q 174 929 175 926 l 174 932 q 177 935 176 935 q 179 936 178 935 q 181 937 181 936 q 182 938 181 938 q 178 939 181 939 q 171 940 176 940 q 168 946 168 943 l 171 949 l 174 949 l 176 949 q 188 944 179 947 q 192 943 190 944 q 194 944 193 944 m 249 -119 q 247 -128 251 -125 l 239 -132 l 244 -137 q 246 -146 249 -140 q 240 -147 244 -147 q 238 -146 238 -147 l 228 -137 l 219 -143 l 229 -153 q 232 -157 232 -156 q 229 -161 232 -158 l 219 -171 l 228 -176 l 238 -168 q 246 -169 242 -165 q 244 -178 250 -174 l 239 -182 l 247 -187 q 249 -196 251 -189 q 243 -199 246 -199 q 242 -198 242 -199 q 240 -197 242 -197 l 233 -193 l 231 -201 q 225 -206 231 -206 q 219 -199 219 -204 l 222 -186 l 213 -182 l 210 -196 q 207 -200 210 -197 l 203 -200 l 189 -196 l 189 -206 l 200 -210 q 204 -217 204 -212 q 196 -221 203 -221 l 189 -218 l 189 -228 q 183 -233 189 -233 q 176 -228 176 -233 l 176 -218 l 169 -221 q 161 -217 163 -221 q 165 -210 161 -210 l 176 -206 l 176 -196 l 163 -200 l 158 -200 q 156 -196 156 -197 l 153 -182 l 143 -186 l 146 -199 q 142 -206 146 -204 q 135 -200 135 -206 l 132 -193 l 125 -197 q 122 -199 122 -199 q 117 -194 119 -199 q 119 -187 114 -190 l 126 -182 l 121 -176 q 121 -168 115 -174 q 129 -168 125 -164 l 138 -176 l 146 -171 l 136 -161 q 133 -157 133 -158 q 136 -153 133 -156 l 146 -143 l 138 -137 l 129 -146 q 125 -147 128 -147 q 121 -146 121 -147 q 121 -137 115 -140 l 126 -132 l 119 -128 q 117 -119 115 -124 q 125 -117 119 -114 l 132 -121 l 135 -114 q 142 -108 135 -108 q 146 -115 146 -111 l 143 -128 l 153 -132 l 156 -118 q 158 -115 156 -115 q 163 -114 160 -114 l 176 -118 l 176 -108 l 165 -104 q 161 -97 161 -103 q 169 -93 164 -90 l 176 -96 l 176 -86 q 183 -81 176 -81 q 189 -86 189 -81 l 189 -96 l 196 -93 q 204 -97 201 -92 q 200 -104 204 -104 l 189 -108 l 189 -119 l 203 -114 q 207 -115 206 -114 q 210 -118 210 -115 l 214 -133 l 222 -128 l 219 -117 q 225 -110 219 -110 q 232 -114 229 -107 l 233 -121 l 240 -117 q 249 -119 246 -114 m 163 -139 l 171 -143 q 176 -140 174 -140 l 176 -131 l 165 -128 l 163 -139 m 165 -160 l 165 -157 l 165 -154 l 157 -149 l 149 -157 l 157 -165 l 165 -160 m 176 -174 q 171 -171 174 -174 l 163 -175 l 165 -186 l 176 -183 l 176 -174 m 183 -162 q 189 -157 189 -162 q 183 -151 189 -151 q 176 -157 176 -151 q 183 -162 176 -162 m 189 -140 q 192 -142 190 -142 q 194 -143 193 -142 l 203 -139 l 200 -128 l 189 -131 l 189 -140 m 203 -175 l 194 -171 q 189 -174 192 -174 l 189 -183 l 200 -186 l 203 -175 m 217 -157 l 208 -149 l 200 -154 l 200 -157 l 200 -160 l 208 -165 l 217 -157 m 318 278 q 335 267 331 276 q 340 246 340 257 q 333 226 339 235 q 315 217 326 217 q 298 217 307 217 q 281 218 289 218 q 277 138 279 175 q 274 74 275 101 q 272 28 272 46 q 271 7 271 11 q 263 -4 271 0 q 243 -8 254 -8 q 210 -2 228 -8 q 190 14 193 4 q 179 115 183 63 q 172 219 175 167 q 122 218 144 219 q 83 215 100 217 q 50 213 65 214 q 29 226 35 211 q 28 256 24 242 l 199 774 q 201 780 200 778 q 203 783 203 782 q 240 796 219 796 q 247 794 244 796 q 283 788 265 793 q 303 769 300 782 q 303 719 304 767 q 298 601 301 672 q 291 445 294 531 q 283 279 288 360 q 303 278 294 279 q 318 278 313 278 m 171 281 q 171 429 168 357 q 176 564 174 501 l 74 278 q 122 279 97 279 q 171 281 147 279 m 235 406 q 253 426 253 408 q 236 447 253 444 q 239 535 238 493 q 241 610 240 578 q 243 661 242 642 q 244 682 244 681 q 240 685 244 685 q 238 685 239 686 q 236 682 236 683 q 235 661 236 681 q 233 610 235 642 q 231 535 232 578 q 228 447 229 493 q 216 439 221 444 q 211 426 211 433 q 226 407 211 413 q 224 310 225 358 q 222 222 224 263 q 221 152 221 182 q 222 110 221 122 q 226 107 222 107 q 229 110 229 107 q 228 152 228 122 q 229 222 228 182 q 232 310 231 263 q 235 406 233 357 z "},"5":{"ha":310,"x_min":13,"x_max":307,"o":"m 168 876 q 182 885 176 883 q 186 888 185 888 q 179 893 182 892 q 174 896 176 894 q 168 899 171 897 q 160 897 164 897 q 154 896 157 897 q 150 894 151 894 q 146 893 149 894 q 140 897 143 893 l 140 900 l 143 903 l 146 903 q 151 904 149 904 q 156 906 153 904 q 149 910 153 908 q 147 917 144 911 q 150 919 147 917 q 153 918 151 919 q 155 917 154 918 q 157 917 156 917 q 161 914 160 914 q 160 918 160 915 q 158 922 158 921 q 157 926 158 924 q 161 932 157 932 l 164 932 q 167 929 167 929 l 167 926 l 171 914 q 172 910 171 911 q 172 907 172 910 q 175 906 174 907 q 186 899 182 904 q 192 896 192 896 l 192 906 l 192 918 l 182 928 l 175 935 q 175 940 172 938 q 182 940 179 944 q 183 940 183 940 q 185 939 183 939 q 192 932 188 935 l 192 938 l 192 940 q 196 946 192 944 q 200 940 200 946 l 200 936 l 200 932 q 204 935 201 932 l 210 940 q 217 940 213 944 q 217 935 219 938 l 214 932 q 206 922 208 926 q 200 918 203 919 l 200 915 l 200 901 l 200 896 l 208 900 q 219 907 217 906 q 224 921 221 913 q 224 925 224 924 q 225 929 225 926 q 232 932 228 935 q 235 931 233 931 l 235 926 q 233 924 235 925 q 231 914 233 919 q 236 917 236 917 q 239 918 239 918 q 246 917 244 921 l 246 913 q 244 910 244 911 q 242 909 243 910 q 240 908 242 908 q 238 907 239 907 q 236 906 238 907 q 240 904 239 906 q 244 903 243 904 q 249 903 246 903 q 251 897 254 900 q 250 894 250 894 q 246 893 249 893 q 244 894 244 893 q 243 894 244 894 q 237 896 240 896 q 231 897 233 896 q 225 899 229 899 q 222 897 224 899 q 210 890 218 896 q 206 888 208 890 q 213 883 211 885 q 225 876 217 882 l 238 881 q 242 882 240 882 q 246 883 243 882 q 251 879 251 883 q 251 876 251 876 q 249 874 251 874 l 246 874 q 236 871 240 871 q 242 867 239 868 q 244 865 243 867 q 246 860 249 863 l 243 857 q 239 858 240 857 q 236 860 236 860 q 233 861 235 861 q 231 863 232 861 q 232 858 232 861 q 233 854 233 856 q 235 850 233 853 q 232 844 235 844 q 228 844 232 844 q 225 847 228 844 l 225 850 l 221 863 q 219 869 221 867 q 206 878 214 872 q 200 881 206 878 l 200 871 l 200 858 l 211 847 l 217 842 q 217 836 219 839 q 210 836 214 829 q 205 840 207 839 q 200 844 203 842 l 200 839 l 200 836 q 196 831 200 831 q 192 836 192 831 l 192 840 l 192 844 q 190 843 190 843 q 188 842 189 843 q 182 836 186 838 q 175 836 179 832 q 175 842 172 839 l 178 844 q 188 853 183 850 q 192 858 189 856 l 192 861 l 192 875 l 192 881 q 188 878 189 879 q 183 875 186 876 q 178 872 181 874 q 172 869 175 871 q 168 856 171 864 q 167 851 168 853 q 167 847 167 850 q 161 844 164 842 q 158 846 158 846 q 157 850 157 847 q 158 853 158 851 q 160 858 160 856 q 161 863 160 860 q 156 860 156 860 q 153 858 154 858 q 147 860 147 856 q 146 863 146 863 q 149 865 146 865 q 151 868 151 868 q 153 869 153 869 q 156 871 154 869 q 151 872 153 871 q 147 873 149 872 q 143 874 146 874 q 140 879 140 875 q 143 882 140 882 q 146 883 143 883 q 149 882 147 882 q 161 879 157 879 q 165 878 164 878 q 168 876 165 878 m 51 974 q 61 979 56 976 q 57 984 60 982 q 51 988 54 986 q 48 986 49 986 q 44 985 47 986 q 42 984 43 985 q 39 983 42 983 q 36 986 36 983 q 40 989 39 989 q 46 990 42 990 q 40 993 46 990 q 40 997 39 996 l 46 997 q 49 996 46 996 q 47 999 47 996 q 46 1003 47 1001 q 49 1006 46 1006 q 52 999 51 1001 q 54 994 53 997 l 54 992 q 63 986 63 986 q 65 985 65 986 l 65 990 l 65 999 q 63 1001 64 1000 q 60 1004 61 1001 l 57 1007 q 57 1011 56 1010 q 61 1011 57 1015 q 65 1006 63 1008 l 65 1010 q 68 1014 65 1014 q 71 1011 71 1014 l 71 1008 l 71 1006 q 72 1006 72 1006 q 74 1007 72 1007 q 76 1011 74 1008 q 81 1011 79 1014 q 81 1007 83 1010 q 76 1003 78 1004 q 74 1000 75 1003 q 72 999 72 1000 q 71 999 72 999 l 71 996 l 71 989 l 71 985 q 75 988 74 988 q 82 992 81 990 q 83 996 83 994 q 85 1000 83 997 q 86 1004 85 1003 q 89 1006 86 1008 q 90 1004 90 1006 q 90 999 90 1000 q 89 996 89 997 q 93 999 88 996 q 97 997 96 999 l 97 994 q 92 990 92 990 l 94 990 q 97 990 96 990 q 99 989 97 989 q 100 986 103 989 l 100 983 l 97 983 q 89 986 89 986 q 85 988 86 986 q 81 984 82 985 q 76 982 79 983 q 75 981 75 982 q 74 981 75 981 q 76 979 75 979 q 78 978 76 979 q 85 974 83 975 q 89 975 88 975 q 93 976 90 975 q 95 977 94 976 q 97 978 96 978 q 100 975 100 978 q 101 974 101 975 q 100 974 101 974 q 92 971 96 971 l 94 968 q 97 964 97 967 q 93 963 94 963 q 89 965 90 965 l 89 963 q 90 958 90 961 q 89 956 93 956 q 83 967 83 963 q 82 969 82 968 q 74 975 79 972 q 71 976 72 975 l 71 971 l 71 963 q 76 957 75 961 q 78 956 78 956 q 81 954 79 956 q 81 950 83 953 q 76 950 79 949 l 71 956 l 71 951 q 68 947 71 947 q 65 950 65 947 l 65 953 l 65 956 q 61 950 61 951 q 57 950 60 949 q 57 954 56 953 l 64 961 q 65 965 65 964 l 65 972 l 65 976 q 61 974 63 974 q 54 969 60 972 q 53 965 54 967 q 53 961 53 964 q 52 959 53 960 q 51 957 51 958 q 49 956 51 953 q 46 957 47 956 q 49 965 47 964 q 43 963 49 965 q 40 964 40 963 q 40 967 39 965 l 43 969 q 46 971 44 969 l 43 971 q 36 975 36 971 q 37 976 36 976 q 38 978 38 976 q 42 976 40 978 q 49 975 46 976 q 51 974 51 975 m 289 794 q 303 785 299 793 q 306 768 307 778 q 299 751 304 758 q 286 744 294 744 q 140 749 214 749 q 138 717 140 742 q 132 657 135 692 q 127 581 129 622 q 125 499 125 540 q 199 479 169 496 q 247 435 229 463 q 272 374 264 408 q 279 299 279 339 q 257 135 279 194 q 206 45 235 75 q 149 7 178 15 q 108 -1 121 -1 q 48 24 68 -1 q 20 84 28 49 q 13 156 13 119 q 13 217 13 193 q 19 226 13 224 q 33 229 25 229 q 47 226 40 229 q 54 217 54 224 q 53 188 54 211 q 54 138 51 164 q 67 91 57 111 q 100 71 78 71 q 126 88 113 71 q 149 136 139 106 q 165 208 158 167 q 171 296 171 249 q 151 406 171 367 q 107 444 132 444 l 94 444 l 79 444 q 51 451 64 444 q 36 475 38 458 q 35 570 33 521 q 39 661 36 619 q 45 731 42 703 q 51 763 49 760 q 61 769 54 767 q 64 787 60 779 q 75 796 68 794 q 115 798 94 797 q 156 799 135 799 q 239 797 200 799 q 289 794 278 794 m 82 607 q 101 628 101 610 q 85 647 101 643 l 90 722 q 86 726 90 726 q 82 724 82 726 l 78 647 q 65 641 69 647 q 60 628 60 635 q 75 607 60 611 l 69 532 q 74 528 69 531 q 78 532 78 528 l 82 607 m 201 253 q 217 233 201 239 q 207 158 215 194 q 182 89 199 121 q 183 83 181 85 q 188 85 188 83 q 214 156 206 118 q 225 233 222 193 q 243 253 243 236 q 225 274 243 271 q 213 363 222 319 q 188 440 203 406 q 183 442 188 446 q 182 438 178 442 q 206 360 197 403 q 218 274 215 318 q 201 253 201 269 z "},"6":{"ha":379,"x_min":-11,"x_max":340,"o":"m 124 -72 q 122 -81 126 -78 l 114 -85 l 119 -90 q 121 -99 124 -94 q 117 -101 118 -101 q 113 -99 113 -101 l 103 -92 l 94 -96 l 106 -106 l 106 -115 l 94 -125 l 103 -129 l 113 -122 q 117 -121 114 -121 q 121 -122 119 -121 q 119 -131 124 -126 l 114 -136 l 122 -140 q 124 -149 126 -143 q 118 -151 121 -151 l 115 -151 l 108 -146 l 106 -154 q 100 -158 106 -158 q 94 -151 94 -158 l 97 -140 l 88 -135 l 85 -149 q 82 -153 85 -150 q 81 -153 81 -153 q 79 -154 81 -154 l 78 -153 l 64 -149 l 64 -160 l 75 -162 q 79 -171 79 -165 q 74 -175 78 -175 q 71 -174 72 -175 l 64 -172 l 64 -181 q 58 -186 64 -186 q 51 -181 51 -186 l 51 -172 l 44 -174 q 43 -175 43 -175 q 36 -171 40 -175 q 40 -162 36 -165 l 51 -160 l 51 -149 l 38 -153 q 33 -153 38 -153 q 31 -149 31 -150 l 28 -135 l 18 -140 l 21 -151 q 21 -156 22 -154 q 17 -158 19 -158 q 10 -154 10 -158 l 7 -146 l 0 -150 q -3 -151 -1 -151 q -8 -149 -6 -151 q -6 -140 -11 -143 l 1 -136 l -4 -131 q -4 -122 -10 -125 q 4 -121 -1 -118 l 13 -129 l 22 -124 l 11 -115 q 8 -110 8 -112 q 11 -106 8 -108 l 22 -96 l 13 -92 l 4 -99 q 0 -100 3 -100 q -4 -99 -4 -100 q -4 -90 -8 -94 l 1 -85 l -6 -81 q -8 -72 -11 -78 q 0 -69 -6 -67 l 7 -75 l 10 -67 q 17 -62 10 -60 q 21 -69 21 -62 l 18 -81 l 28 -86 l 31 -72 q 33 -68 31 -71 q 38 -68 36 -67 l 51 -72 l 51 -61 l 40 -58 q 36 -50 36 -57 q 44 -46 39 -46 l 51 -49 l 51 -40 q 58 -35 51 -35 q 64 -40 64 -35 l 64 -49 l 71 -47 q 79 -50 76 -46 q 75 -58 81 -56 l 64 -61 l 64 -72 l 78 -68 q 82 -68 81 -67 q 85 -72 85 -71 l 89 -86 l 97 -81 l 94 -69 q 100 -62 94 -62 q 107 -67 104 -61 l 108 -75 l 115 -71 q 119 -69 117 -69 q 124 -72 121 -69 m 38 -92 l 46 -97 q 49 -95 47 -96 q 51 -93 50 -94 l 51 -85 l 40 -81 l 38 -92 m 40 -114 l 40 -111 l 40 -107 l 32 -103 l 24 -110 l 32 -118 l 40 -114 m 51 -128 q 49 -126 50 -126 q 46 -124 47 -125 l 39 -129 l 40 -140 l 51 -136 l 51 -128 m 58 -117 q 64 -111 64 -117 q 58 -104 64 -104 q 51 -111 51 -104 q 58 -117 51 -117 m 64 -93 q 67 -95 65 -94 q 69 -97 68 -96 l 78 -92 l 75 -81 l 64 -85 l 64 -93 m 78 -129 l 69 -124 q 64 -128 67 -126 l 64 -136 l 75 -140 l 78 -129 m 92 -110 l 83 -103 l 75 -107 l 75 -110 l 75 -114 l 83 -118 l 92 -110 m 183 983 q 182 992 179 986 q 190 993 185 996 l 197 989 l 199 997 q 206 1001 201 1001 q 211 994 211 1000 l 208 983 l 217 978 l 221 992 q 224 996 221 993 l 228 996 l 242 992 l 242 1001 l 231 1006 q 226 1013 226 1008 q 235 1017 228 1017 l 242 1014 l 242 1024 q 247 1029 242 1029 q 254 1024 254 1029 l 254 1014 l 261 1017 q 269 1013 268 1017 q 265 1006 269 1008 l 254 1001 l 254 992 l 268 996 l 272 996 q 275 992 275 993 l 278 978 l 288 982 l 285 994 q 289 1001 285 1000 q 296 997 296 1001 l 299 989 l 306 993 q 314 992 311 996 q 311 983 317 985 l 304 978 l 310 972 q 311 964 314 969 l 301 964 l 293 972 l 285 967 l 294 957 q 297 953 297 957 q 294 949 297 951 l 285 939 l 293 933 l 301 942 q 310 942 306 946 q 310 933 315 936 l 304 928 l 311 924 q 314 915 317 921 q 308 913 313 913 l 306 913 l 297 917 l 296 910 q 290 904 296 904 l 289 906 q 285 913 282 906 l 288 924 l 278 929 l 275 914 q 272 911 275 911 q 269 910 269 910 l 267 910 l 254 915 l 254 904 l 265 900 q 268 893 272 900 q 261 889 268 889 l 254 892 l 254 883 q 247 876 254 876 q 242 883 242 876 l 242 892 l 235 889 q 226 893 228 889 q 231 901 226 900 l 242 904 l 242 915 l 228 910 q 224 911 225 910 q 221 915 221 911 l 217 929 l 208 924 l 211 913 q 206 906 211 906 q 199 910 201 906 l 197 918 l 190 913 l 188 913 q 182 915 185 913 q 185 924 179 922 l 192 928 l 186 933 q 185 942 182 936 q 189 944 188 944 q 193 942 193 944 l 203 935 l 211 939 l 201 949 q 199 953 199 951 q 201 957 199 957 l 211 967 l 203 972 l 193 964 q 190 963 192 963 q 185 965 188 963 q 186 974 182 969 l 192 979 l 183 983 m 267 935 l 260 939 q 257 938 258 938 q 254 936 256 938 l 254 926 l 265 924 l 267 935 m 265 957 l 265 953 l 265 950 l 274 946 l 282 953 l 274 961 l 265 957 m 254 969 q 260 967 257 969 l 267 971 l 265 983 l 254 979 l 254 969 m 247 958 q 242 953 242 958 q 247 947 242 947 q 254 953 254 947 q 247 958 254 958 m 242 936 q 236 939 239 936 l 228 935 l 231 924 l 242 926 l 242 936 m 228 971 l 236 967 q 242 969 239 969 l 242 979 l 231 983 l 228 971 m 214 953 l 222 946 l 231 950 l 231 957 l 222 961 l 214 953 m 231 488 q 289 465 267 488 q 322 409 311 442 q 337 340 333 376 q 340 276 340 304 q 328 165 340 217 q 293 76 315 114 q 240 18 271 39 q 174 -3 210 -3 q 112 13 140 -3 q 63 69 83 29 q 31 178 43 110 q 19 353 19 247 q 36 530 19 457 q 74 651 53 603 q 115 725 94 699 q 144 763 136 751 q 178 787 157 779 q 224 794 200 794 q 274 785 250 794 q 310 761 299 776 q 331 703 329 732 q 332 626 332 675 q 322 603 332 611 q 300 596 311 596 q 282 611 282 596 q 279 664 282 644 q 272 694 276 683 q 263 709 268 706 q 250 713 257 713 q 228 701 242 713 q 201 657 215 689 q 175 569 188 625 q 154 422 163 513 q 186 468 167 449 q 231 488 206 488 m 149 46 q 147 51 149 50 q 97 163 114 79 q 83 356 79 246 q 100 375 100 360 q 85 396 100 390 q 85 402 85 399 q 86 408 86 406 q 126 617 96 531 q 200 729 157 704 q 201 733 201 729 q 196 735 199 738 q 149 685 169 719 q 115 606 129 650 q 92 510 100 561 q 79 410 83 458 q 78 396 78 406 q 58 375 58 396 q 76 356 58 358 q 77 258 75 307 q 88 168 79 210 q 110 94 96 126 q 143 46 124 63 q 146 44 144 44 q 149 46 147 46 m 194 67 q 222 80 207 67 q 251 119 238 93 q 276 184 265 146 q 288 272 286 222 q 284 331 288 301 q 274 384 281 360 q 256 423 267 408 q 233 438 246 438 q 206 419 219 438 q 181 376 192 401 q 160 322 169 350 q 146 275 151 294 q 148 176 144 215 q 158 112 151 136 q 174 77 164 88 q 194 67 183 67 z "},"7":{"ha":361,"x_min":15,"x_max":332,"o":"m 249 171 q 244 167 246 168 q 240 165 243 167 q 239 165 239 165 q 238 164 239 164 q 240 163 239 163 q 242 161 240 163 q 249 157 247 158 q 253 158 251 158 q 257 160 254 158 q 261 161 260 160 q 264 158 264 161 q 265 158 265 158 q 264 157 265 157 q 256 154 260 154 l 258 151 q 261 147 261 150 q 257 146 258 146 l 254 149 q 253 149 253 149 l 253 146 q 254 142 254 144 q 253 139 257 139 q 250 139 253 139 q 247 149 247 150 q 247 151 247 150 q 246 153 246 151 l 238 157 l 235 160 l 235 154 l 235 146 q 244 138 239 143 q 244 133 244 138 q 240 133 243 132 l 235 139 l 235 135 q 232 131 235 131 q 229 133 229 131 l 229 136 l 229 139 q 228 138 229 138 q 228 136 228 138 q 224 133 226 136 q 221 133 224 131 q 221 138 219 136 l 226 143 l 229 146 l 229 156 l 229 160 q 225 157 226 157 q 218 153 224 156 q 217 149 218 150 q 217 144 217 147 q 216 142 217 143 q 215 140 215 142 q 213 139 215 136 l 210 139 l 210 142 q 213 149 213 149 q 207 146 213 149 q 204 147 204 146 q 203 150 203 147 q 207 153 206 151 q 210 154 208 153 l 207 154 q 200 158 200 154 q 201 160 200 160 q 201 161 201 160 q 204 160 204 161 q 206 160 204 160 q 211 159 207 160 q 215 157 215 158 q 224 163 224 163 q 226 164 226 164 q 221 168 224 167 q 215 171 218 169 q 208 168 210 168 q 206 167 207 168 q 203 167 206 167 q 200 168 200 167 l 200 171 q 204 172 203 172 q 210 174 206 174 q 204 176 210 174 q 204 181 203 179 l 210 181 q 213 179 210 179 q 211 182 211 179 q 210 186 211 185 q 213 189 210 189 q 216 183 215 185 q 218 178 217 181 l 218 175 q 226 169 226 169 q 229 168 229 169 l 229 174 l 229 181 q 226 184 228 183 q 224 188 225 185 q 221 190 224 188 q 221 194 219 193 q 222 196 221 196 q 222 194 222 196 q 224 194 222 194 l 229 189 l 229 193 q 232 197 229 197 q 235 194 235 197 l 235 192 l 235 189 q 236 190 236 189 q 238 190 236 190 q 240 194 238 192 q 244 194 240 194 q 244 190 244 194 q 240 187 242 188 q 238 183 239 186 q 235 181 238 183 l 235 171 l 235 168 q 237 169 236 169 q 239 171 238 169 q 246 175 244 174 q 247 179 247 178 q 249 183 247 181 q 250 188 249 186 q 253 189 250 189 q 254 188 254 189 q 253 182 254 183 q 253 179 253 181 q 257 181 254 179 q 261 181 260 183 l 261 178 q 256 174 256 174 l 258 174 q 263 172 260 172 q 264 168 268 172 q 261 167 263 167 q 253 169 253 169 q 249 171 250 169 m 49 542 l 44 542 q 43 544 43 543 l 42 553 l 36 550 l 38 543 q 35 538 38 540 q 29 540 32 538 l 29 546 l 24 543 q 19 544 19 543 q 21 550 17 547 l 25 553 l 21 556 q 21 561 18 558 q 26 561 24 564 l 32 557 l 38 560 l 31 565 q 30 567 31 567 q 29 568 29 567 q 31 571 31 571 l 38 578 l 32 581 l 26 575 l 24 575 l 21 575 q 21 581 19 579 l 25 585 l 21 588 q 19 592 15 588 q 24 593 19 597 l 29 590 l 29 596 q 35 599 32 599 q 38 594 38 599 l 36 586 l 42 583 l 43 593 q 49 596 46 596 l 57 592 l 57 599 l 50 601 q 47 606 47 601 q 51 608 47 608 l 57 607 l 57 613 q 60 617 57 617 q 64 613 64 617 l 64 607 l 69 608 q 74 606 74 608 q 71 601 74 601 l 64 599 l 64 592 l 72 594 q 76 594 75 597 q 78 592 78 593 l 79 583 l 85 586 l 83 594 q 86 599 83 599 q 90 596 90 599 l 92 590 l 97 593 q 101 592 101 597 q 100 588 106 588 l 96 585 l 100 581 q 100 575 103 578 q 97 574 97 574 q 94 575 94 575 l 89 581 l 83 576 l 90 571 q 92 568 92 569 q 91 567 92 567 q 90 565 90 567 l 83 560 l 89 556 l 94 561 q 100 561 97 564 q 99 556 103 558 l 96 553 l 100 550 q 101 544 104 547 q 97 543 101 543 l 92 546 l 90 540 q 88 538 90 538 q 83 543 83 540 l 85 550 l 79 553 l 78 544 q 75 542 78 542 l 72 542 l 64 544 l 64 538 l 71 535 q 74 531 74 535 q 69 528 71 528 l 64 529 l 64 524 q 60 521 64 521 q 57 524 57 521 l 57 529 l 51 528 q 47 531 47 528 q 50 535 47 535 l 57 538 l 57 544 l 49 542 m 72 557 l 68 560 q 66 558 67 558 q 64 557 65 558 l 64 551 l 71 550 l 72 557 m 71 571 l 71 567 l 76 564 l 82 568 l 76 574 l 71 571 m 64 579 q 66 578 65 578 q 68 576 67 578 l 72 579 l 71 586 l 64 585 l 64 579 m 60 572 q 57 568 57 572 q 60 564 57 564 q 64 568 64 564 q 60 572 64 572 m 57 557 q 55 558 56 558 q 53 560 54 558 l 49 557 l 50 550 l 57 551 l 57 557 m 49 579 l 53 576 q 55 578 54 578 q 57 579 56 578 l 57 585 l 50 588 l 49 579 m 49 567 l 49 571 l 44 574 l 39 568 l 44 564 l 49 567 m 332 768 q 328 746 332 758 q 315 698 324 728 q 297 629 307 668 q 273 546 286 590 q 244 453 260 501 q 263 451 256 451 q 276 451 271 451 q 294 442 289 450 q 299 424 300 433 q 292 406 299 414 q 275 399 286 399 q 251 399 263 399 q 229 400 240 400 q 199 290 213 344 q 172 184 185 235 q 148 90 160 133 q 125 13 136 46 q 108 -5 118 0 q 86 -10 97 -10 q 54 1 67 -10 q 49 31 42 13 q 99 208 74 111 q 144 400 124 304 q 113 399 125 400 q 92 397 100 399 q 75 394 81 396 q 57 401 63 393 q 51 419 51 410 q 54 438 50 429 q 68 449 58 447 q 157 453 117 453 q 189 608 175 535 q 210 735 203 681 q 125 734 167 735 q 43 728 83 733 q 25 736 31 726 q 19 757 19 746 q 22 778 18 768 q 36 790 26 789 q 105 794 68 793 q 178 796 142 796 q 213 795 197 796 q 244 794 229 794 q 256 796 250 796 q 267 796 261 796 q 279 796 274 796 q 292 794 285 796 q 303 793 299 793 q 310 793 307 793 q 331 774 328 793 l 332 768 m 253 597 q 240 617 253 613 l 264 721 q 261 725 264 725 q 257 722 257 725 l 233 618 q 211 597 211 618 q 225 578 211 585 l 201 467 q 204 463 200 465 q 208 465 208 463 l 232 576 q 247 583 242 576 q 253 597 253 589 z "},"8":{"ha":344,"x_min":15,"x_max":314,"o":"m 106 -83 q 99 -87 101 -86 q 93 -92 96 -89 q 91 -92 92 -92 q 89 -93 90 -93 q 92 -95 92 -94 q 96 -97 93 -96 q 101 -101 99 -100 q 106 -103 103 -101 q 112 -101 108 -101 q 118 -100 115 -101 q 121 -99 119 -100 q 125 -99 122 -99 q 129 -101 129 -94 q 129 -104 129 -101 q 126 -106 129 -106 q 121 -108 125 -107 q 115 -108 117 -108 q 122 -112 117 -110 q 124 -118 126 -115 q 123 -119 124 -119 q 122 -121 122 -119 q 118 -119 119 -121 q 117 -119 117 -119 q 115 -118 117 -118 q 113 -117 114 -117 q 111 -115 113 -117 q 113 -119 113 -117 q 114 -126 114 -122 q 111 -132 115 -129 l 108 -132 l 106 -126 q 103 -115 106 -124 q 101 -110 103 -112 q 89 -103 93 -106 q 87 -101 88 -101 q 85 -100 86 -101 l 85 -108 l 85 -119 q 89 -124 88 -122 q 93 -129 90 -126 q 99 -133 96 -131 q 99 -139 101 -136 q 93 -139 97 -143 q 89 -135 90 -136 q 85 -132 88 -133 l 85 -137 q 81 -143 85 -143 q 76 -136 76 -143 l 76 -132 l 74 -135 q 68 -139 71 -137 q 63 -139 67 -142 q 63 -133 60 -136 q 64 -133 64 -133 q 65 -132 64 -132 l 74 -124 q 76 -119 74 -122 l 76 -106 l 76 -100 q 69 -104 75 -101 q 60 -110 67 -108 q 58 -117 58 -114 q 57 -122 58 -119 q 56 -129 56 -125 q 50 -132 54 -132 q 49 -131 49 -132 q 47 -131 49 -131 l 47 -126 q 50 -115 50 -118 q 46 -118 47 -118 q 43 -119 44 -119 q 38 -118 40 -122 l 38 -115 q 38 -114 38 -114 q 39 -112 39 -114 q 41 -112 40 -112 q 43 -111 42 -111 q 46 -108 43 -111 l 42 -108 q 39 -107 40 -107 q 35 -106 38 -107 q 32 -101 32 -106 q 35 -99 32 -99 q 38 -99 36 -97 l 40 -99 q 51 -101 46 -101 q 56 -103 53 -103 q 58 -101 57 -103 q 63 -99 61 -100 q 68 -96 65 -97 q 70 -94 69 -94 q 72 -93 71 -94 q 67 -90 69 -90 q 61 -87 64 -87 q 56 -83 58 -86 q 44 -87 47 -86 q 40 -88 42 -87 q 38 -89 39 -89 q 32 -86 35 -89 l 32 -83 l 35 -81 l 38 -81 q 42 -79 40 -79 q 46 -78 43 -79 q 42 -75 44 -78 q 39 -74 40 -75 q 38 -68 35 -74 q 40 -67 39 -67 l 43 -67 q 46 -69 46 -69 q 48 -70 47 -69 q 50 -71 49 -71 q 49 -67 50 -68 q 48 -64 49 -65 q 47 -60 47 -62 q 50 -56 47 -56 q 53 -56 53 -56 q 56 -58 53 -56 l 56 -61 q 58 -71 58 -67 q 60 -76 60 -74 q 63 -78 61 -78 q 67 -81 65 -81 q 72 -85 69 -82 q 74 -85 74 -85 q 76 -86 75 -86 l 76 -79 l 76 -67 l 68 -58 l 63 -53 q 63 -47 60 -50 q 68 -47 65 -44 l 71 -50 l 76 -56 l 76 -50 q 81 -43 76 -43 q 85 -47 85 -43 l 85 -51 l 85 -56 q 88 -53 88 -53 q 91 -50 90 -51 q 93 -47 92 -49 q 99 -47 96 -44 q 99 -53 101 -50 q 98 -54 99 -54 q 97 -56 97 -54 l 89 -64 q 85 -67 88 -64 l 85 -69 l 85 -82 l 85 -86 q 88 -84 88 -85 q 92 -82 89 -83 q 97 -80 94 -81 q 101 -76 99 -79 q 106 -65 104 -68 q 107 -58 106 -60 q 111 -56 107 -51 q 114 -57 114 -56 q 114 -60 115 -58 l 114 -62 q 113 -67 113 -65 q 111 -71 113 -68 q 118 -67 114 -71 q 124 -68 121 -65 q 125 -72 125 -69 q 124 -73 124 -72 q 122 -74 124 -74 l 119 -76 q 117 -77 118 -76 q 115 -78 117 -78 q 117 -78 117 -78 q 119 -79 118 -79 q 124 -80 122 -79 q 126 -81 125 -81 q 129 -86 131 -83 q 128 -89 129 -87 l 125 -89 q 122 -87 122 -89 q 111 -85 119 -87 q 106 -83 107 -85 m 211 922 q 210 928 208 924 q 215 929 211 931 l 221 926 l 222 932 q 228 935 222 938 q 231 931 231 935 l 229 921 l 236 918 l 238 928 q 240 931 238 931 q 243 932 240 932 l 254 928 l 254 936 l 246 939 q 243 944 240 939 q 249 947 243 947 l 254 944 l 254 951 q 258 956 254 956 q 263 951 263 956 l 263 944 l 268 947 q 274 944 274 947 q 271 939 276 939 l 263 936 l 263 928 l 272 931 q 276 931 275 933 q 278 928 278 931 l 281 918 l 288 921 l 286 931 q 289 935 282 935 q 294 932 292 936 l 296 926 l 301 929 q 307 928 304 932 q 306 922 310 922 l 300 918 l 304 914 q 304 908 307 911 q 301 907 303 907 q 299 908 299 907 l 292 914 l 285 910 l 293 903 q 294 900 294 901 q 293 896 294 897 l 285 889 l 292 886 l 299 892 q 304 890 301 894 q 304 885 307 888 l 300 881 l 306 878 q 307 871 308 875 q 303 869 306 869 l 300 869 l 294 874 l 294 867 q 289 864 292 864 q 285 869 285 864 l 288 878 l 281 882 l 278 871 q 276 868 278 869 l 272 868 l 263 871 l 263 864 l 271 861 q 274 856 274 860 q 268 853 272 853 l 263 854 l 263 847 q 258 843 263 843 q 254 847 254 843 l 254 854 l 249 853 q 243 856 243 853 q 246 861 242 858 l 254 864 l 254 871 l 243 868 l 240 868 q 238 871 238 871 l 236 882 l 229 878 l 231 869 q 228 864 231 867 q 222 868 222 864 l 221 874 l 215 869 l 213 869 q 210 872 210 869 q 211 878 207 875 l 217 881 l 213 885 q 213 892 208 888 q 218 892 215 894 l 225 886 l 231 889 l 224 896 q 222 900 222 897 q 224 903 222 903 l 231 910 l 225 914 l 218 908 q 215 907 217 907 q 213 908 213 907 q 213 914 207 911 l 217 918 l 211 922 m 272 886 l 267 890 q 263 888 264 888 l 263 881 l 271 878 l 272 886 m 271 903 l 271 900 l 271 897 l 276 894 l 283 900 l 276 906 l 271 903 m 263 913 q 265 911 264 911 q 267 910 265 911 l 272 913 l 271 921 l 263 919 l 263 913 m 258 904 q 254 900 254 904 q 258 896 254 896 q 263 900 263 896 q 258 904 263 904 m 254 888 q 251 889 251 888 q 250 889 250 889 l 243 886 l 246 878 l 254 881 l 254 888 m 243 913 l 250 910 q 254 913 250 911 l 254 919 l 246 922 l 243 913 m 233 900 l 239 894 l 244 897 l 244 901 l 239 906 l 233 900 m 236 474 q 289 331 264 406 q 314 178 314 257 q 300 99 314 132 q 263 42 286 65 q 206 8 239 19 q 138 -3 174 -3 q 68 12 93 -3 q 31 47 43 26 q 17 92 19 68 q 15 133 15 115 q 49 260 15 193 q 128 394 83 328 q 63 533 93 468 q 33 653 33 597 q 40 694 33 669 q 66 742 47 719 q 118 782 85 765 q 204 799 151 799 q 264 783 243 799 q 295 746 285 767 q 308 704 306 725 q 310 672 310 683 q 288 578 310 628 q 236 474 267 528 m 219 746 q 206 744 215 746 q 189 735 197 742 q 174 719 181 729 q 168 692 168 708 q 181 615 168 656 q 213 531 193 575 q 249 606 235 571 q 263 671 263 640 q 260 694 263 682 q 253 719 258 707 q 240 738 249 731 q 219 746 232 746 m 132 49 q 151 51 140 49 q 172 65 161 54 q 189 94 182 75 q 196 147 196 114 q 184 242 196 194 q 154 333 172 289 q 103 226 124 279 q 82 125 82 174 q 84 106 82 118 q 92 81 86 93 q 107 58 97 68 q 132 49 117 49 m 250 124 q 258 183 260 150 q 249 251 257 215 q 226 327 240 288 q 197 406 213 367 q 207 422 207 413 q 200 438 207 433 q 182 443 193 443 q 181 446 181 444 q 148 531 164 489 q 122 609 132 572 q 110 677 113 646 q 119 731 108 708 q 118 735 124 735 q 113 733 115 736 q 103 678 101 710 q 114 608 104 646 q 140 529 124 571 q 174 443 156 488 q 175 440 175 440 q 165 422 165 433 q 173 406 165 408 q 190 403 181 403 q 219 325 206 364 q 242 251 233 286 q 251 183 250 215 q 243 126 253 151 q 244 122 239 122 q 250 124 249 122 z "},"9":{"ha":378,"x_min":24,"x_max":357,"o":"m 349 842 q 353 836 353 842 q 350 833 350 833 l 347 833 q 343 832 344 832 q 339 831 342 832 q 342 829 340 829 q 346 826 343 829 q 347 821 349 825 q 344 819 346 819 l 342 819 q 339 821 340 821 q 337 822 338 822 q 335 824 336 822 q 335 822 335 822 q 336 819 336 821 q 337 816 336 817 q 338 813 338 815 q 335 807 339 810 q 332 808 333 807 q 331 811 331 808 q 326 824 329 819 q 326 827 326 826 q 325 829 325 828 q 318 833 321 832 q 313 836 315 835 q 308 839 310 839 l 308 831 l 308 819 l 317 811 q 320 808 319 810 q 322 806 321 807 q 322 800 325 803 q 317 800 319 797 l 308 808 l 308 803 q 304 796 308 796 q 300 800 300 796 l 300 804 l 300 808 q 297 806 297 806 q 295 803 296 804 q 292 800 294 801 q 286 800 289 797 q 286 806 283 803 l 289 808 q 292 811 292 810 q 296 815 293 813 l 300 819 l 300 822 l 300 835 l 300 839 q 293 835 299 838 q 283 829 288 832 q 282 824 282 826 q 281 818 282 821 q 279 814 279 815 q 278 811 279 813 q 274 807 278 807 l 271 810 l 271 813 l 271 815 q 272 819 272 818 q 274 824 272 821 q 272 822 272 822 q 269 821 271 822 q 268 820 268 821 q 267 819 268 819 q 261 821 265 818 l 261 824 q 263 826 261 826 q 265 829 265 829 q 267 830 267 829 q 269 831 268 831 q 267 831 268 831 q 265 832 267 832 q 262 833 263 832 q 258 833 261 833 q 256 839 256 836 q 257 842 257 840 l 261 842 q 274 838 269 840 q 279 836 278 838 q 281 837 281 836 q 282 838 281 838 q 287 841 285 840 q 292 843 289 842 q 296 846 294 846 q 288 851 294 847 q 279 856 281 856 q 274 854 276 854 q 268 853 271 854 q 264 851 265 851 q 261 850 263 851 q 256 854 258 850 l 256 857 l 261 860 q 265 860 264 860 q 269 861 267 861 q 265 864 267 864 q 263 865 264 865 q 261 871 260 869 q 264 872 261 872 q 267 872 264 875 q 269 871 269 871 q 272 869 271 869 q 274 868 272 869 q 273 870 274 869 q 272 872 272 871 q 272 876 272 875 q 271 879 271 878 q 274 885 269 882 l 276 885 q 278 882 278 882 q 279 879 279 881 q 281 874 281 876 q 282 868 281 871 q 283 865 282 867 q 283 863 283 864 q 286 861 285 863 q 291 858 289 860 q 296 856 293 857 q 298 854 297 854 q 300 853 299 854 l 300 861 l 300 872 q 296 876 297 875 q 292 881 294 878 q 289 884 290 883 q 286 886 288 885 q 286 892 283 889 q 292 892 289 894 q 293 891 293 892 q 294 890 293 890 q 297 887 296 888 q 300 883 299 886 l 300 889 l 300 892 q 304 896 300 896 q 308 892 308 896 l 308 888 l 308 883 l 317 892 q 322 892 319 894 q 322 886 325 889 l 313 876 l 308 872 l 308 869 l 308 858 l 308 853 q 312 855 311 854 q 315 857 313 856 q 320 860 318 858 q 325 863 322 861 q 328 875 328 871 q 329 878 329 876 q 331 882 329 879 q 335 885 331 885 q 338 882 338 885 q 338 879 339 881 l 338 876 q 336 872 336 874 q 335 868 336 871 q 342 872 336 869 q 347 871 344 874 q 347 868 349 869 q 343 864 347 864 q 341 863 342 863 q 339 861 340 863 q 343 860 342 861 q 350 858 347 860 q 353 854 357 858 q 351 851 351 851 q 349 850 349 850 q 346 851 346 851 q 340 853 343 853 q 335 854 338 853 q 332 855 333 854 q 329 856 331 856 q 322 851 325 853 q 317 849 319 850 q 315 847 315 847 q 313 846 314 847 q 316 844 315 844 q 319 842 317 843 q 324 840 322 840 q 329 836 326 839 q 342 839 338 839 q 344 840 343 840 q 349 842 346 840 m 189 797 q 250 781 222 797 q 299 724 278 765 q 331 615 319 683 q 342 442 342 546 q 326 265 342 338 q 289 144 310 192 q 248 69 268 96 q 219 32 228 43 q 185 8 207 15 q 140 0 164 0 q 89 9 113 0 q 54 33 65 18 q 33 90 35 61 q 31 167 31 118 q 42 190 31 182 q 64 197 53 197 q 82 182 82 197 q 85 129 82 149 q 92 99 88 110 q 102 84 96 88 q 114 81 108 81 q 135 92 122 81 q 162 136 149 104 q 188 225 175 168 q 210 372 201 282 q 177 326 196 346 q 132 307 158 307 q 74 330 96 307 q 42 385 53 353 q 27 455 31 418 q 24 518 24 492 q 36 628 24 578 q 70 717 49 679 q 122 776 92 754 q 189 797 153 797 m 129 357 q 157 375 143 357 q 182 419 171 393 q 203 472 193 444 q 218 519 213 500 q 216 618 219 578 q 206 682 213 658 q 190 716 200 706 q 168 726 181 726 q 142 713 157 726 q 112 674 126 700 q 88 610 97 647 q 76 522 78 572 q 80 464 76 493 q 90 410 83 435 q 107 372 97 386 q 129 357 117 357 m 293 417 q 279 436 293 429 q 271 615 283 535 q 232 736 258 696 q 226 738 229 740 q 225 732 225 736 q 263 613 251 692 q 272 438 275 535 q 256 431 263 438 q 250 417 250 425 q 256 403 250 408 q 269 396 263 397 q 242 223 263 303 q 192 90 222 143 q 193 85 190 88 q 197 86 197 85 q 250 220 229 139 q 278 397 271 301 q 293 417 293 400 z "},"\u0000":{"ha":0,"x_min":0,"x_max":0,"o":""},"\r":{"ha":347,"x_min":0,"x_max":0,"o":""}," ":{"ha":240,"x_min":0,"x_max":0,"o":""},"a":{"ha":497,"x_min":-31,"x_max":529,"o":"m 265 -58 q 264 -67 268 -62 l 256 -71 l 261 -76 q 263 -85 265 -79 q 257 -86 261 -86 q 254 -85 254 -86 l 244 -76 l 236 -82 l 247 -92 l 247 -100 l 236 -110 l 244 -115 l 254 -107 q 263 -107 257 -104 q 261 -115 265 -112 l 256 -121 l 264 -126 q 265 -133 268 -128 q 260 -137 264 -137 q 257 -136 258 -136 l 250 -132 l 247 -139 q 242 -144 247 -144 q 236 -137 236 -143 l 239 -125 l 229 -121 l 226 -135 q 224 -139 226 -136 l 219 -139 l 206 -135 l 206 -144 l 217 -149 q 221 -156 221 -151 q 213 -160 219 -160 l 206 -157 l 206 -167 q 200 -172 206 -172 q 193 -167 193 -172 l 193 -157 l 186 -160 q 178 -156 179 -160 q 182 -149 178 -149 l 193 -144 l 193 -135 l 179 -139 q 175 -137 176 -139 q 172 -135 172 -137 l 169 -119 l 160 -125 l 163 -136 q 158 -144 163 -143 q 151 -139 151 -144 l 149 -132 l 142 -136 l 139 -136 q 133 -133 135 -136 q 136 -125 132 -129 l 143 -121 l 138 -115 q 138 -107 132 -112 q 142 -106 139 -106 q 146 -107 144 -106 l 154 -115 l 163 -110 l 153 -100 q 150 -96 150 -97 q 153 -92 150 -92 l 163 -82 l 154 -76 l 146 -85 q 142 -86 144 -86 q 136 -83 139 -86 q 138 -75 133 -81 l 143 -71 l 136 -65 q 133 -58 131 -64 q 139 -54 136 -54 q 142 -56 140 -56 l 149 -60 l 151 -51 q 158 -47 151 -47 q 163 -54 163 -50 l 160 -67 l 169 -71 l 172 -57 q 175 -53 172 -56 l 179 -53 l 193 -57 l 193 -47 l 182 -43 q 178 -36 178 -42 q 186 -32 181 -29 l 193 -35 l 193 -25 q 200 -19 193 -19 q 206 -25 206 -19 l 206 -35 l 213 -32 q 221 -36 218 -31 q 217 -43 221 -43 l 206 -47 l 206 -57 l 219 -53 q 224 -54 222 -53 q 226 -57 226 -54 l 231 -71 l 239 -67 l 236 -54 q 242 -47 236 -49 q 249 -53 247 -47 l 250 -60 l 257 -56 q 265 -58 263 -53 m 179 -78 l 188 -82 q 193 -79 190 -79 l 193 -69 l 182 -67 l 179 -78 m 182 -99 l 182 -96 l 182 -93 l 174 -87 l 165 -96 l 174 -104 l 182 -99 m 193 -112 q 188 -110 190 -112 l 179 -114 l 182 -125 l 193 -122 l 193 -112 m 200 -101 q 206 -96 206 -101 q 200 -90 206 -90 q 193 -96 193 -90 q 200 -101 193 -101 m 206 -79 q 211 -82 208 -79 l 219 -78 l 217 -67 l 206 -69 l 206 -79 m 219 -114 l 211 -110 q 206 -112 208 -112 l 206 -122 l 217 -125 l 219 -114 m 233 -96 l 225 -87 l 217 -92 l 217 -96 l 217 -99 l 225 -104 l 233 -96 m 511 285 q 524 279 518 285 q 526 264 529 274 q 469 119 497 182 q 444 65 457 92 q 417 19 431 39 q 392 -14 404 -1 q 368 -26 379 -26 q 313 -6 335 -26 q 276 44 290 14 q 257 109 263 74 q 251 174 251 144 q 252 204 251 189 q 254 236 253 219 q 217 155 238 197 q 173 78 196 113 q 126 22 150 44 q 81 0 103 0 q -3 42 24 0 q -31 158 -31 83 q -15 244 -31 200 q 28 324 0 289 q 95 383 56 360 q 185 406 135 406 q 243 399 221 406 q 278 381 265 392 q 283 394 281 386 q 318 410 292 410 q 344 407 331 410 q 368 399 357 404 q 385 387 379 393 q 390 374 392 381 q 372 253 376 313 q 369 148 368 194 q 376 73 371 101 q 385 44 381 44 q 398 54 390 44 q 415 81 406 64 q 433 118 424 97 q 453 160 443 139 q 497 275 474 211 q 511 285 501 285 m 57 188 q 43 207 57 203 q 78 294 54 253 q 135 358 103 335 q 135 363 138 361 q 131 364 135 368 q 72 298 97 339 q 36 208 47 257 q 22 203 28 208 q 15 188 15 197 q 31 168 15 172 q 63 38 22 89 q 65 36 63 36 q 67 38 67 36 q 68 42 69 40 q 42 98 49 65 q 38 167 35 131 q 57 188 57 169 m 104 74 q 133 90 118 74 q 164 133 149 107 q 195 192 179 160 q 225 257 211 225 q 224 283 225 268 q 219 313 222 299 q 210 338 217 328 q 194 349 204 349 q 163 331 182 349 q 127 283 144 314 q 97 209 110 251 q 85 115 85 167 q 91 83 85 92 q 104 74 97 74 m 354 21 q 354 25 357 24 q 326 90 335 49 q 317 176 318 131 q 335 197 335 182 q 330 210 335 204 q 318 217 325 215 q 326 316 319 274 q 332 360 332 358 q 329 364 332 364 q 325 361 325 367 q 318 315 324 357 q 310 217 313 272 q 293 197 293 214 q 310 176 293 181 q 319 87 311 129 q 350 21 328 44 q 353 19 350 19 q 354 21 354 19 m 33 508 q 32 514 31 511 q 38 514 33 515 l 42 513 l 43 517 q 47 519 43 519 q 50 515 50 519 l 49 508 l 53 506 l 56 514 q 60 517 58 517 l 68 514 l 68 519 l 61 522 q 58 526 58 522 q 64 529 61 529 l 68 528 l 68 532 q 71 536 68 536 q 75 532 75 536 l 75 526 l 79 529 q 85 526 82 529 q 82 522 85 522 l 75 519 l 75 514 l 83 517 q 88 514 85 517 l 90 506 l 94 508 l 93 515 q 96 519 93 519 q 100 517 100 519 l 101 511 l 106 514 q 111 513 110 515 q 110 508 113 511 l 106 506 l 108 503 q 108 497 111 500 q 106 496 107 496 l 104 497 l 99 501 l 93 499 l 100 493 q 101 490 101 492 q 101 489 101 489 q 100 488 100 489 l 93 482 l 99 479 l 104 483 q 108 483 107 486 q 108 479 113 479 l 106 475 l 110 472 q 111 468 115 472 q 108 467 108 467 l 106 467 l 101 469 l 100 464 q 97 461 100 461 q 93 467 93 464 l 94 472 l 89 476 l 88 468 q 86 465 88 465 l 83 465 l 75 468 l 75 461 l 82 460 q 83 454 85 457 q 79 453 83 453 l 75 454 l 75 449 q 71 444 75 444 q 68 449 68 444 l 68 454 l 64 453 q 58 454 60 453 q 61 460 58 457 l 68 461 l 68 468 l 60 465 l 57 465 q 56 468 56 465 l 53 476 l 49 474 l 50 467 q 46 461 50 464 q 43 464 43 461 l 42 469 l 38 467 l 35 467 q 32 468 33 467 q 33 472 28 472 l 38 475 l 35 479 q 35 483 33 482 q 39 483 38 486 l 44 479 l 50 482 l 43 488 q 42 490 42 490 q 43 493 43 493 l 50 499 l 44 501 l 39 497 l 38 496 q 35 497 35 497 q 35 503 32 500 l 38 506 l 33 508 m 83 479 l 79 482 q 77 481 78 482 q 75 481 76 481 l 75 475 l 82 472 l 83 479 m 82 493 l 82 489 l 86 486 l 92 490 l 86 496 l 82 493 m 75 500 q 78 499 78 500 l 83 501 l 82 508 l 75 506 l 75 500 m 71 494 q 68 490 68 494 q 71 488 68 488 q 75 490 75 488 q 71 494 75 494 m 68 481 q 66 481 67 481 q 64 482 65 482 l 60 479 l 61 472 l 68 475 l 68 481 m 60 501 l 64 499 q 68 500 65 500 l 68 506 l 61 508 l 60 501 m 51 490 l 57 486 l 61 489 l 61 493 l 57 496 l 51 490 z "},"b":{"ha":446,"x_min":-7,"x_max":546,"o":"m 238 610 q 247 615 243 613 q 253 619 250 617 q 256 621 254 621 q 258 622 257 621 q 254 625 256 624 q 250 628 253 626 q 238 635 246 629 q 222 631 231 633 q 213 628 221 631 q 207 632 207 628 l 207 636 q 210 639 210 639 l 214 639 q 225 642 219 642 q 222 644 222 643 q 218 646 221 644 q 215 647 217 646 q 214 654 211 649 q 217 657 214 654 q 221 656 219 657 q 223 655 222 656 q 225 654 224 654 q 229 651 228 651 q 228 656 229 654 q 227 660 228 658 q 226 665 226 663 q 229 671 224 671 l 233 671 l 236 668 l 236 664 q 240 650 239 656 q 241 647 240 649 q 242 643 242 646 l 244 642 q 251 638 247 639 q 258 635 256 638 q 264 632 261 632 l 264 656 l 246 674 q 246 681 242 676 q 253 681 250 685 l 264 671 l 264 681 q 268 686 264 686 q 274 681 274 686 l 274 676 l 274 671 l 278 674 q 281 677 279 676 q 283 681 282 678 q 292 681 288 683 q 292 674 296 678 q 289 671 289 671 q 283 666 286 668 q 278 661 281 664 q 276 658 276 660 q 274 656 275 657 l 274 632 l 282 636 q 294 643 290 642 q 299 658 296 650 q 300 663 300 661 q 301 668 300 665 q 307 671 301 674 q 311 668 308 671 l 311 665 q 309 658 311 664 q 307 651 307 653 q 314 654 308 651 q 317 656 315 656 q 324 654 319 658 l 324 650 q 321 647 324 647 q 319 646 319 646 q 317 644 318 646 q 313 642 315 644 q 318 640 315 642 q 322 640 321 640 q 326 639 324 639 q 331 632 331 638 q 328 629 328 629 q 324 628 326 628 q 321 629 322 629 q 307 633 315 631 l 297 633 q 283 625 289 628 q 279 622 282 625 l 288 618 l 300 610 q 308 612 304 611 q 315 614 311 613 q 319 615 318 615 q 324 617 321 615 q 331 613 328 618 l 331 611 q 329 610 331 610 q 326 607 329 607 q 324 606 324 606 q 313 603 321 606 q 318 600 315 600 q 321 599 321 599 q 324 590 324 596 q 322 590 322 590 q 319 589 321 589 q 317 589 317 589 q 313 592 314 590 q 307 594 310 592 q 308 589 308 593 q 310 585 310 586 q 311 581 310 583 q 307 574 311 576 q 303 575 304 574 l 300 581 q 298 588 299 583 q 296 594 297 592 q 294 601 296 599 q 292 603 293 603 l 279 611 q 274 614 276 611 l 274 589 l 285 578 q 292 572 289 574 q 292 564 294 568 q 283 564 288 563 q 283 565 283 565 q 282 567 282 565 l 274 575 l 274 564 q 268 560 274 560 q 264 564 264 560 l 264 565 l 264 569 l 264 575 l 260 571 l 253 564 q 246 564 250 561 q 246 572 243 567 q 247 573 247 572 q 249 574 247 574 q 253 579 251 576 q 258 585 256 582 q 264 589 261 588 l 264 614 q 259 611 261 613 q 254 608 257 610 q 248 605 251 606 q 242 601 244 604 q 238 586 239 590 q 237 582 238 583 q 236 578 236 581 q 229 574 235 574 q 226 576 226 574 q 226 581 225 579 l 226 583 q 229 594 229 592 q 226 592 228 593 q 224 590 225 592 q 222 590 222 590 q 221 589 222 589 q 214 590 217 588 q 214 594 213 593 q 215 599 214 597 q 217 599 217 599 q 219 600 218 600 q 225 603 222 603 q 222 603 222 603 q 219 604 221 604 q 215 606 217 606 q 210 607 213 606 q 207 613 204 607 q 210 617 207 614 l 213 617 q 217 615 215 617 q 223 614 219 614 q 231 613 226 614 q 233 611 232 611 q 238 610 235 611 m 528 267 q 542 253 539 267 q 531 236 546 240 q 442 206 485 222 q 358 172 399 190 q 326 81 347 125 q 278 2 306 36 q 215 -53 250 -32 q 139 -74 179 -74 q 91 -54 103 -74 q 79 -17 79 -35 q 92 31 79 8 q 127 76 106 54 q 178 117 149 97 q 240 154 207 138 q 256 292 256 224 q 247 378 256 350 q 233 407 239 407 q 194 383 214 407 q 158 317 175 358 q 126 217 142 275 q 100 93 111 160 q 96 44 96 47 q 88 34 96 38 q 68 31 79 31 q 34 37 51 31 q 15 51 17 43 q -2 208 3 126 q -6 369 -7 290 q -2 521 -6 449 q 7 648 1 593 q 18 736 13 703 q 26 771 24 769 q 47 780 38 778 q 69 782 57 782 q 107 775 89 781 q 128 758 125 769 q 127 707 129 754 q 122 589 125 660 q 115 433 119 518 q 107 271 111 349 q 133 342 118 308 q 165 400 147 375 q 203 440 182 425 q 247 456 224 456 q 337 409 301 456 q 372 283 372 363 q 365 213 372 251 q 397 224 374 215 q 447 243 419 233 q 497 260 474 253 q 528 267 519 267 m 60 404 q 76 424 76 407 q 61 444 76 439 q 66 560 64 506 q 70 655 68 614 q 74 720 72 696 q 75 744 75 744 q 72 749 78 749 q 68 746 68 749 q 67 720 68 744 q 63 655 65 696 q 58 560 61 614 q 53 444 56 506 q 35 424 35 442 q 51 404 35 407 q 48 237 49 321 q 50 82 47 153 q 54 79 50 79 q 57 83 57 79 q 56 238 54 154 q 60 404 57 321 m 135 -35 q 185 6 160 -35 q 229 110 210 47 q 148 49 178 79 q 118 -12 118 18 q 124 -31 118 -26 q 135 -35 129 -35 m 193 -37 q 269 76 239 13 q 311 205 300 140 q 313 326 322 269 q 271 417 303 382 q 265 418 269 418 q 265 413 263 415 q 306 324 297 379 q 303 205 314 268 q 263 78 293 142 q 188 -33 233 15 q 188 -37 186 -36 q 190 -39 189 -39 q 193 -37 192 -39 z "},"c":{"ha":351,"x_min":-14,"x_max":383,"o":"m 31 500 q 29 506 28 503 q 33 507 31 507 l 39 504 l 39 508 q 43 511 42 511 q 46 507 50 511 l 44 500 l 50 497 l 51 506 l 54 508 l 57 508 l 65 506 l 65 511 l 58 514 q 56 518 56 514 q 60 521 57 521 l 65 519 l 65 525 q 68 528 65 528 q 72 525 72 528 l 72 519 l 76 521 q 81 518 81 521 q 79 514 85 514 l 72 511 l 72 506 l 81 508 l 82 508 l 85 506 l 86 497 l 92 500 l 90 507 q 93 511 90 511 q 97 508 97 511 l 99 504 l 103 507 q 108 506 107 507 q 107 500 108 501 l 101 497 l 106 494 q 106 489 108 492 q 103 488 104 488 q 100 489 101 489 l 96 494 l 90 490 l 96 485 q 97 482 97 485 q 96 479 97 481 l 90 474 l 96 471 l 100 475 q 106 475 104 476 q 106 471 108 474 l 101 467 l 107 465 q 107 460 110 463 q 103 458 107 458 l 99 461 l 97 457 q 94 454 97 454 q 90 458 90 454 l 92 465 l 86 468 l 85 460 q 83 457 83 457 l 81 457 l 72 460 l 72 453 l 79 451 q 81 447 82 449 q 76 444 81 444 l 72 446 l 72 440 q 68 438 72 438 q 65 440 65 438 l 65 446 l 60 444 q 56 447 58 444 q 58 451 56 449 l 65 453 l 65 460 l 57 457 l 54 457 l 51 460 l 50 468 l 44 465 l 46 458 q 43 454 49 454 q 39 457 40 454 l 39 461 l 33 458 q 29 460 29 458 q 31 465 28 463 l 35 467 l 32 471 q 31 475 29 474 q 36 476 35 479 l 42 471 l 47 474 l 40 481 q 39 482 39 482 q 40 485 39 485 l 47 490 l 42 494 l 36 489 l 33 489 l 31 489 q 32 494 29 492 l 35 497 l 31 500 m 81 472 l 75 475 q 72 472 75 472 l 72 467 l 79 465 l 81 472 m 79 485 l 79 481 l 83 478 l 89 482 l 83 488 l 79 485 m 72 493 l 75 490 l 81 493 l 79 500 l 72 499 l 72 493 m 68 486 q 65 482 65 486 q 68 479 65 479 q 72 482 72 479 q 68 486 72 486 m 65 472 q 63 473 64 472 q 61 474 63 474 l 57 472 l 58 465 l 65 467 l 65 472 m 57 493 l 61 490 q 63 492 63 492 q 65 493 64 492 l 65 499 l 58 500 l 57 493 m 49 482 l 53 478 l 58 481 l 57 482 q 58 483 57 483 q 58 485 58 483 l 53 488 l 49 482 m 367 285 q 378 279 374 285 q 381 264 383 274 q 357 214 378 256 q 303 124 336 172 q 228 38 269 76 q 143 0 186 0 q 90 8 118 0 q 40 35 63 15 q 1 90 17 56 q -14 181 -14 125 q 6 292 -14 249 q 55 361 26 336 q 113 396 83 386 q 163 406 143 406 q 219 383 200 406 q 239 328 239 360 q 221 303 239 303 q 208 308 214 303 q 203 324 203 314 q 199 342 203 333 q 189 351 196 351 q 169 340 182 351 q 144 305 157 328 q 123 249 132 282 q 114 174 114 215 q 115 127 114 151 q 122 83 117 103 q 134 49 126 63 q 154 36 142 36 q 218 69 186 38 q 278 141 250 100 q 325 221 306 182 q 351 275 344 260 q 367 285 356 285 m 101 38 q 101 42 104 40 q 63 114 74 79 q 51 179 53 149 q 68 200 68 183 q 54 219 68 215 q 56 228 56 224 q 57 236 56 232 q 100 325 69 288 q 158 376 131 363 q 160 381 161 379 q 156 383 160 383 q 95 331 126 368 q 50 238 64 293 q 49 229 49 233 q 47 221 49 225 q 33 215 39 221 q 26 200 26 208 q 44 179 26 182 q 56 112 44 147 q 96 38 67 76 q 99 36 99 36 q 101 38 100 36 m 363 -144 q 360 -153 365 -151 l 353 -157 l 358 -162 q 360 -171 363 -165 q 354 -172 358 -172 q 350 -171 351 -172 l 342 -162 l 333 -168 l 343 -178 q 346 -182 346 -181 q 343 -186 346 -186 l 333 -196 l 342 -201 l 350 -193 q 358 -194 354 -190 q 358 -203 361 -200 l 353 -208 l 360 -212 q 363 -221 365 -215 q 357 -224 360 -224 q 354 -222 356 -224 l 346 -218 l 344 -226 q 338 -231 344 -231 q 333 -224 332 -228 l 336 -212 l 326 -207 l 324 -221 q 321 -225 324 -222 l 318 -225 l 315 -225 l 303 -221 l 303 -231 l 314 -235 q 317 -242 319 -237 q 310 -246 317 -246 l 303 -244 l 303 -253 q 296 -258 303 -258 q 290 -253 290 -258 l 290 -243 l 283 -246 q 275 -242 276 -246 q 279 -235 275 -237 l 290 -231 l 290 -221 l 276 -225 l 272 -225 q 269 -221 269 -222 l 265 -207 l 257 -211 l 260 -224 q 254 -231 260 -229 q 247 -226 250 -231 l 246 -218 l 239 -222 q 236 -224 236 -224 q 231 -221 233 -224 q 233 -212 228 -214 l 240 -207 l 235 -201 q 233 -193 228 -199 q 238 -192 235 -192 q 242 -193 242 -192 l 251 -201 l 260 -196 l 250 -186 q 247 -182 247 -183 q 250 -178 247 -181 l 260 -168 l 251 -162 l 242 -171 q 239 -172 242 -172 q 233 -171 235 -172 q 235 -162 231 -165 l 240 -157 l 232 -153 q 231 -144 228 -149 q 239 -142 233 -139 l 246 -146 l 247 -139 q 254 -133 249 -133 q 260 -142 260 -135 l 257 -153 l 265 -158 l 269 -143 q 272 -140 269 -140 q 276 -139 274 -139 l 290 -144 l 290 -133 l 279 -129 q 275 -122 275 -129 q 283 -118 278 -117 l 290 -121 l 290 -112 q 296 -106 290 -106 q 303 -112 303 -106 l 303 -121 l 310 -118 q 318 -122 317 -118 q 314 -129 318 -129 l 303 -133 l 303 -144 l 317 -139 q 321 -140 319 -139 q 324 -144 324 -140 l 326 -158 l 336 -153 l 333 -142 q 338 -135 333 -135 q 346 -139 343 -133 l 347 -147 l 354 -142 q 363 -144 360 -139 m 276 -164 l 285 -168 q 290 -165 285 -168 l 290 -156 l 279 -153 l 276 -164 m 279 -186 l 279 -179 l 271 -174 l 263 -182 l 271 -190 l 279 -186 m 290 -200 q 285 -196 288 -199 l 276 -200 l 279 -212 l 290 -208 l 290 -200 m 296 -189 q 303 -182 303 -189 q 296 -176 303 -176 q 290 -182 290 -176 q 296 -189 290 -189 m 303 -165 q 306 -167 304 -167 q 308 -168 307 -167 l 315 -164 l 314 -153 l 303 -156 l 303 -165 m 315 -200 l 308 -196 q 303 -199 306 -199 l 303 -208 l 314 -212 l 315 -200 m 331 -182 l 322 -174 l 314 -179 l 314 -182 l 314 -185 l 322 -190 l 331 -182 z "},"d":{"ha":496,"x_min":-47,"x_max":529,"o":"m 510 285 q 524 279 518 285 q 526 264 529 274 q 447 79 486 160 q 413 11 431 44 q 378 -49 396 -22 q 342 -91 360 -75 q 310 -107 325 -107 q 270 -91 289 -107 q 240 -37 251 -75 q 224 104 228 26 q 224 265 221 182 q 196 197 211 232 q 163 133 181 163 q 126 86 144 104 q 86 68 107 68 q 38 79 57 68 q 6 108 18 90 q -10 147 -6 125 q -15 192 -15 169 q -3 272 -15 232 q 32 344 10 313 q 83 397 54 376 q 143 417 111 417 q 194 406 175 417 q 225 376 214 396 q 228 388 226 383 q 232 399 229 393 q 245 528 238 465 q 263 647 253 592 q 282 747 272 701 q 300 822 292 792 q 313 835 303 831 q 335 839 324 839 q 361 834 349 839 q 376 818 374 829 q 371 748 378 813 q 355 574 364 683 q 338 316 346 464 q 331 -6 331 168 q 339 -18 331 -18 q 359 -6 347 -18 q 383 28 371 7 q 409 75 396 49 q 435 129 422 101 q 496 275 464 193 q 510 285 500 285 m 61 233 q 50 251 61 244 q 83 331 61 294 q 132 383 104 368 q 133 389 133 385 q 128 390 132 390 q 77 336 100 374 q 43 254 54 299 q 26 249 33 254 q 19 233 19 244 q 25 220 19 226 q 38 214 31 214 q 68 107 33 142 q 71 106 69 106 q 72 106 72 106 q 74 107 72 107 q 74 113 76 110 q 44 214 40 144 q 61 233 61 217 m 111 136 q 130 151 119 136 q 152 192 140 167 q 177 249 164 217 q 203 314 190 281 q 190 354 199 336 q 167 372 182 372 q 146 355 157 372 q 124 311 135 338 q 106 254 114 285 q 96 197 99 224 q 97 153 93 171 q 111 136 100 136 m 306 347 q 293 367 306 361 q 310 580 299 475 q 340 788 321 685 q 338 792 343 792 q 333 789 336 793 q 303 581 314 686 q 285 368 292 476 q 270 363 276 368 q 264 347 264 357 q 283 328 264 328 q 288 -28 278 153 q 292 -31 288 -31 q 296 -26 296 -31 q 288 152 289 64 q 290 328 288 240 q 306 347 306 333 m 119 529 q 124 532 119 532 q 126 528 126 532 l 125 521 l 131 518 l 132 526 q 133 528 132 528 q 133 529 133 528 l 136 529 l 144 526 l 144 532 l 139 535 q 136 539 132 535 q 140 542 136 542 l 144 540 l 144 546 q 149 549 144 549 q 151 546 151 549 l 151 540 l 157 542 q 161 539 161 542 q 158 535 161 535 l 153 532 l 153 526 l 160 529 q 165 526 163 529 l 167 518 l 172 521 l 171 528 q 174 532 171 532 q 178 529 178 532 l 179 525 l 183 528 q 188 526 188 528 q 186 521 189 522 l 182 518 l 186 515 q 186 510 189 513 l 181 510 l 175 515 l 171 511 l 176 506 q 178 503 178 506 q 176 500 178 501 l 171 494 l 175 492 l 181 496 q 186 496 183 499 q 186 492 189 494 l 182 488 l 186 486 q 188 481 190 483 q 183 479 188 479 l 178 482 l 178 478 q 174 475 176 475 q 171 479 169 475 l 172 486 l 167 489 l 165 481 q 163 478 163 478 l 160 478 l 151 481 l 151 474 l 158 472 q 161 468 161 471 q 157 465 161 465 l 151 467 l 151 461 q 149 458 151 458 q 144 461 144 458 l 144 467 l 140 465 q 136 468 136 465 q 139 472 135 469 l 144 474 l 144 481 l 136 478 l 133 478 q 133 479 133 479 q 132 481 132 479 l 131 489 l 125 486 l 126 479 q 124 475 126 475 q 119 478 119 475 l 118 482 l 114 479 q 110 481 110 479 q 111 486 107 483 l 115 489 l 111 492 q 111 496 110 494 q 117 497 115 500 l 121 492 l 126 494 l 121 501 q 119 503 119 503 q 121 506 119 506 l 126 511 l 121 515 l 117 510 l 114 510 l 111 510 q 111 515 108 513 l 115 518 l 110 521 q 110 526 108 522 q 114 528 110 528 l 118 525 l 119 529 m 160 493 l 156 496 l 153 493 l 153 488 l 158 486 l 160 493 m 158 506 q 159 504 158 504 q 160 503 160 504 l 158 501 l 164 499 l 169 503 l 164 508 l 158 506 m 151 514 q 153 513 153 513 q 156 511 154 513 l 160 514 l 158 521 l 151 519 l 151 514 m 149 507 q 144 503 144 507 q 149 500 144 500 q 151 503 151 500 q 149 507 151 507 m 144 493 q 143 494 143 493 q 142 494 143 494 l 136 493 l 139 486 l 144 488 l 144 493 m 136 514 l 142 511 l 144 514 l 144 519 l 139 521 l 136 514 m 128 503 l 133 499 l 138 501 l 138 506 l 133 508 l 128 503 m 71 701 q 81 707 75 704 l 83 708 q 81 710 82 710 q 78 713 79 711 q 74 715 75 714 q 71 717 74 715 q 63 714 65 714 l 57 713 q 53 714 54 713 l 53 717 q 56 718 54 718 q 60 719 58 719 q 64 721 61 719 q 62 722 63 721 q 60 722 61 722 q 57 728 57 724 l 58 729 q 61 728 61 729 q 64 726 63 728 q 67 725 65 726 q 65 729 67 728 q 64 733 65 732 q 67 738 64 735 q 69 735 69 736 q 72 725 72 726 l 74 721 q 83 715 81 719 l 86 714 l 86 728 q 83 732 83 731 q 79 735 82 733 q 78 737 78 736 q 76 739 78 738 q 76 743 75 742 q 81 743 76 747 l 82 742 l 86 738 l 86 743 q 89 746 86 746 q 92 743 92 746 l 92 740 l 92 738 l 94 739 l 99 743 q 103 743 99 747 l 103 739 l 101 738 q 94 732 97 733 q 92 728 94 731 l 92 714 q 97 717 94 717 q 101 719 100 718 q 104 721 101 719 q 106 726 106 724 q 107 731 106 728 l 108 735 q 111 738 108 738 q 113 737 113 738 q 114 736 113 736 l 114 733 q 113 729 113 731 q 111 725 113 728 q 117 728 111 725 q 121 728 119 731 l 121 725 l 117 721 q 115 721 115 721 q 118 719 115 719 l 122 718 q 125 714 125 718 q 121 713 122 713 q 116 714 118 714 q 111 715 114 714 q 107 717 108 715 q 101 713 104 714 q 94 708 97 711 q 100 706 97 708 q 107 701 106 703 q 115 704 110 703 q 121 706 119 706 q 125 704 125 706 l 125 701 q 122 700 124 700 q 118 699 119 699 q 115 697 117 699 l 117 696 q 119 694 118 696 q 121 690 125 694 q 117 689 118 689 q 114 690 115 690 q 111 693 114 690 l 113 689 q 114 685 114 688 q 111 681 114 681 q 108 683 108 682 q 106 693 106 692 q 105 695 106 694 q 104 697 104 696 q 94 703 99 700 q 92 704 93 703 l 92 689 l 103 679 l 103 675 q 99 675 99 671 l 97 676 q 92 681 94 678 l 92 675 q 89 672 92 672 q 86 675 86 672 l 86 678 l 86 681 q 85 680 85 681 q 83 679 85 679 q 82 677 82 678 q 81 675 82 676 q 76 675 76 671 q 76 679 75 678 l 83 686 q 86 689 86 689 l 86 704 q 81 701 83 701 l 74 697 q 72 692 72 694 q 71 688 72 690 l 69 683 q 67 681 69 681 q 65 681 65 681 q 64 682 65 682 l 64 685 q 65 689 65 688 q 67 693 65 690 q 65 692 65 692 q 61 689 64 692 q 57 690 58 689 l 57 693 q 61 696 60 696 q 64 697 61 697 q 57 699 61 697 q 53 704 53 701 q 57 706 56 706 q 62 704 60 704 q 67 703 64 704 l 71 701 m 46 -33 q 37 -37 40 -36 q 31 -42 33 -39 q 25 -44 28 -44 q 33 -50 28 -47 q 46 -57 42 -56 q 61 -53 53 -56 q 66 -52 64 -53 q 71 -51 68 -51 q 76 -54 76 -49 l 76 -58 l 74 -61 l 69 -61 q 58 -64 64 -64 q 62 -66 61 -65 q 65 -68 63 -67 q 67 -69 67 -68 q 68 -69 67 -69 q 69 -76 72 -71 q 67 -79 69 -79 l 63 -79 q 58 -76 60 -76 q 56 -75 57 -75 q 54 -74 56 -75 q 56 -79 54 -76 q 56 -83 56 -82 q 57 -87 57 -85 q 54 -93 60 -93 q 50 -93 53 -96 q 47 -90 50 -93 l 47 -87 q 43 -74 46 -82 q 42 -69 43 -71 q 42 -67 42 -68 q 39 -65 40 -65 q 32 -61 36 -62 q 25 -57 28 -60 q 23 -56 24 -56 q 21 -54 22 -56 l 21 -78 l 38 -96 q 38 -103 42 -100 q 31 -103 35 -110 q 29 -102 29 -103 q 28 -101 29 -101 q 21 -93 22 -96 l 21 -103 q 15 -108 21 -108 q 10 -103 10 -108 l 10 -99 l 10 -93 l 6 -97 l 0 -103 q -7 -103 -4 -107 q -7 -96 -14 -100 q -6 -93 -6 -94 q 0 -88 -3 -90 q 6 -83 3 -86 q 10 -78 8 -81 l 10 -54 l 1 -58 l -11 -67 l -11 -68 q -15 -82 -14 -76 q -17 -86 -17 -85 q -18 -90 -17 -87 q -24 -93 -18 -96 q -26 -92 -26 -93 q -28 -87 -28 -90 q -26 -85 -26 -85 q -24 -74 -26 -79 q -31 -76 -29 -76 q -31 -78 -31 -78 q -32 -79 -32 -78 q -40 -76 -36 -81 l -40 -72 q -37 -69 -40 -72 q -33 -67 -36 -69 q -29 -64 -32 -67 q -35 -62 -32 -64 q -39 -62 -37 -62 q -43 -61 -40 -61 q -47 -54 -47 -60 q -44 -51 -44 -51 q -40 -51 -40 -51 l -37 -51 q -24 -56 -32 -53 q -19 -56 -21 -56 q -17 -57 -18 -57 q -14 -56 -15 -57 q 0 -49 -6 -50 l 4 -44 l -4 -40 q -17 -33 -12 -35 q -24 -35 -21 -35 q -32 -37 -28 -36 q -36 -38 -35 -37 q -40 -39 -37 -39 q -47 -36 -44 -42 q -46 -32 -47 -33 q -43 -29 -46 -29 l -40 -29 q -29 -25 -32 -26 q -35 -22 -32 -25 q -37 -21 -37 -21 q -40 -14 -40 -19 q -36 -11 -37 -11 l -32 -11 l -29 -14 q -24 -17 -24 -17 q -25 -11 -25 -15 q -26 -7 -26 -8 q -28 -3 -26 -6 q -24 4 -28 3 q -19 3 -21 4 q -18 0 -18 1 q -17 -3 -17 -3 q -12 -17 -15 -8 q -11 -24 -12 -22 q -8 -25 -11 -25 l 4 -33 q 10 -36 10 -36 l 10 -11 l -7 6 q -7 13 -11 10 q 0 13 -4 17 l 1 11 l 10 3 l 10 13 q 15 18 10 18 q 21 13 21 18 l 21 8 l 21 3 q 24 7 21 4 q 27 10 26 8 q 31 13 28 11 q 38 13 35 19 q 38 6 42 10 l 35 3 l 25 -7 l 21 -11 l 21 -36 l 29 -32 l 42 -24 q 44 -16 43 -19 q 46 -8 44 -12 q 47 -4 46 -6 q 47 0 47 -3 q 54 4 50 4 q 57 1 57 1 q 57 -3 60 -1 l 57 -6 q 54 -17 54 -14 q 60 -14 57 -14 l 63 -11 q 69 -14 67 -8 q 71 -18 71 -15 q 68 -21 71 -18 q 66 -22 67 -21 q 64 -22 65 -22 q 58 -25 61 -25 q 64 -26 61 -26 q 74 -29 69 -29 q 76 -36 79 -32 q 74 -39 76 -36 q 71 -39 72 -40 l 67 -39 q 53 -35 58 -36 q 50 -34 51 -35 q 46 -33 49 -33 z "},"e":{"ha":325,"x_min":-12,"x_max":357,"o":"m 339 285 q 351 279 346 285 q 354 264 357 274 q 292 132 324 190 q 261 83 278 107 q 226 41 244 60 q 190 11 208 22 q 153 0 172 0 q 90 13 119 0 q 37 51 60 26 q 1 110 14 75 q -12 190 -12 146 q -1 277 -12 235 q 32 352 11 319 q 81 405 53 385 q 143 425 110 425 q 167 422 151 425 q 199 412 183 419 q 227 390 215 404 q 239 351 239 375 q 201 274 239 310 q 113 226 164 238 q 111 204 111 219 q 133 101 111 132 q 172 69 156 69 q 227 101 200 69 q 276 172 254 133 q 325 275 301 218 q 339 285 329 285 m 161 390 q 139 353 154 390 q 115 261 124 315 q 155 303 136 278 q 174 353 174 329 q 171 377 174 364 q 161 390 168 390 m 135 38 q 133 43 135 42 q 54 172 65 88 l 54 179 q 69 199 69 185 q 54 219 69 214 q 79 322 58 275 q 117 388 100 369 q 117 393 118 392 q 113 393 115 396 q 93 367 104 385 q 73 327 82 350 q 57 276 64 304 q 47 219 50 249 q 28 199 28 217 q 47 179 28 182 l 47 171 q 131 36 57 85 q 133 37 132 36 q 135 38 133 38 m 168 674 q 174 677 171 676 q 181 681 178 678 q 186 683 186 683 q 178 689 183 686 q 165 696 169 694 q 150 692 154 693 q 146 691 147 692 q 142 690 144 690 q 135 693 138 688 l 135 697 q 139 700 138 700 l 142 700 q 153 703 150 703 q 149 705 150 704 q 146 707 149 706 q 143 708 144 708 q 142 715 140 711 q 144 718 142 718 l 149 718 q 153 715 151 715 q 155 714 154 714 q 157 713 156 714 q 156 718 157 715 q 155 722 156 721 q 154 726 154 724 q 157 732 151 732 q 161 732 160 735 q 164 729 164 732 l 164 726 q 168 713 165 721 q 169 706 169 710 q 172 704 172 704 q 186 696 178 701 q 192 693 186 696 l 192 717 l 174 735 q 174 742 171 739 q 181 742 178 749 q 182 741 182 742 q 183 740 182 740 l 192 732 l 192 742 q 196 747 192 747 q 201 742 201 747 l 201 738 l 201 732 l 206 736 l 211 742 q 219 742 215 746 q 219 735 224 739 q 217 732 219 735 l 207 722 q 201 717 203 721 l 201 693 l 210 697 l 222 706 q 224 713 224 710 q 226 721 225 717 q 228 725 228 724 q 229 729 228 726 q 231 733 229 732 q 235 732 233 733 q 239 731 238 732 l 239 726 q 238 724 239 724 q 235 713 238 718 q 242 715 240 715 q 244 718 242 715 q 251 715 249 722 l 251 711 q 249 708 251 711 q 244 706 247 708 q 240 703 243 706 q 246 701 244 703 q 250 701 249 701 q 254 700 251 700 q 258 693 258 699 q 256 690 258 690 q 251 690 251 690 l 249 690 q 242 692 246 692 q 235 694 238 693 q 231 695 232 694 q 228 696 231 696 q 225 694 226 696 q 211 688 217 689 l 207 683 l 215 679 q 228 672 224 674 q 243 676 239 675 q 247 677 246 676 q 251 678 249 678 q 258 675 256 681 q 257 671 258 672 q 254 668 257 668 l 251 668 q 246 666 249 667 q 240 664 243 665 q 246 661 243 664 q 249 660 249 660 q 251 653 256 657 l 249 650 l 244 650 q 240 653 242 653 q 235 656 240 653 q 236 650 236 654 q 239 642 239 644 q 235 635 240 638 l 233 635 l 232 636 q 229 639 229 636 q 228 642 229 642 q 226 649 226 646 q 225 656 226 653 q 224 660 224 658 q 222 663 224 661 q 213 667 217 665 q 207 672 210 669 q 204 674 206 674 q 201 675 203 674 l 201 650 l 219 633 q 219 626 222 629 q 211 626 215 622 l 201 636 l 201 626 q 196 621 201 621 q 192 626 192 621 l 192 631 l 192 636 l 188 632 q 181 626 185 631 q 174 626 178 624 q 174 633 171 629 q 181 639 175 633 q 186 646 186 644 q 189 648 188 647 q 192 650 190 649 l 192 675 l 183 671 q 176 667 181 668 q 169 663 172 665 l 169 661 q 167 647 167 653 q 164 639 164 642 q 157 635 163 635 l 154 638 q 154 642 154 642 l 154 644 q 157 656 157 653 q 151 653 154 653 l 149 650 q 142 653 144 647 q 142 657 142 657 q 143 660 143 658 q 145 660 144 660 q 147 661 146 661 q 153 664 150 664 q 147 665 150 665 q 139 668 142 668 q 135 675 135 671 q 138 678 135 675 q 142 678 142 678 l 144 678 q 151 676 147 676 q 158 674 156 675 q 162 673 161 674 q 165 672 163 672 q 168 674 167 672 z "},"f":{"ha":197,"x_min":-92,"x_max":300,"o":"m 192 838 q 274 810 247 838 q 300 721 300 782 q 288 702 300 710 q 264 694 275 694 q 249 706 249 694 q 243 760 249 733 q 218 786 238 786 q 197 772 210 786 q 172 726 185 758 q 147 642 160 694 q 126 515 135 590 q 180 519 153 517 q 235 525 207 521 l 238 525 q 249 519 246 525 q 252 508 253 514 q 247 496 251 501 q 233 489 242 490 q 178 483 206 486 q 122 476 150 479 q 110 190 110 363 q 114 69 110 131 q 123 -42 118 8 q 132 -126 128 -93 q 136 -162 136 -158 q 124 -182 138 -175 q 93 -189 111 -189 q 56 -180 74 -189 q 35 -151 38 -171 q 18 -41 25 -89 q 7 53 11 7 q 1 147 3 99 q -1 256 -1 194 q 0 364 -1 310 q 6 469 1 418 q -27 468 -12 468 q -53 468 -42 468 l -68 468 q -87 475 -82 468 q -90 490 -92 482 q -83 506 -89 499 q -68 513 -76 513 q -40 512 -61 513 q 10 511 -19 511 q 31 640 18 581 q 67 743 44 699 q 119 813 89 788 q 192 838 150 838 m 188 804 q 190 808 190 804 q 186 811 188 811 q 92 667 131 797 q 54 282 53 536 q 38 261 38 278 q 56 242 38 244 q 81 -131 57 81 q 83 -135 81 -135 q 88 -131 88 -135 q 71 64 76 -29 q 63 242 65 157 q 79 261 79 244 q 63 282 79 278 q 70 488 63 394 q 94 649 78 581 q 133 756 110 717 q 188 804 157 796 z "},"g":{"ha":504,"x_min":-61,"x_max":539,"o":"m 93 -144 q 96 -146 94 -146 q 97 -153 99 -149 q 94 -156 94 -156 q 90 -154 92 -156 q 88 -153 89 -154 q 86 -153 88 -153 q 82 -150 83 -150 q 83 -156 82 -153 q 84 -160 83 -158 q 85 -164 85 -161 q 82 -169 88 -169 q 78 -169 82 -169 q 75 -167 75 -169 l 75 -164 q 73 -156 74 -160 q 71 -149 72 -153 q 69 -143 69 -147 q 67 -142 67 -142 q 53 -133 61 -139 q 47 -131 50 -131 l 47 -154 l 58 -165 l 65 -172 q 65 -179 69 -176 q 58 -179 61 -183 l 47 -169 l 47 -179 q 43 -185 47 -185 q 38 -179 38 -185 l 38 -175 l 38 -169 l 33 -174 q 26 -179 29 -178 q 19 -179 24 -183 q 19 -172 17 -176 l 22 -169 l 32 -160 q 38 -154 36 -158 l 38 -131 l 29 -135 l 17 -143 q 14 -151 14 -147 q 13 -158 14 -154 q 11 -162 11 -161 q 10 -167 11 -164 q 3 -169 7 -172 q 0 -168 1 -168 l 0 -164 l 0 -161 q 4 -150 3 -153 q 1 -151 1 -151 q -3 -153 0 -151 q -6 -154 -3 -154 q -12 -153 -11 -157 l -12 -149 q -10 -146 -12 -149 q -7 -143 -7 -143 q -1 -140 -4 -143 q -7 -139 -6 -140 q -11 -138 -10 -139 q -15 -137 -12 -137 q -19 -131 -19 -136 q -17 -128 -19 -128 q -12 -128 -15 -126 l -10 -128 q -3 -130 -7 -129 q 4 -132 1 -131 l 11 -133 q 14 -132 13 -133 q 28 -125 22 -126 l 32 -121 l 24 -117 q 11 -110 15 -111 q -4 -114 0 -112 q -8 -115 -7 -114 q -12 -115 -10 -115 q -19 -112 -17 -118 q -18 -108 -19 -110 q -15 -106 -18 -106 q -12 -104 -14 -106 q -1 -101 -10 -104 q -10 -97 -4 -101 q -12 -90 -17 -94 l -10 -87 l -6 -87 q -3 -89 -4 -89 q -1 -90 -3 -89 q 4 -93 -1 -90 q 3 -87 3 -92 q 0 -79 0 -82 q 3 -72 -1 -76 q 7 -74 7 -72 q 10 -76 10 -74 q 11 -79 10 -79 q 13 -87 13 -83 q 14 -93 13 -90 q 15 -97 15 -96 q 17 -100 15 -99 l 18 -101 q 32 -110 24 -104 q 35 -111 33 -111 q 38 -112 36 -111 l 38 -87 l 36 -87 q 31 -82 33 -85 q 26 -76 29 -79 l 19 -71 q 19 -64 17 -67 q 26 -64 24 -60 q 29 -65 29 -65 l 38 -74 l 38 -64 q 43 -58 38 -58 q 47 -64 47 -58 l 47 -68 l 47 -74 l 51 -69 q 55 -67 54 -68 q 58 -64 56 -65 q 65 -64 61 -60 q 65 -71 68 -67 q 64 -72 64 -71 q 63 -72 64 -72 q 58 -78 60 -75 q 53 -83 56 -81 q 50 -85 51 -85 q 47 -87 49 -86 l 47 -112 q 56 -107 53 -110 q 62 -104 58 -106 q 69 -100 65 -103 q 72 -92 71 -96 q 72 -85 72 -89 q 75 -76 75 -79 q 82 -72 78 -72 l 85 -75 l 85 -79 l 85 -82 q 82 -93 82 -90 q 88 -89 85 -90 q 90 -87 89 -89 q 97 -90 94 -85 l 97 -94 q 96 -97 96 -96 q 93 -98 93 -97 q 92 -99 93 -99 q 86 -101 86 -101 q 92 -103 89 -103 q 100 -106 97 -106 q 104 -112 104 -108 l 101 -115 l 97 -115 l 94 -115 q 88 -113 92 -114 q 81 -111 83 -112 q 74 -110 78 -110 q 71 -111 72 -110 q 65 -115 68 -114 q 58 -118 61 -115 q 53 -121 53 -121 q 61 -126 56 -124 q 67 -130 64 -129 q 74 -133 71 -131 q 89 -129 85 -131 q 93 -128 92 -129 q 97 -128 94 -128 q 104 -131 101 -125 l 104 -135 q 102 -136 103 -136 q 100 -137 101 -136 l 97 -137 q 86 -140 89 -140 q 90 -142 89 -142 q 93 -144 90 -143 m 7 743 q 4 751 1 744 q 13 753 7 756 l 19 749 l 22 757 q 29 761 22 761 q 33 754 33 760 l 31 743 l 40 738 l 43 751 q 46 756 43 753 l 50 756 l 64 751 l 64 761 l 53 765 q 49 772 49 768 q 57 776 51 779 l 64 775 l 64 783 q 71 789 64 789 q 76 783 76 789 l 76 774 l 83 776 q 92 772 90 776 q 88 765 92 768 l 76 761 l 76 751 l 90 756 l 94 756 q 97 751 97 753 l 101 738 l 110 742 l 107 754 q 113 761 107 760 q 119 757 118 761 l 121 749 l 128 753 q 136 751 133 756 q 135 743 139 744 l 126 738 l 132 732 q 133 724 136 729 q 131 723 132 724 q 128 722 131 722 q 125 724 125 724 l 115 732 l 107 726 l 117 717 q 119 713 119 717 q 117 708 119 711 l 107 699 l 115 693 l 125 701 q 129 704 128 704 q 133 701 131 704 q 132 693 136 696 l 126 688 l 133 683 q 136 675 139 682 q 131 672 135 672 l 128 672 l 121 676 l 118 669 q 113 664 118 664 q 107 672 107 665 l 110 683 l 100 689 l 97 674 q 94 671 97 671 q 90 669 93 669 l 76 675 l 76 664 l 88 660 q 92 653 92 660 q 83 649 90 649 l 76 651 l 76 643 q 71 636 76 636 q 64 643 64 636 l 64 651 l 57 649 q 49 653 50 649 q 53 660 49 660 l 64 664 l 64 675 l 50 669 q 46 671 47 669 q 43 675 43 671 l 40 689 l 31 683 l 33 672 q 28 664 33 665 q 22 669 22 664 l 19 678 l 13 672 l 10 672 q 4 675 7 672 q 7 683 1 681 l 14 688 l 8 693 q 8 701 3 696 q 13 704 11 704 q 17 701 14 704 l 25 694 l 33 699 l 24 708 q 21 713 21 711 q 24 718 21 715 l 33 726 l 25 732 l 17 724 q 15 723 15 724 q 13 722 14 722 q 7 725 10 722 q 8 733 4 729 l 14 739 l 7 743 m 90 694 l 82 699 q 79 697 81 697 q 76 696 78 697 l 76 686 l 88 683 l 90 694 m 88 717 l 88 713 l 88 710 l 96 706 l 104 713 l 96 721 l 88 717 m 76 729 q 82 726 79 729 l 90 731 l 88 743 l 76 739 l 76 729 m 71 718 q 64 713 64 718 q 71 707 64 707 q 76 713 76 707 q 71 718 76 718 m 64 696 q 58 699 61 696 l 50 694 l 53 683 l 64 686 l 64 696 m 50 731 l 58 726 q 64 729 61 729 l 64 739 l 53 743 l 50 731 m 36 713 l 44 706 l 53 710 l 53 713 l 53 717 l 44 721 l 36 713 m 518 285 q 533 279 526 285 q 535 264 539 274 q 440 85 496 164 q 325 -57 383 6 q 300 -168 314 -115 q 268 -261 286 -221 q 228 -325 250 -301 q 179 -349 206 -349 q 120 -330 143 -349 q 97 -276 97 -311 q 130 -207 97 -242 q 211 -125 163 -172 q 235 40 225 -49 q 254 207 246 128 q 205 135 232 172 q 151 68 178 99 q 99 19 125 38 q 53 0 74 0 q 23 2 42 0 q -15 15 4 4 q -47 51 -33 26 q -61 121 -61 75 q -36 225 -61 179 q 27 303 -11 271 q 111 353 65 336 q 197 369 157 369 q 265 351 240 369 q 267 378 267 367 q 268 394 268 389 q 282 410 268 406 q 314 415 296 415 q 356 409 336 415 q 375 392 375 403 q 373 354 375 389 q 367 265 371 319 q 355 143 363 211 q 336 4 347 75 q 424 123 381 57 q 504 275 468 189 q 518 285 508 285 m 33 168 q 21 186 33 181 l 21 189 q 83 277 40 239 q 183 335 126 315 q 186 340 186 336 q 182 342 186 346 q 78 283 122 322 q 14 192 35 243 q 13 189 14 189 q -2 183 4 189 q -8 168 -8 176 q 3 149 -8 156 q 4 94 0 121 q 22 42 8 67 q 24 41 24 42 q 28 40 25 40 q 29 46 32 44 q 10 147 3 92 q 26 152 19 147 q 33 168 33 157 m 76 57 q 114 78 92 57 q 161 131 136 99 q 211 201 186 163 q 257 274 236 239 q 246 306 254 293 q 222 319 238 319 q 178 299 206 319 q 126 246 151 279 q 81 169 100 213 q 61 82 61 126 q 76 57 61 57 m 153 -293 q 177 -263 165 -293 q 200 -185 189 -233 q 152 -236 169 -214 q 135 -275 135 -258 q 138 -287 135 -282 q 153 -293 142 -293 m 317 125 q 303 144 317 140 q 316 301 313 236 q 321 372 319 365 q 317 376 321 376 q 313 374 313 376 q 309 306 313 371 q 296 146 306 240 q 281 140 288 146 q 275 125 275 135 q 292 106 275 110 q 276 -12 285 47 q 256 -126 267 -72 q 230 -224 244 -181 q 197 -292 215 -267 q 197 -296 196 -294 q 200 -297 199 -297 q 201 -297 201 -297 q 203 -296 201 -296 q 236 -226 221 -271 q 263 -128 251 -182 q 284 -13 275 -74 q 299 106 293 47 q 317 125 317 108 z "},"h":{"ha":482,"x_min":-3,"x_max":514,"o":"m 496 285 q 508 279 503 285 q 511 264 514 274 q 433 79 472 161 q 399 11 417 44 q 364 -48 382 -22 q 329 -90 346 -74 q 297 -106 313 -106 q 219 -43 249 -106 q 200 156 189 19 q 213 242 204 196 q 231 329 222 289 q 244 397 239 369 q 244 424 249 424 q 210 394 232 425 q 166 310 189 363 q 123 192 143 258 q 92 57 103 126 q 92 33 92 42 q 94 18 93 25 q 87 1 96 7 q 65 -4 78 -4 q 42 2 54 -4 q 26 24 31 8 q 8 125 15 63 q -1 261 1 188 q -1 413 -3 335 q 4 559 0 490 q 15 681 8 628 q 28 760 21 735 q 53 778 35 775 q 88 782 72 782 q 131 768 118 779 q 143 743 144 757 q 141 719 143 739 q 135 669 139 699 q 128 603 132 640 q 121 528 124 567 q 107 362 113 432 q 99 239 101 292 q 135 333 115 288 q 178 413 156 378 q 228 468 201 447 q 285 489 256 489 q 340 458 317 489 q 363 388 363 426 q 356 332 363 365 q 340 255 349 299 q 322 158 331 211 q 307 44 313 106 q 310 -7 304 4 q 326 -18 317 -18 q 347 -6 335 -18 q 371 28 358 7 q 396 75 383 49 q 421 129 408 101 q 482 275 450 193 q 496 285 486 285 m 69 390 q 56 410 69 406 q 68 610 60 521 q 83 740 76 699 q 81 744 83 744 q 76 742 76 747 q 61 611 69 700 q 49 411 53 522 q 34 405 40 411 q 28 390 28 399 q 47 369 28 372 q 45 222 44 297 q 51 74 46 146 q 56 69 51 69 q 58 71 57 69 q 58 74 60 72 q 52 222 53 147 q 54 371 51 297 q 69 390 69 376 m 282 246 q 295 317 289 283 q 302 378 301 351 q 297 424 303 406 q 274 450 290 443 q 269 447 269 450 q 271 443 265 443 q 291 419 286 438 q 294 376 296 401 q 288 317 293 350 q 275 247 282 283 q 274 239 274 243 q 272 231 274 235 q 254 210 254 225 q 265 192 254 199 q 254 117 258 154 q 251 47 250 81 q 260 -15 251 14 q 286 -64 268 -43 q 289 -65 289 -65 q 292 -64 292 -65 q 292 -58 293 -62 q 267 -12 275 -39 q 258 48 260 15 q 262 117 257 81 q 272 189 267 153 q 289 194 282 189 q 296 210 296 199 q 279 229 296 226 q 282 246 282 240 m 240 621 q 239 626 238 625 q 244 628 242 629 l 249 625 l 250 629 q 254 632 250 635 q 257 628 257 632 l 256 621 l 260 618 l 263 626 q 264 629 263 628 l 267 629 l 275 626 l 275 633 l 268 635 q 265 639 265 638 q 271 642 267 642 l 275 640 l 275 646 q 278 649 275 649 q 282 646 282 649 l 282 640 l 286 642 q 292 639 290 642 q 289 635 292 635 l 282 632 l 282 626 l 290 629 l 293 629 q 294 626 294 628 l 297 618 l 301 621 l 300 628 q 303 632 300 632 q 307 629 307 635 l 308 625 l 313 628 q 318 626 315 629 q 317 621 321 625 l 313 618 l 315 615 q 315 610 317 614 l 311 610 l 306 615 l 300 613 l 307 606 l 308 604 q 307 601 307 601 l 300 596 l 306 592 l 311 597 q 315 597 314 600 q 315 592 317 593 l 313 589 l 317 586 q 318 581 321 583 q 315 579 315 579 l 313 579 l 308 582 l 307 578 q 304 575 307 575 q 300 579 300 575 l 301 586 l 297 589 l 294 581 q 293 578 294 579 l 290 578 l 282 581 l 282 575 l 289 572 q 290 568 294 572 q 286 565 290 565 l 282 567 l 282 561 q 278 558 282 558 q 275 561 275 558 l 275 567 l 271 565 q 265 568 268 565 q 268 572 265 572 l 275 575 l 275 581 l 267 578 l 264 578 q 263 581 263 579 l 260 589 l 256 586 l 257 579 q 254 575 257 575 q 250 578 250 575 l 249 582 l 244 579 l 242 579 q 239 581 240 579 q 240 586 239 585 l 244 589 l 242 592 q 242 597 239 594 q 246 597 244 600 l 251 592 l 257 596 l 250 601 q 249 604 249 603 q 250 607 250 606 l 257 613 l 251 615 l 246 610 q 242 611 242 610 q 242 615 240 614 l 244 618 l 240 621 m 290 593 l 286 596 q 284 594 285 594 q 282 593 283 594 l 282 588 l 289 586 l 290 593 m 289 606 l 289 601 l 293 599 l 299 604 l 293 608 l 289 606 m 282 614 q 285 611 285 611 l 290 614 l 289 621 l 282 619 l 282 614 m 278 607 q 275 604 275 607 q 278 600 275 600 q 282 604 282 600 q 278 607 282 607 m 275 593 q 273 594 274 594 q 271 596 272 594 l 267 593 l 268 586 l 275 588 l 275 593 m 267 614 l 271 611 q 273 613 272 613 q 275 614 274 613 l 275 619 l 268 621 l 267 614 m 258 604 l 264 599 l 268 601 l 268 606 l 264 608 l 258 604 m 135 -97 q 130 -101 132 -100 q 125 -104 128 -101 q 123 -105 124 -104 q 121 -106 122 -106 q 129 -111 122 -107 q 138 -115 136 -115 q 147 -112 142 -114 q 156 -111 151 -111 q 161 -114 158 -110 q 160 -117 161 -115 q 156 -119 156 -119 q 151 -120 153 -119 q 147 -121 150 -121 q 151 -124 150 -124 q 154 -125 153 -125 q 156 -131 156 -126 q 153 -132 154 -132 q 150 -132 150 -132 q 148 -131 149 -132 q 146 -131 147 -131 q 143 -128 146 -131 q 144 -132 143 -131 q 145 -135 144 -135 q 146 -139 146 -136 q 143 -144 146 -142 q 140 -143 140 -144 q 139 -142 139 -143 q 138 -142 139 -142 l 138 -139 q 135 -128 135 -131 l 133 -122 q 131 -121 132 -122 q 126 -118 128 -119 q 121 -115 124 -117 q 119 -114 119 -114 q 117 -112 118 -114 l 117 -132 l 125 -140 q 131 -146 126 -144 q 131 -151 133 -149 q 125 -151 128 -154 q 124 -151 124 -151 q 122 -150 124 -150 l 117 -143 l 117 -151 q 113 -156 117 -156 q 108 -151 108 -156 l 108 -147 l 108 -143 q 106 -146 106 -146 q 103 -149 104 -149 q 100 -151 101 -150 q 94 -151 97 -154 q 94 -146 92 -149 l 96 -144 l 104 -136 l 108 -132 l 108 -112 q 105 -115 106 -114 q 101 -117 104 -115 q 97 -119 99 -118 q 92 -122 94 -121 q 89 -135 89 -131 q 88 -137 88 -136 q 86 -142 88 -139 q 82 -144 86 -144 q 79 -142 82 -144 l 79 -139 l 79 -136 q 81 -132 81 -133 q 82 -128 81 -131 q 78 -131 79 -131 q 75 -132 76 -132 q 69 -131 74 -135 l 69 -128 q 71 -125 69 -125 q 74 -124 74 -124 q 76 -122 75 -122 q 78 -121 76 -122 q 74 -119 75 -121 q 67 -118 69 -119 q 64 -114 64 -118 q 65 -111 65 -111 q 69 -111 68 -110 l 72 -111 q 77 -112 75 -112 q 82 -114 79 -112 q 85 -115 85 -114 q 88 -115 86 -115 q 90 -114 89 -115 q 95 -111 93 -112 q 100 -108 97 -110 q 102 -107 101 -107 q 104 -106 103 -107 q 97 -101 103 -104 q 88 -96 92 -99 q 76 -100 79 -99 q 72 -101 74 -100 q 69 -101 71 -101 q 64 -99 67 -101 l 64 -96 l 67 -93 l 69 -93 q 74 -92 72 -92 q 78 -90 75 -92 q 74 -87 76 -90 q 71 -86 72 -87 q 69 -81 67 -86 q 72 -79 71 -79 l 75 -79 q 78 -82 78 -82 q 80 -83 79 -82 q 82 -83 81 -83 q 81 -81 82 -82 q 81 -79 81 -81 q 80 -76 81 -78 q 79 -72 79 -75 q 82 -68 75 -68 l 85 -68 q 86 -71 86 -68 q 88 -74 88 -71 q 89 -79 89 -76 q 90 -85 89 -82 q 91 -87 90 -86 q 92 -89 92 -87 q 94 -90 93 -90 q 99 -94 97 -93 q 104 -97 101 -94 q 106 -98 106 -97 q 108 -99 107 -99 l 108 -79 l 100 -71 q 97 -69 99 -69 q 94 -67 96 -68 q 94 -60 93 -64 q 100 -60 97 -57 l 108 -68 l 108 -61 q 113 -57 108 -57 q 117 -61 117 -57 l 117 -64 l 117 -68 q 119 -65 117 -68 l 125 -60 q 131 -60 128 -57 q 131 -67 132 -64 l 117 -79 l 117 -99 q 124 -94 118 -97 q 133 -89 129 -92 q 136 -81 135 -86 q 138 -71 138 -75 q 143 -68 140 -67 q 144 -69 144 -68 q 146 -69 144 -69 l 146 -72 q 144 -75 146 -75 q 144 -79 144 -78 q 143 -83 143 -81 q 147 -81 144 -83 q 150 -79 149 -81 q 156 -81 154 -79 l 156 -85 q 152 -87 153 -87 q 150 -89 151 -87 q 147 -90 149 -90 q 153 -92 149 -92 q 158 -93 157 -93 q 161 -99 161 -96 q 158 -101 161 -99 l 156 -101 q 153 -100 154 -101 q 142 -97 150 -100 q 138 -96 139 -97 q 135 -97 136 -97 z "},"i":{"ha":246,"x_min":0,"x_max":278,"o":"m 86 476 q 56 484 68 476 q 38 503 44 492 q 28 526 31 514 q 25 547 25 539 q 39 580 25 564 q 89 596 53 596 q 140 582 125 596 q 154 547 154 568 q 150 527 154 539 q 138 503 146 515 q 116 484 129 492 q 86 476 103 476 m 89 558 q 74 552 79 558 q 68 538 68 546 q 89 515 68 515 q 103 522 97 515 q 110 538 110 528 q 103 552 110 546 q 89 558 97 558 m 276 -122 q 275 -128 276 -126 l 269 -131 l 274 -133 q 274 -139 276 -136 q 271 -140 272 -140 l 269 -139 l 264 -133 l 258 -137 l 265 -143 l 265 -146 l 265 -149 l 258 -154 l 264 -157 l 269 -151 q 274 -153 272 -151 q 274 -157 276 -156 l 269 -161 l 275 -162 q 276 -168 276 -164 q 271 -169 275 -169 l 267 -167 l 265 -171 q 263 -174 265 -174 q 258 -169 258 -174 l 260 -162 l 254 -160 l 253 -168 q 252 -169 253 -169 q 251 -171 251 -169 l 249 -171 l 240 -168 l 240 -175 l 247 -176 q 249 -181 250 -179 q 244 -183 249 -183 l 240 -182 l 240 -187 q 236 -190 240 -190 q 233 -187 233 -190 l 233 -182 l 228 -183 q 224 -181 226 -183 q 226 -176 224 -179 l 233 -175 l 233 -168 l 225 -171 l 222 -171 q 221 -168 221 -169 l 218 -160 l 213 -162 l 214 -169 q 211 -174 217 -174 q 207 -171 210 -174 l 207 -167 l 201 -169 q 197 -168 197 -169 q 199 -162 196 -167 l 203 -160 l 200 -157 q 200 -153 199 -156 q 204 -151 200 -147 l 210 -157 l 215 -154 l 208 -147 l 207 -146 q 208 -143 208 -143 l 215 -137 l 210 -133 l 204 -139 l 201 -139 l 199 -139 q 200 -133 199 -135 l 203 -131 l 199 -128 q 197 -122 196 -125 q 201 -121 199 -121 l 207 -124 l 207 -119 q 211 -117 208 -117 q 214 -121 218 -117 l 213 -128 l 218 -131 l 221 -122 q 222 -119 221 -121 l 225 -119 l 233 -122 l 233 -117 l 226 -114 q 224 -110 224 -114 q 229 -107 225 -107 l 233 -108 l 233 -103 q 236 -100 233 -100 q 240 -103 240 -100 l 240 -108 l 244 -107 q 249 -110 249 -107 q 247 -114 253 -114 l 240 -117 l 240 -122 l 249 -119 l 251 -119 q 253 -122 253 -121 l 254 -131 l 260 -128 l 258 -121 q 261 -117 258 -117 q 265 -119 265 -117 l 267 -124 l 271 -121 q 276 -122 275 -121 m 225 -135 l 229 -137 q 231 -136 231 -136 q 233 -135 232 -136 l 233 -129 l 226 -128 l 225 -135 m 226 -147 l 226 -143 l 221 -140 l 217 -146 l 221 -150 l 226 -147 m 233 -156 q 231 -155 232 -156 q 229 -154 231 -154 l 225 -156 l 226 -162 l 233 -161 l 233 -156 m 236 -149 q 240 -146 240 -149 q 236 -142 240 -142 q 233 -146 233 -142 q 236 -149 233 -149 m 240 -135 q 243 -137 243 -137 l 249 -135 l 247 -128 l 240 -129 l 240 -135 m 249 -156 l 243 -153 q 240 -156 243 -156 l 240 -161 l 247 -162 l 249 -156 m 257 -146 l 251 -140 l 247 -143 l 247 -147 l 251 -150 l 257 -146 m 258 285 q 272 279 265 285 q 275 264 278 274 q 221 132 249 190 q 198 83 210 107 q 174 41 186 60 q 149 11 161 22 q 125 0 136 0 q 66 19 90 0 q 27 74 42 39 q 6 156 13 108 q 0 258 0 203 q 5 346 0 311 q 13 389 10 381 q 32 408 15 401 q 64 414 49 414 q 100 406 85 414 q 115 392 115 399 q 113 370 115 388 q 108 327 111 353 q 103 270 106 301 q 101 207 101 239 q 106 138 101 164 q 116 97 110 111 q 129 76 122 82 q 140 71 136 71 q 171 103 153 71 q 206 174 189 135 q 246 275 225 218 q 258 285 247 285 m 113 38 q 111 43 115 40 q 75 112 88 61 q 58 221 63 163 q 74 240 74 226 q 57 261 74 257 q 58 328 56 297 q 63 379 60 358 q 60 383 63 383 q 56 381 56 383 q 51 329 53 361 q 50 261 49 297 q 32 240 32 258 q 51 219 32 222 q 68 109 56 161 q 107 38 81 57 q 110 36 108 36 q 113 38 111 36 z "},"j":{"ha":283,"x_min":-124,"x_max":318,"o":"m 111 478 q 81 485 93 478 q 63 504 69 493 q 53 528 56 515 q 50 549 50 540 q 64 581 50 565 q 114 597 78 597 q 165 583 150 597 q 181 549 181 569 q 176 528 181 540 q 164 505 172 517 q 142 485 156 493 q 111 478 129 478 m 118 558 q 103 552 108 558 q 97 538 97 546 q 103 523 97 529 q 118 517 108 517 q 133 523 126 517 q 139 538 139 529 q 133 552 139 546 q 118 558 126 558 m -40 682 q -42 686 -42 682 q -36 688 -39 690 l -32 685 l -31 689 q -26 692 -31 694 q -24 688 -24 692 l -25 681 l -19 678 l -18 686 q -17 689 -18 689 l -14 689 l -6 686 l -6 693 l -12 694 q -14 700 -15 697 q -10 701 -14 706 l -6 700 l -6 706 q -1 708 -6 708 q 1 706 1 708 l 1 700 l 6 701 q 11 699 8 703 q 8 694 11 697 l 1 693 l 1 686 l 10 689 l 13 689 q 14 686 14 689 l 17 678 l 22 681 l 21 688 q 24 692 19 692 q 28 689 25 693 l 28 685 l 33 688 q 38 686 35 689 q 36 682 42 682 l 32 679 l 35 675 q 36 671 38 672 q 33 669 33 669 q 31 671 31 669 l 25 675 l 19 672 l 26 667 q 28 664 28 664 q 26 661 26 661 l 19 656 l 25 653 l 31 657 q 35 657 35 661 q 35 651 38 654 l 32 649 l 36 646 q 38 640 39 643 q 36 640 36 640 q 35 639 36 639 l 32 639 l 28 642 l 26 638 q 24 635 26 635 q 19 639 19 635 l 21 646 l 17 649 l 14 640 q 10 638 13 638 l 1 640 l 1 635 l 8 632 q 11 628 11 632 q 6 625 8 625 l 1 626 l 1 622 q -1 618 1 618 q -6 622 -6 618 l -6 626 l -10 625 q -14 628 -14 625 q -12 632 -18 632 l -6 635 l -6 640 l -14 638 q -18 640 -15 638 l -19 649 l -25 646 l -24 639 q -26 635 -24 635 q -31 638 -31 635 l -32 642 l -36 639 q -40 640 -39 639 q -42 640 -40 640 q -40 646 -42 644 l -35 649 l -39 651 q -39 657 -42 654 q -35 657 -37 660 l -29 653 l -24 656 l -31 661 l -31 664 l -31 667 l -24 672 l -29 675 l -35 671 q -36 669 -36 669 q -39 671 -39 669 q -39 675 -42 674 l -35 679 l -40 682 m 10 653 l 6 656 q 3 654 4 654 q 1 653 3 654 l 1 649 l 8 646 l 10 653 m 8 665 l 8 661 l 14 658 l 18 664 l 14 668 l 8 665 m 1 674 q 3 673 3 674 q 6 672 4 672 l 10 675 l 8 681 l 1 679 l 1 674 m -1 667 q -6 664 -6 667 q -1 660 -6 660 q 1 664 1 660 q -1 667 1 667 m -6 653 q -8 656 -8 656 l -14 653 l -12 646 l -6 647 l -6 653 m -14 675 l -8 672 q -6 674 -7 674 l -6 679 l -12 682 l -14 675 m -22 664 l -17 658 l -12 661 l -12 665 l -17 668 l -22 664 m 299 285 q 312 279 306 285 q 314 264 318 274 q 219 85 276 164 q 104 -57 163 6 q 78 -168 93 -115 q 46 -261 64 -221 q 6 -325 28 -301 q -43 -349 -17 -349 q -101 -330 -79 -349 q -124 -276 -124 -311 q -92 -207 -124 -242 q -11 -125 -60 -172 q 6 -20 -3 -76 q 20 92 14 36 q 31 199 26 147 q 40 293 36 251 l 28 264 q 14 256 24 256 q 1 261 7 256 q -1 275 -4 267 l 46 399 q 64 412 51 408 q 92 415 76 415 q 134 409 114 415 q 154 392 154 403 q 152 354 154 389 q 146 265 150 319 q 134 143 142 211 q 114 4 126 75 q 203 123 160 57 q 283 275 247 189 q 299 285 288 285 m -69 -293 q -45 -263 -57 -293 q -22 -185 -33 -233 q -69 -236 -51 -214 q -86 -275 -86 -258 q -83 -287 -86 -282 q -69 -293 -81 -293 m 79 115 q 96 122 90 115 q 101 136 101 128 q 83 157 101 154 q 94 285 90 228 q 100 365 99 342 q 96 369 100 369 q 92 367 92 369 q 87 286 90 343 q 76 156 83 229 q 60 136 60 153 q 72 118 60 124 q 56 -12 65 54 q 34 -136 46 -79 q 8 -235 22 -193 q -25 -290 -7 -276 q -25 -296 -28 -293 l -19 -296 q 14 -239 -1 -281 q 42 -140 29 -197 q 63 -15 54 -82 q 79 115 72 51 z "},"k":{"ha":369,"x_min":-1,"x_max":339,"o":"m 190 513 q 189 518 188 515 q 194 519 190 519 l 199 517 l 200 521 q 204 524 200 524 q 207 519 207 524 l 206 513 l 210 510 l 213 518 q 214 521 213 519 l 217 521 l 225 518 l 225 524 l 218 526 q 215 531 215 526 q 221 533 218 533 l 225 532 l 225 538 q 228 540 225 540 q 232 538 232 540 l 232 532 l 236 533 q 242 531 239 533 q 239 526 242 526 l 232 524 l 232 518 l 240 521 q 244 518 242 521 l 247 510 l 251 513 l 250 519 q 253 524 250 524 q 257 521 257 524 l 258 517 l 263 519 q 268 518 267 519 q 267 513 269 515 l 263 510 l 265 507 q 265 501 268 504 q 263 500 264 500 l 261 501 l 256 507 l 250 503 l 257 497 q 258 494 258 496 q 257 492 257 493 l 250 486 l 256 483 l 261 488 q 265 488 264 490 q 265 483 268 486 l 263 479 l 267 476 q 268 472 272 476 q 263 471 267 471 l 258 474 l 257 469 q 254 467 257 467 q 250 471 250 467 l 251 478 l 246 481 l 244 472 q 243 469 244 469 l 240 469 l 232 472 l 232 465 l 239 464 q 240 460 242 461 q 236 457 240 457 l 232 458 l 232 453 q 228 450 232 450 q 225 453 225 450 l 225 458 l 221 457 q 215 460 218 457 q 218 464 215 461 l 225 465 l 225 472 l 217 469 l 214 469 q 213 472 213 471 l 210 481 l 206 478 l 207 471 q 204 467 207 467 q 200 469 200 467 l 199 474 l 194 471 l 192 471 q 189 472 190 471 q 190 478 188 475 l 194 479 l 192 483 q 192 488 190 486 q 196 489 194 490 l 201 483 l 207 486 l 200 492 q 199 494 199 494 q 200 497 200 497 l 207 503 l 201 507 l 196 501 l 192 501 q 192 507 189 504 l 194 510 l 190 513 m 240 485 l 235 488 q 232 485 235 485 l 232 479 l 239 478 l 240 485 m 239 497 l 239 493 l 243 490 l 249 494 l 243 500 l 239 497 m 232 506 q 235 503 235 503 l 240 506 l 239 513 l 232 511 l 232 506 m 228 499 q 225 494 225 499 q 228 492 225 492 q 232 494 232 492 q 228 499 232 499 m 225 485 q 223 485 224 485 q 221 486 222 486 l 217 485 l 218 478 l 225 479 l 225 485 m 217 506 l 221 503 q 223 504 222 504 q 225 506 224 504 l 225 511 l 218 513 l 217 506 m 208 494 l 214 490 l 218 493 l 218 497 l 214 500 l 208 494 m 242 -85 q 240 -93 244 -90 l 232 -97 l 238 -103 q 239 -111 242 -107 q 233 -114 236 -114 q 231 -111 231 -114 l 221 -104 l 213 -108 l 222 -118 q 225 -122 225 -121 q 222 -128 225 -125 l 213 -137 l 221 -142 l 231 -135 q 235 -133 232 -133 q 239 -135 238 -133 q 238 -143 242 -139 l 232 -149 l 239 -153 q 242 -161 244 -154 q 236 -164 239 -164 q 233 -162 235 -164 l 226 -158 l 224 -167 q 218 -171 224 -171 q 213 -164 213 -171 l 215 -153 l 206 -147 l 203 -161 q 200 -165 203 -162 q 199 -166 199 -165 q 197 -167 199 -167 l 196 -165 l 182 -161 l 182 -172 l 193 -175 q 197 -183 197 -178 q 190 -187 196 -187 l 189 -186 l 182 -185 l 182 -193 q 176 -199 182 -199 q 169 -193 169 -199 l 169 -185 l 163 -186 q 161 -187 161 -186 q 160 -187 161 -187 q 154 -183 158 -187 q 158 -175 154 -178 l 169 -171 l 169 -161 l 156 -165 q 151 -165 156 -165 q 149 -161 149 -162 l 146 -147 l 136 -153 l 139 -164 q 135 -171 139 -171 q 128 -167 128 -171 l 125 -158 l 118 -162 q 115 -164 115 -164 q 110 -161 113 -164 q 113 -153 107 -156 l 119 -149 l 114 -143 q 114 -135 108 -137 q 122 -133 117 -131 l 131 -142 l 139 -136 l 129 -126 q 126 -122 126 -126 q 129 -118 126 -121 l 139 -108 l 131 -103 l 122 -111 q 118 -112 121 -112 q 113 -111 114 -112 q 114 -103 110 -107 l 119 -97 l 113 -93 q 110 -85 107 -92 q 118 -82 113 -79 l 125 -87 l 128 -79 q 135 -75 128 -72 q 139 -82 139 -75 l 136 -93 l 146 -99 l 149 -85 q 151 -81 149 -81 q 156 -79 153 -79 l 169 -85 l 169 -74 l 158 -71 q 154 -62 154 -69 q 163 -58 157 -58 l 169 -61 l 169 -53 q 176 -46 169 -46 q 182 -53 182 -46 l 182 -61 l 189 -58 q 197 -62 196 -58 q 193 -71 197 -69 l 182 -74 l 182 -85 l 196 -81 q 200 -81 199 -79 q 203 -85 203 -83 l 207 -99 l 215 -93 l 213 -82 q 218 -75 213 -75 q 225 -79 222 -74 l 226 -87 l 233 -82 q 242 -85 239 -79 m 156 -104 l 164 -110 q 167 -107 165 -107 q 169 -106 168 -107 l 169 -97 l 158 -93 l 156 -104 m 158 -126 l 158 -122 l 158 -119 l 150 -115 l 142 -122 l 150 -131 l 158 -126 m 169 -140 q 167 -138 168 -139 q 164 -136 165 -137 l 156 -142 l 158 -153 l 169 -149 l 169 -140 m 176 -129 q 182 -122 182 -129 q 176 -117 182 -117 q 169 -122 169 -117 q 176 -129 169 -129 m 182 -106 q 185 -108 183 -107 q 188 -110 186 -108 l 196 -104 l 193 -93 l 182 -97 l 182 -106 m 196 -142 l 188 -136 q 185 -138 186 -137 q 182 -140 183 -139 l 182 -149 l 193 -153 l 196 -142 m 210 -122 l 201 -115 l 193 -119 l 193 -122 l 193 -126 l 201 -131 l 210 -122 m 339 322 q 324 255 339 288 q 285 195 310 222 q 226 147 260 168 q 153 113 192 125 q 215 46 179 74 q 265 11 250 18 q 271 -4 272 8 q 256 -17 269 -17 q 247 -15 250 -17 q 208 -1 231 -11 q 164 24 186 10 q 122 56 142 39 q 88 89 101 72 q 77 -20 82 25 q 69 -76 72 -65 q 42 -89 64 -89 q 18 -76 22 -89 q 7 16 11 -50 q 1 168 3 82 q -1 350 -1 254 q 3 531 0 446 q 13 679 7 615 q 29 764 19 743 q 42 776 33 771 q 68 781 50 781 q 121 749 114 781 q 124 686 125 732 q 119 575 122 640 q 110 431 115 510 q 100 274 104 353 q 165 376 132 336 q 238 417 197 417 q 289 399 265 411 q 324 369 308 388 q 339 322 339 351 m 63 407 q 78 426 78 413 q 64 446 78 442 q 69 605 67 529 q 75 738 72 681 q 72 742 75 742 q 68 738 68 742 q 63 606 65 682 q 57 447 60 531 q 42 441 49 447 q 36 426 36 435 q 42 413 36 419 q 56 407 47 407 q 51 280 53 343 q 47 162 49 217 q 44 62 46 107 q 43 -12 43 17 q 46 -17 43 -17 q 50 -12 50 -17 q 51 62 50 17 q 55 162 53 107 q 59 280 57 217 q 63 407 61 343 m 103 179 q 158 219 132 194 q 205 269 185 243 q 237 321 225 296 q 249 360 249 346 q 244 369 249 367 q 238 372 240 372 q 215 363 231 372 q 181 330 200 353 q 142 270 163 307 q 103 179 121 233 m 131 143 q 181 171 151 150 q 238 221 211 192 q 281 285 264 250 q 290 358 297 321 q 286 361 288 361 q 282 357 282 361 q 272 286 289 321 q 229 223 256 251 q 174 175 203 194 q 128 150 146 156 q 126 146 125 147 q 131 143 126 143 z "},"l":{"ha":235,"x_min":-4,"x_max":267,"o":"m 249 283 q 261 278 256 283 q 264 263 267 272 q 211 131 238 189 q 188 82 200 106 q 163 40 175 58 q 138 10 150 21 q 114 -1 125 -1 q 58 28 81 -1 q 22 109 36 58 q 2 228 8 160 q -4 372 -4 296 q 0 510 -4 442 q 9 633 4 578 q 19 724 14 688 q 28 765 25 761 q 51 777 35 774 q 81 781 67 781 q 117 774 99 781 q 135 749 135 767 q 131 701 135 740 q 122 605 126 663 q 114 478 118 547 q 110 342 110 410 q 110 251 110 299 q 114 165 111 204 q 121 101 117 126 q 132 76 125 76 q 162 108 144 76 q 196 175 179 139 q 235 274 214 218 q 249 283 239 283 m 94 71 q 96 76 97 74 q 72 152 81 104 q 60 258 64 200 q 58 379 57 315 q 61 503 58 443 q 75 509 69 503 q 81 524 81 515 q 64 543 81 540 q 72 660 67 608 q 81 738 78 711 q 78 742 81 742 q 74 738 74 742 q 65 661 69 713 q 57 543 60 610 q 39 524 39 540 q 54 503 39 508 q 51 379 51 443 q 53 257 50 315 q 65 150 57 199 q 89 72 74 101 q 94 71 90 71 m 67 -154 q 67 -157 69 -157 l 63 -160 l 65 -162 q 67 -164 67 -162 q 65 -165 67 -165 q 64 -167 64 -167 q 61 -165 63 -167 l 58 -162 l 54 -165 l 58 -169 q 60 -171 60 -171 q 58 -174 60 -172 l 54 -178 l 58 -179 l 61 -176 q 65 -176 64 -175 q 65 -181 68 -179 l 63 -182 l 67 -185 l 67 -186 q 67 -187 68 -187 q 64 -189 67 -189 l 60 -187 l 60 -190 q 57 -193 57 -193 q 54 -189 54 -193 l 56 -185 l 51 -182 l 50 -189 q 46 -190 47 -190 l 40 -189 l 40 -193 l 44 -194 q 47 -199 47 -197 q 46 -199 46 -199 q 43 -200 46 -200 l 40 -199 l 40 -203 q 38 -206 40 -206 q 35 -203 35 -206 l 35 -199 l 31 -200 q 28 -199 28 -199 q 29 -194 28 -194 l 35 -193 l 35 -189 l 28 -190 q 25 -189 26 -190 l 24 -182 l 19 -185 l 21 -189 q 18 -193 21 -190 q 15 -190 15 -193 l 14 -187 l 11 -189 q 7 -187 8 -189 q 8 -185 7 -185 l 13 -182 l 10 -181 q 10 -176 8 -179 q 13 -176 10 -174 l 17 -179 l 21 -178 l 17 -172 q 15 -171 15 -172 q 17 -169 15 -169 l 21 -164 l 17 -162 l 13 -165 q 11 -167 11 -167 q 8 -165 10 -167 q 10 -162 8 -162 l 13 -160 l 8 -157 q 7 -154 7 -157 q 11 -153 10 -151 l 14 -154 l 15 -151 q 18 -149 15 -149 q 21 -153 21 -151 l 19 -157 l 24 -160 l 25 -154 q 28 -151 25 -153 l 35 -154 l 35 -149 l 29 -147 q 28 -144 28 -147 q 31 -142 28 -142 l 35 -143 l 35 -139 q 38 -136 35 -136 q 40 -139 40 -136 l 40 -143 l 43 -142 q 47 -144 44 -142 q 44 -147 47 -147 l 40 -149 l 40 -154 l 46 -151 l 49 -151 q 49 -153 49 -153 q 50 -154 50 -153 l 51 -160 l 56 -158 l 54 -153 q 56 -149 54 -150 q 60 -151 57 -149 l 60 -154 l 64 -153 q 67 -154 67 -150 m 28 -162 l 32 -165 q 35 -164 33 -164 l 35 -160 l 29 -157 l 28 -162 m 29 -172 l 29 -169 l 26 -167 l 22 -171 l 26 -175 l 29 -172 m 35 -179 q 32 -178 33 -178 l 28 -179 l 29 -185 l 35 -183 l 35 -179 m 38 -174 q 40 -171 40 -174 q 38 -168 40 -168 q 35 -171 35 -168 q 38 -174 35 -174 m 40 -164 q 43 -165 42 -164 l 46 -162 l 44 -157 l 40 -160 l 40 -164 m 46 -179 l 43 -176 q 40 -179 40 -179 l 40 -183 l 44 -185 l 46 -179 m 53 -171 l 49 -167 l 44 -169 q 46 -171 46 -171 q 44 -172 46 -172 l 49 -175 l 53 -171 m 150 -68 q 144 -72 147 -71 q 139 -75 142 -74 q 136 -76 138 -76 q 139 -78 138 -78 q 142 -81 140 -79 l 150 -85 q 155 -83 153 -83 q 160 -82 157 -83 q 163 -81 163 -82 q 165 -81 164 -81 q 169 -83 169 -81 l 169 -86 q 165 -87 167 -87 q 158 -89 163 -89 q 164 -93 161 -92 q 165 -97 169 -93 q 163 -99 163 -99 l 161 -99 q 158 -97 158 -97 q 156 -96 156 -96 l 156 -99 q 157 -104 157 -100 q 156 -108 160 -108 l 153 -108 q 151 -106 151 -108 q 149 -100 150 -103 q 147 -94 149 -97 l 147 -90 l 144 -90 q 136 -85 142 -87 q 133 -82 133 -82 l 133 -99 q 137 -103 136 -101 q 140 -106 138 -104 l 144 -110 q 144 -115 147 -112 q 139 -115 142 -118 l 138 -114 q 133 -108 136 -111 l 133 -115 q 129 -118 133 -118 q 126 -115 126 -118 l 126 -111 l 126 -108 l 119 -115 q 115 -115 118 -118 q 115 -110 113 -112 q 122 -101 121 -104 q 126 -99 124 -101 l 126 -82 q 121 -86 124 -83 l 113 -90 q 110 -98 111 -93 q 108 -106 108 -103 q 104 -108 107 -108 q 101 -107 103 -108 l 101 -104 q 104 -96 104 -96 q 99 -99 104 -96 q 93 -97 97 -101 l 93 -94 q 96 -92 96 -92 q 97 -92 97 -92 q 100 -89 100 -89 l 97 -89 q 92 -87 96 -87 q 89 -83 89 -85 q 90 -82 89 -82 q 90 -81 90 -82 l 93 -81 l 96 -81 q 102 -83 97 -82 q 108 -85 107 -85 q 111 -83 110 -85 l 119 -79 q 122 -76 122 -76 q 117 -74 122 -76 l 108 -68 q 99 -71 103 -71 q 93 -72 97 -72 q 89 -71 92 -74 l 89 -68 q 92 -67 90 -67 q 100 -64 100 -64 l 97 -61 l 94 -61 q 93 -56 93 -60 q 94 -55 94 -56 q 96 -54 94 -54 l 99 -54 q 101 -57 99 -54 q 104 -58 103 -57 q 103 -56 104 -57 q 103 -54 103 -56 q 102 -52 103 -53 q 101 -49 101 -51 q 104 -44 101 -47 q 107 -46 106 -44 q 110 -53 110 -51 q 111 -58 110 -56 l 113 -62 q 122 -69 121 -68 q 124 -70 124 -69 q 126 -71 125 -71 l 126 -54 q 122 -51 124 -51 q 119 -47 121 -50 l 115 -43 q 115 -39 114 -42 q 119 -39 115 -35 l 126 -46 l 126 -39 q 129 -35 126 -37 q 133 -42 133 -35 l 133 -46 l 139 -39 q 144 -39 142 -36 q 144 -43 147 -42 l 136 -51 l 133 -54 l 133 -71 q 139 -68 136 -68 q 143 -65 142 -67 q 147 -62 144 -64 q 150 -53 147 -58 q 151 -47 150 -49 q 156 -44 151 -44 l 157 -46 q 157 -49 157 -49 l 157 -51 q 156 -58 156 -53 l 158 -56 q 161 -54 160 -56 q 165 -56 164 -54 l 165 -58 q 164 -61 165 -60 q 161 -62 163 -61 q 160 -63 160 -62 q 158 -64 160 -64 q 161 -65 161 -64 q 168 -67 165 -65 q 169 -71 174 -67 q 168 -72 169 -72 q 165 -72 168 -75 q 160 -71 163 -71 q 154 -69 157 -71 q 150 -68 151 -69 z "},"m":{"ha":676,"x_min":-4,"x_max":708,"o":"m 378 651 q 383 654 381 653 q 389 657 386 656 q 392 660 389 657 q 389 662 390 661 q 386 664 388 663 q 375 669 381 665 q 364 667 367 667 q 360 665 361 665 q 357 664 360 665 q 351 667 354 664 q 353 669 351 669 q 354 672 354 672 l 357 672 q 361 674 360 674 q 365 675 363 674 q 363 676 364 676 q 361 678 363 676 q 357 685 357 678 q 358 685 358 685 q 360 686 358 686 l 363 686 q 365 685 364 685 q 367 683 365 685 q 369 682 368 682 q 368 686 369 685 q 367 693 368 690 q 369 697 367 697 q 372 697 372 697 q 375 694 375 697 q 378 682 378 683 q 379 676 379 679 q 381 676 381 676 q 382 675 381 675 q 387 672 385 672 q 392 669 389 671 q 396 667 394 667 l 396 686 l 382 700 q 382 706 379 703 q 389 706 385 708 l 390 703 l 396 697 l 396 706 q 400 710 396 706 q 404 706 404 710 l 404 701 l 404 697 q 407 700 407 700 q 410 702 408 701 q 413 706 411 703 q 418 706 415 708 q 418 700 421 703 q 417 699 418 699 q 417 697 417 699 l 408 689 q 404 686 407 689 l 404 667 q 408 669 407 668 q 411 671 408 669 q 416 673 414 672 q 421 676 418 674 q 424 688 424 685 q 425 692 425 690 q 426 694 425 693 q 431 697 426 701 q 433 696 433 697 l 433 693 l 433 690 q 432 686 432 688 q 431 682 432 685 q 433 683 432 683 q 438 686 435 683 q 443 685 440 689 l 443 681 q 439 676 439 676 q 437 676 438 676 q 435 675 436 675 q 437 674 436 675 q 439 674 438 674 q 442 673 442 674 q 446 672 443 672 q 449 667 449 669 q 447 664 447 665 l 443 664 q 431 668 435 667 q 425 669 426 668 q 418 665 421 667 q 413 663 415 664 q 408 660 410 660 q 412 658 411 658 q 415 656 413 657 q 420 653 418 654 q 425 650 422 651 q 436 653 433 653 q 440 654 439 654 q 443 656 442 654 q 449 653 446 656 l 449 649 q 447 648 447 649 q 446 647 447 647 l 443 647 q 435 644 438 644 q 437 643 436 643 q 439 642 438 643 q 440 641 440 642 q 442 640 440 640 q 443 635 446 638 q 440 633 443 633 l 438 633 q 435 635 435 635 q 433 636 433 636 q 431 638 432 636 q 431 635 431 636 q 432 633 432 635 q 433 630 432 631 q 433 626 433 629 q 431 621 435 624 q 428 622 429 621 q 425 625 425 625 q 425 626 425 626 q 424 632 424 629 q 422 638 424 635 q 422 640 422 639 q 421 643 421 642 q 414 647 417 646 q 408 650 411 649 q 406 651 407 651 q 404 653 406 651 l 404 633 l 413 625 l 418 619 q 418 614 421 617 q 413 614 415 611 l 411 615 l 404 622 l 404 614 q 400 610 404 610 q 396 614 396 610 l 396 618 l 396 622 q 393 619 396 619 q 391 617 392 618 q 389 614 390 615 q 382 614 386 613 q 382 619 379 617 l 385 622 q 393 629 388 624 q 396 633 393 631 l 396 653 q 388 647 394 651 q 379 643 381 643 q 378 637 378 640 q 376 631 378 633 q 376 628 376 629 q 375 624 375 626 q 369 621 372 621 l 367 624 l 367 626 q 368 629 367 628 q 369 633 368 632 q 369 638 369 635 q 367 636 368 636 q 365 635 367 636 q 364 634 364 635 q 363 633 364 633 q 357 635 361 632 l 357 638 q 358 640 358 640 q 363 642 360 642 l 365 644 q 361 646 363 644 q 351 653 351 646 q 353 653 353 653 q 354 654 353 654 q 357 656 354 656 q 360 654 358 654 q 365 653 363 653 q 371 651 368 653 l 378 651 m 690 285 q 703 279 697 285 q 706 264 708 274 q 631 93 668 168 q 585 10 610 50 q 538 -54 561 -29 q 496 -79 515 -79 q 437 -42 460 -79 q 414 44 414 -6 q 419 134 414 82 q 432 234 425 186 q 444 316 439 282 q 447 350 449 350 q 434 326 444 350 q 409 265 424 301 q 378 188 394 229 q 347 110 363 146 q 319 49 332 74 q 300 25 307 25 q 281 22 294 22 q 244 28 264 22 q 221 53 224 35 q 217 107 218 68 q 216 187 217 146 q 215 260 215 228 q 213 292 215 292 q 199 265 211 292 q 169 197 186 238 q 136 109 153 156 q 110 24 119 63 q 111 8 110 13 q 101 -2 111 1 q 76 -6 92 -6 q 41 -1 58 -6 q 21 14 24 4 q 5 84 10 43 q -2 169 0 125 q -3 257 -4 213 q 2 338 -1 301 q 9 398 6 374 q 15 426 13 422 q 53 439 26 439 q 101 429 76 439 q 125 404 126 419 q 115 252 118 315 q 108 146 111 189 q 140 218 124 182 q 172 284 157 254 q 197 334 186 314 q 213 358 208 354 q 246 367 221 367 q 279 362 263 367 q 301 349 296 357 q 306 322 304 344 q 308 266 307 299 q 310 196 310 233 q 308 125 310 158 q 345 215 324 163 q 388 316 367 268 q 424 399 408 364 q 444 439 440 435 q 472 446 451 446 q 519 438 494 446 q 550 414 544 429 q 552 370 554 404 q 547 291 550 336 q 538 197 543 246 q 528 105 532 147 q 523 35 525 63 q 525 8 521 8 q 544 20 533 8 q 567 51 556 32 q 592 93 579 69 q 618 142 606 117 q 676 275 646 200 q 690 285 681 285 m 56 221 q 72 240 72 224 q 57 260 72 256 q 61 331 60 297 q 65 390 63 364 q 63 394 65 394 q 58 390 58 394 q 54 331 56 365 q 50 261 53 297 q 31 240 31 258 q 49 221 31 224 q 49 111 47 164 q 58 22 51 58 q 63 19 58 19 q 65 24 69 19 q 56 112 58 60 q 56 221 54 164 m 264 188 q 279 207 279 190 q 263 226 279 224 q 257 292 260 263 q 251 339 254 322 q 247 342 251 342 q 244 338 244 339 q 250 291 247 321 q 254 226 253 261 q 242 219 247 225 q 238 207 238 214 q 257 186 238 189 q 260 97 260 136 q 261 56 261 57 q 265 53 261 53 q 268 56 268 53 q 267 99 268 60 q 264 188 267 139 m 497 192 q 481 213 497 208 q 485 256 483 235 q 489 297 486 278 q 494 347 492 324 q 497 390 496 371 q 494 394 497 394 q 490 390 490 394 q 487 349 489 372 q 482 299 485 325 q 478 256 479 278 q 474 213 476 235 q 456 192 456 210 q 471 172 456 176 q 467 58 465 110 q 482 -17 468 6 q 486 -18 482 -18 q 488 -12 489 -15 q 474 59 475 8 q 478 171 474 110 q 497 192 497 174 m 128 567 q 126 575 121 569 q 133 576 129 581 l 142 572 l 143 581 q 150 585 146 586 q 154 583 153 585 q 154 578 156 581 l 153 567 l 161 561 l 164 575 q 165 577 165 576 q 167 579 165 578 q 172 579 169 582 l 186 575 l 186 586 l 175 589 q 171 597 169 592 q 178 600 174 603 l 186 599 l 186 607 q 192 613 186 613 q 197 607 197 613 l 197 599 l 206 600 q 213 597 213 604 q 210 589 214 592 l 197 585 l 197 575 l 211 579 q 215 580 214 581 q 217 579 215 579 q 219 575 219 576 l 222 561 l 232 567 l 229 578 q 233 585 226 585 q 238 585 236 586 q 240 581 240 583 l 242 572 l 250 576 q 258 575 256 579 q 256 567 261 569 l 249 563 l 254 557 q 254 549 260 551 q 250 546 251 546 q 248 547 249 546 q 246 547 247 547 l 238 556 l 228 551 l 239 542 q 240 536 240 540 q 239 532 240 533 l 228 522 l 238 518 l 246 525 q 250 528 249 528 q 254 525 254 528 q 254 517 258 521 l 249 511 l 256 507 q 257 499 263 504 q 253 496 257 496 l 250 496 l 242 501 l 240 493 q 233 489 240 489 q 229 496 226 489 l 231 507 l 222 513 l 219 499 q 213 493 219 493 l 211 494 l 197 499 l 197 488 l 208 485 q 213 476 215 482 q 206 472 213 472 l 197 475 l 197 467 q 192 460 197 460 q 186 467 186 460 l 186 475 l 178 472 q 171 476 174 472 q 175 485 169 482 l 186 488 l 186 499 l 172 494 q 167 494 169 492 q 165 497 165 496 q 164 499 165 497 l 161 513 l 153 507 l 154 496 q 154 491 156 493 q 150 489 153 489 q 143 493 146 489 l 142 501 l 133 496 l 131 496 q 126 499 126 496 q 128 507 121 504 l 136 511 l 131 517 q 129 525 126 521 q 138 525 133 529 l 147 518 l 156 522 l 144 532 q 143 536 143 533 q 144 542 143 540 l 156 551 l 147 556 l 138 549 q 133 547 136 547 q 129 549 131 547 q 129 557 128 553 l 136 563 l 128 567 m 211 518 l 204 524 q 201 522 201 522 q 197 519 200 521 l 197 511 l 208 507 l 211 518 m 210 540 l 210 536 l 210 533 l 217 529 l 226 536 l 217 544 l 210 540 m 197 553 q 203 550 200 553 l 211 556 l 208 567 l 197 563 l 197 553 m 192 543 q 186 536 186 543 q 192 531 186 531 q 197 536 197 531 q 192 543 197 543 m 186 519 q 181 524 182 522 l 172 518 l 175 507 l 186 511 l 186 519 m 172 556 l 181 550 q 186 554 183 553 l 186 563 l 175 567 l 172 556 m 157 536 l 167 529 l 174 533 l 174 536 l 174 540 l 167 544 l 157 536 z "},"n":{"ha":543,"x_min":-3,"x_max":575,"o":"m 557 286 q 569 281 564 286 q 572 265 575 275 q 497 93 535 169 q 452 10 476 50 q 405 -54 428 -29 q 363 -79 382 -79 q 297 -33 324 -79 q 271 100 271 14 q 276 197 271 143 q 285 297 281 250 q 291 375 289 343 q 288 407 293 407 q 263 386 278 407 q 232 333 249 365 q 197 260 215 300 q 165 183 179 221 q 139 115 150 146 q 124 68 128 83 q 103 47 121 54 q 68 40 86 40 q 38 49 46 40 q 17 85 25 61 q 6 139 10 110 q -1 199 1 168 q -3 258 -3 231 q -2 306 -3 286 q -1 332 -1 326 q 19 350 -1 343 q 51 357 39 357 q 76 355 63 357 q 104 339 90 353 q 113 301 111 332 q 115 233 115 269 q 114 140 115 192 q 175 297 143 228 q 204 355 189 326 q 237 406 219 383 q 272 441 254 428 q 307 454 289 454 q 369 433 340 454 q 397 367 397 411 q 395 320 397 353 q 391 248 393 288 q 387 166 389 208 q 384 89 385 124 q 385 32 383 54 q 392 10 386 10 q 411 22 400 10 q 435 52 422 33 q 460 94 447 71 q 485 143 472 118 q 543 276 513 201 q 557 286 547 286 m 64 197 q 83 218 83 200 q 77 233 83 226 q 63 239 71 239 q 59 269 60 256 q 57 294 58 283 q 56 318 56 307 q 51 322 56 322 q 47 318 47 322 q 49 292 49 315 q 53 238 50 269 q 42 218 42 231 q 57 199 42 203 q 63 141 60 168 q 69 97 65 114 q 74 93 69 93 l 74 94 q 76 99 79 94 q 70 141 74 114 q 64 197 67 168 m 344 204 q 363 225 363 207 q 347 244 363 242 q 350 355 351 307 q 332 418 349 403 q 326 418 329 421 q 326 414 325 417 q 343 351 342 399 q 340 246 344 304 q 321 225 321 243 q 336 206 321 208 l 336 201 q 331 125 333 163 q 329 57 328 88 q 335 4 331 26 q 353 -26 340 -18 l 356 -26 q 358 -25 358 -26 q 358 -21 361 -24 q 342 10 347 -12 q 337 62 338 32 q 339 128 336 92 q 344 201 342 164 l 344 204 m 100 486 q 115 494 107 489 q 121 497 118 497 q 113 503 118 500 q 106 506 110 506 q 100 510 103 507 q 85 506 93 508 q 80 505 82 506 q 75 504 78 504 q 69 507 69 501 l 69 511 q 72 514 72 514 l 76 514 q 88 517 82 517 q 84 519 85 518 q 81 521 83 519 q 79 522 79 521 q 78 522 79 522 q 76 529 74 524 q 79 532 76 532 q 83 531 82 532 q 85 530 85 531 q 88 529 86 529 q 92 526 90 526 q 90 531 92 529 q 90 535 90 533 q 89 540 89 538 q 92 546 86 546 q 96 546 92 546 l 99 543 l 99 539 q 103 525 101 531 q 103 522 103 524 q 104 519 104 521 l 107 517 q 121 510 114 514 q 125 507 124 507 l 125 532 l 108 549 q 108 556 104 551 q 115 556 113 563 q 118 553 115 556 q 125 546 122 550 l 125 556 q 131 561 125 561 q 136 556 136 561 l 136 551 l 136 546 l 140 550 l 146 556 q 153 556 150 560 q 153 549 160 553 q 152 547 153 547 q 151 546 151 547 q 146 541 149 543 q 140 536 143 539 l 136 531 l 136 507 l 144 511 l 157 519 q 161 533 158 525 q 163 538 163 536 q 164 543 163 540 q 169 546 164 549 q 172 545 171 546 q 174 544 172 544 l 174 540 q 172 533 174 539 q 169 526 169 528 q 174 528 172 528 q 178 531 175 528 q 186 529 182 533 l 186 525 q 183 522 186 522 q 181 521 182 521 q 179 519 181 521 q 175 517 178 519 q 181 515 178 517 q 185 515 183 515 q 189 514 186 514 q 193 507 193 513 q 190 504 190 504 q 186 504 189 503 l 183 504 q 169 508 178 506 l 160 508 q 153 504 157 506 q 146 500 149 503 q 142 497 144 500 l 150 493 q 163 486 158 488 q 170 488 167 488 q 178 489 174 489 q 186 492 183 492 q 193 489 189 493 q 192 485 193 485 q 189 482 192 482 q 186 481 186 482 q 175 478 181 481 q 178 476 176 476 q 181 475 179 476 q 183 474 183 474 q 186 467 186 472 q 182 464 183 464 l 178 464 q 175 467 175 467 q 169 469 169 469 q 171 464 171 468 q 172 460 172 461 q 174 456 172 458 q 169 449 174 451 q 165 450 167 449 l 163 456 q 158 469 161 461 q 157 476 158 474 q 154 478 156 478 l 142 486 q 136 489 136 489 l 136 464 l 147 453 l 153 447 q 153 439 157 443 q 146 439 150 436 q 144 442 144 442 l 136 450 l 136 440 q 131 435 136 435 q 125 440 125 435 l 125 444 l 125 450 l 122 446 q 119 443 119 444 q 115 439 118 442 q 108 439 113 436 q 108 447 106 442 q 111 449 110 449 q 121 460 114 453 l 125 464 l 125 489 q 117 483 119 486 q 104 476 113 482 q 102 469 103 472 q 100 461 101 465 q 99 457 100 458 q 99 453 99 456 q 92 449 97 449 q 89 451 89 451 q 89 456 88 454 l 89 458 q 92 469 92 467 q 89 467 90 468 q 86 465 88 467 q 83 464 85 465 q 76 467 79 461 l 75 468 q 75 469 75 468 q 76 472 76 471 q 78 474 76 472 q 80 474 79 474 q 82 475 81 475 q 88 478 85 478 q 82 479 85 479 q 77 481 79 481 q 72 482 75 481 q 69 489 67 485 l 72 492 l 75 492 l 79 492 q 93 488 88 489 q 100 486 94 486 m 211 -11 q 210 -17 214 -14 l 206 -19 l 210 -22 q 210 -28 213 -25 l 207 -28 l 204 -28 l 199 -22 l 194 -25 l 200 -32 q 201 -33 201 -33 q 200 -36 201 -36 l 194 -43 l 199 -46 l 204 -40 q 210 -42 207 -39 q 210 -46 213 -44 l 206 -49 l 210 -51 q 211 -57 214 -54 q 207 -58 211 -58 l 201 -56 l 201 -60 q 197 -62 199 -62 q 194 -58 193 -62 l 196 -51 l 190 -49 l 189 -57 l 186 -60 l 183 -60 l 175 -57 l 175 -62 l 182 -65 q 185 -69 185 -67 q 181 -72 185 -72 l 175 -71 l 175 -76 q 172 -79 175 -79 q 168 -76 168 -79 l 168 -71 l 164 -72 q 160 -69 160 -72 q 163 -65 156 -65 l 168 -62 l 168 -57 l 160 -60 l 157 -60 q 156 -58 157 -58 q 156 -57 156 -58 l 154 -49 l 149 -51 l 150 -58 q 147 -62 150 -62 q 143 -60 143 -62 l 142 -56 l 138 -58 q 133 -57 133 -58 q 135 -51 131 -54 l 139 -49 l 135 -46 q 135 -40 132 -43 q 140 -40 138 -37 l 144 -46 l 150 -42 l 144 -36 q 143 -33 143 -36 q 144 -32 143 -32 l 150 -25 l 144 -22 l 140 -28 l 138 -28 q 135 -26 136 -28 q 135 -22 133 -25 l 139 -19 l 135 -17 q 133 -11 131 -14 q 138 -10 133 -6 l 142 -12 l 143 -8 q 147 -6 143 -6 q 150 -10 150 -6 l 149 -17 l 154 -19 l 156 -11 q 156 -10 156 -10 q 157 -8 157 -10 l 160 -8 l 168 -11 l 168 -6 l 163 -3 q 160 1 158 0 q 164 4 160 4 l 168 3 l 168 8 q 172 11 168 11 q 175 8 175 11 l 175 3 l 181 4 q 185 1 185 4 q 182 -3 185 -3 l 176 -6 l 176 -11 l 183 -8 l 188 -8 q 188 -10 188 -10 q 189 -11 189 -10 l 190 -19 l 196 -17 l 194 -10 q 197 -6 194 -6 q 201 -8 201 -6 l 203 -12 l 207 -10 q 211 -11 211 -10 m 160 -24 l 165 -26 l 168 -24 l 168 -18 l 163 -17 l 160 -24 m 161 -36 l 161 -32 l 157 -29 l 151 -33 l 157 -39 l 161 -36 m 168 -44 l 165 -42 l 161 -44 l 163 -51 l 168 -50 l 168 -44 m 172 -37 q 175 -35 175 -37 q 172 -31 175 -31 q 168 -35 168 -31 q 172 -37 168 -37 m 175 -24 q 177 -25 176 -25 q 179 -26 178 -25 l 183 -24 l 182 -17 l 175 -18 l 175 -24 m 183 -44 l 179 -42 q 176 -44 176 -44 l 176 -50 l 182 -51 l 183 -44 m 193 -33 l 188 -29 l 182 -32 l 183 -33 q 183 -35 183 -35 q 182 -36 182 -35 l 188 -39 l 193 -33 m 283 675 q 282 679 281 678 q 288 681 283 682 l 292 678 l 293 683 q 297 686 293 686 q 299 682 300 683 l 297 675 l 303 671 l 306 679 q 307 682 306 682 q 310 682 308 683 l 318 679 l 318 686 l 311 688 q 308 693 308 690 q 314 694 311 696 l 318 693 l 318 699 q 321 703 318 703 q 325 699 325 703 l 325 693 l 329 694 q 333 693 333 697 q 332 688 335 690 l 325 686 l 325 679 l 333 682 l 336 682 q 338 679 338 682 l 340 671 l 344 675 l 343 682 q 346 686 343 683 q 350 683 350 686 l 351 678 l 356 681 q 361 679 358 682 q 360 675 361 675 l 356 672 l 358 668 q 358 664 363 668 q 356 663 358 663 q 354 664 354 663 l 349 668 l 343 665 l 350 660 l 350 657 l 350 654 l 343 649 l 349 646 l 354 650 q 358 650 357 653 q 358 644 361 647 l 354 642 l 360 639 q 361 635 361 638 q 357 632 358 632 l 356 633 l 351 636 l 350 631 q 347 628 350 628 q 343 632 343 631 l 344 639 l 339 642 l 338 633 q 333 631 335 631 l 325 633 l 325 628 l 332 625 q 333 621 338 625 q 329 618 333 618 l 325 621 l 325 615 q 321 611 325 611 q 318 615 318 611 l 318 621 l 314 619 l 313 618 q 308 621 311 618 q 311 625 308 625 l 318 628 l 318 633 l 310 632 q 307 632 307 629 q 306 633 306 633 l 303 642 l 297 639 l 299 632 q 297 628 300 631 q 293 631 293 628 l 292 636 l 288 633 q 285 632 286 632 q 282 635 285 632 q 283 639 281 636 l 288 642 l 285 644 q 285 650 282 647 q 289 650 285 654 l 294 646 l 300 649 l 293 654 l 293 660 l 300 665 l 294 668 l 289 664 q 286 663 289 663 q 285 664 285 663 q 285 669 282 667 l 288 672 l 283 675 m 333 646 l 328 649 q 325 647 328 647 l 325 642 l 332 639 l 333 646 m 332 658 l 332 656 l 336 653 l 342 657 l 336 661 l 332 658 m 325 667 q 328 665 328 665 l 333 668 l 332 675 l 325 672 l 325 667 m 321 660 q 318 657 318 660 q 321 653 318 653 q 325 657 325 653 q 321 660 325 660 m 318 647 q 314 649 315 647 l 310 646 l 311 639 l 318 642 l 318 647 m 310 668 l 314 665 q 316 666 315 665 q 318 667 317 667 l 318 672 l 311 675 l 310 668 m 301 657 l 306 653 l 311 656 l 311 658 l 306 661 l 301 657 z "},"o":{"ha":263,"x_min":-43,"x_max":261,"o":"m 171 635 q 177 638 174 636 q 185 642 181 639 q 189 644 188 644 q 185 647 186 646 q 181 650 183 649 q 174 653 178 653 q 168 657 171 654 q 153 653 157 654 q 149 652 150 653 q 144 651 147 651 q 138 654 140 649 q 139 658 138 657 q 142 661 139 658 l 144 661 q 156 664 153 664 q 150 668 153 665 q 147 669 147 669 q 144 676 142 672 q 147 679 147 679 q 151 678 150 679 q 153 677 153 678 q 156 676 154 676 q 161 674 158 674 q 160 678 160 675 q 157 688 157 686 q 161 693 154 693 q 162 694 161 694 q 163 693 163 694 q 164 693 163 693 q 167 690 167 690 q 168 686 167 688 q 169 680 169 683 q 171 672 169 676 q 172 669 172 671 q 174 667 172 668 l 175 664 q 189 657 181 663 q 194 654 192 654 l 194 678 l 183 689 l 176 696 q 176 703 174 700 q 185 703 179 706 q 186 700 186 701 q 194 693 189 699 l 194 703 q 200 708 194 708 q 204 703 204 708 l 204 699 l 204 693 l 215 703 q 222 703 217 706 q 222 696 226 700 l 219 693 l 210 683 l 204 678 l 204 654 l 213 658 q 219 663 215 661 q 226 667 224 664 q 229 681 229 678 q 232 690 232 689 q 239 693 235 696 q 240 692 240 693 q 242 692 240 692 q 242 688 242 688 l 242 683 q 239 674 239 678 q 244 676 239 674 q 247 678 246 678 q 254 676 253 681 q 254 672 254 672 q 253 669 253 669 q 251 668 251 668 q 249 667 250 668 q 243 664 246 667 q 249 663 247 664 q 253 662 251 663 q 257 661 254 661 q 261 654 261 660 q 258 651 261 651 q 254 651 257 650 l 251 651 q 244 653 249 653 q 238 656 240 654 l 228 656 l 215 647 q 210 644 213 647 l 218 640 l 231 632 q 246 636 239 636 q 254 639 251 639 q 261 636 257 640 l 261 632 q 257 629 258 629 q 254 628 256 629 q 243 625 251 628 q 247 624 246 624 q 250 622 247 624 q 253 621 250 621 q 254 614 257 617 q 251 611 254 611 l 247 611 q 245 613 246 613 q 243 614 244 613 q 241 615 242 615 q 239 617 240 615 q 240 611 239 613 q 241 607 240 608 q 242 603 242 606 q 239 596 244 599 q 235 597 236 596 q 232 600 232 597 l 232 603 q 228 617 231 608 q 226 624 226 619 q 224 625 224 625 q 210 633 218 628 q 204 636 210 633 l 204 611 l 222 594 q 222 586 225 590 q 215 586 219 583 q 213 589 213 589 l 204 597 l 204 588 q 200 582 204 582 q 194 588 194 582 l 194 592 l 194 597 l 190 593 q 185 586 186 589 q 176 586 181 585 q 176 594 175 590 l 179 596 q 184 601 182 599 q 189 607 186 604 q 194 611 192 608 l 194 636 q 186 631 189 633 q 174 624 182 629 q 172 616 172 619 q 169 608 171 613 q 168 604 168 606 q 167 600 168 603 q 161 596 167 596 q 159 597 160 597 q 157 599 158 597 l 157 603 q 158 606 157 604 q 161 617 158 608 q 158 615 158 615 q 154 613 157 614 q 151 611 153 613 q 144 614 147 607 l 144 617 q 147 621 144 618 q 149 622 149 621 q 151 622 150 622 q 156 625 154 625 q 150 626 154 626 q 146 628 147 628 q 142 629 144 628 q 138 636 138 632 l 140 639 l 144 639 q 147 638 146 639 q 161 635 153 638 q 165 633 164 633 q 168 632 165 633 l 171 635 m 47 -160 l 35 -168 q 29 -171 29 -171 q 38 -176 35 -174 q 50 -183 42 -178 q 65 -179 61 -181 q 69 -178 68 -178 q 74 -176 71 -178 q 81 -181 79 -176 l 81 -185 q 78 -185 79 -185 q 76 -186 78 -186 q 74 -187 76 -187 q 68 -189 71 -189 q 63 -190 65 -189 q 66 -192 65 -192 q 69 -194 67 -193 q 72 -196 71 -194 q 74 -203 75 -199 l 71 -206 q 67 -204 68 -206 q 63 -201 65 -204 q 60 -201 61 -201 q 58 -200 60 -200 q 60 -204 58 -203 q 60 -209 60 -207 q 61 -214 61 -211 q 58 -219 63 -217 l 54 -219 l 51 -217 q 50 -212 51 -214 q 47 -199 50 -207 q 46 -196 46 -197 q 44 -192 46 -194 q 29 -183 32 -185 q 26 -181 28 -182 q 24 -179 25 -181 l 24 -204 l 35 -215 l 42 -222 q 42 -229 44 -225 q 35 -229 38 -232 q 32 -226 32 -226 q 24 -219 26 -221 l 24 -229 q 19 -235 24 -233 q 14 -229 14 -235 l 14 -224 l 14 -219 q 10 -222 13 -219 q 7 -226 8 -225 q 3 -229 6 -226 q -4 -229 0 -232 q -4 -222 -8 -226 l -1 -219 l 8 -210 l 14 -204 l 14 -179 q 6 -185 11 -182 q -7 -192 -3 -190 l -8 -193 q -10 -200 -10 -196 q -11 -207 -10 -204 q -12 -212 -12 -210 q -14 -217 -12 -214 q -21 -219 -18 -221 l -24 -217 l -24 -214 l -24 -210 q -22 -205 -22 -207 q -19 -200 -21 -203 q -26 -203 -21 -200 q -29 -204 -28 -204 q -36 -203 -33 -206 l -36 -199 q -33 -196 -36 -196 q -31 -193 -31 -193 q -25 -190 -25 -190 q -32 -189 -28 -190 q -39 -186 -36 -187 q -43 -181 -43 -186 q -40 -178 -43 -178 q -36 -176 -39 -176 q -33 -178 -35 -178 q -26 -180 -31 -179 q -19 -182 -22 -181 q -12 -183 -15 -182 q -11 -183 -11 -183 q -10 -182 -11 -182 l 3 -174 q 8 -171 8 -171 l 0 -167 l -12 -158 q -28 -162 -24 -161 q -32 -164 -31 -164 q -36 -165 -33 -164 q -43 -161 -42 -165 q -42 -157 -43 -158 l -36 -154 q -31 -153 -33 -153 q -25 -151 -28 -153 q -32 -149 -31 -149 q -33 -147 -32 -147 q -33 -146 -33 -147 q -36 -139 -39 -143 q -33 -137 -33 -137 q -29 -137 -33 -137 q -27 -139 -28 -139 q -25 -140 -26 -139 q -19 -143 -25 -140 q -21 -137 -21 -140 q -24 -129 -24 -132 q -21 -122 -25 -126 l -17 -122 q -14 -126 -14 -125 q -12 -129 -14 -128 q -10 -143 -12 -135 q -8 -147 -8 -146 q -7 -150 -8 -147 l -6 -151 q 8 -160 0 -154 q 14 -162 11 -160 l 14 -137 q 8 -132 11 -135 q 3 -126 6 -129 q -1 -124 0 -125 q -4 -119 -1 -122 q -4 -112 -7 -117 q 3 -112 0 -110 q 6 -115 6 -115 l 14 -124 l 14 -112 q 19 -108 14 -108 q 24 -112 24 -108 l 24 -118 l 24 -124 l 35 -112 q 42 -112 38 -110 q 42 -119 44 -117 q 39 -122 39 -122 q 34 -128 36 -125 q 29 -133 32 -131 l 24 -137 l 24 -162 q 28 -160 26 -161 q 32 -157 29 -158 q 38 -153 35 -154 q 44 -150 42 -153 q 49 -135 49 -142 q 51 -126 51 -129 q 58 -122 54 -122 q 61 -125 58 -122 l 61 -129 l 61 -132 q 58 -143 58 -137 q 64 -139 61 -140 q 65 -138 65 -139 q 67 -137 65 -137 q 74 -139 71 -136 l 74 -143 q 72 -146 72 -146 q 68 -149 67 -149 q 63 -151 63 -151 q 65 -152 64 -151 q 68 -153 67 -153 q 72 -154 71 -154 q 76 -156 74 -154 q 81 -161 81 -156 q 78 -164 81 -164 q 74 -165 76 -165 q 71 -164 72 -164 q 57 -161 63 -161 q 53 -160 54 -160 q 50 -158 53 -160 q 47 -160 50 -160 m 160 371 q 203 340 186 368 q 221 254 221 313 q 212 183 221 226 q 186 98 203 139 q 146 28 169 57 q 93 -1 122 -1 q 58 1 78 -1 q 21 18 39 4 q -9 60 3 32 q -21 139 -21 88 q -10 235 -21 190 q 15 314 0 281 q 50 367 31 347 q 88 386 69 386 q 137 381 117 386 q 160 371 157 376 m 61 31 q 61 35 65 31 q 44 89 49 53 q 42 169 39 125 q 61 190 61 172 q 46 210 61 204 q 67 290 53 251 q 103 356 81 329 q 103 360 107 360 q 97 360 100 363 q 39 211 54 310 q 25 205 31 211 q 19 190 19 199 q 35 171 19 174 q 38 87 32 124 q 56 31 43 50 q 58 29 58 29 q 61 31 60 29 m 107 33 q 122 53 110 33 q 147 106 133 74 q 172 176 161 138 q 183 254 183 215 q 173 323 183 303 q 147 349 163 343 q 127 307 138 332 q 108 252 117 282 q 94 191 100 222 q 89 131 89 160 q 95 58 89 82 q 107 33 101 33 z "},"p":{"ha":453,"x_min":-8,"x_max":567,"o":"m 269 -164 q 260 -169 265 -167 q 257 -171 258 -171 q 263 -174 263 -174 l 269 -178 q 274 -177 272 -178 q 279 -176 276 -176 q 283 -175 281 -175 q 288 -176 285 -174 l 288 -179 q 286 -180 286 -179 q 285 -181 286 -181 q 281 -181 282 -181 q 276 -182 279 -182 q 278 -183 278 -183 q 281 -185 279 -183 q 283 -189 283 -186 q 281 -190 281 -190 l 279 -190 q 278 -190 278 -190 q 276 -189 278 -189 q 274 -187 275 -187 q 275 -190 275 -189 l 276 -196 q 274 -199 276 -199 q 273 -200 274 -200 q 272 -199 272 -200 q 268 -187 268 -190 q 267 -185 268 -186 q 267 -183 267 -185 q 257 -178 263 -181 q 254 -176 256 -176 l 254 -190 l 261 -197 q 263 -199 263 -199 q 265 -200 264 -199 l 265 -204 q 260 -204 263 -207 l 258 -203 l 254 -199 l 254 -204 q 251 -208 254 -206 q 249 -204 249 -208 l 249 -201 l 249 -199 l 246 -201 l 243 -204 q 239 -204 239 -208 q 239 -200 235 -204 l 246 -193 l 249 -190 l 249 -176 q 243 -179 246 -176 l 236 -183 q 235 -187 235 -186 q 233 -192 235 -189 q 232 -197 233 -196 q 229 -199 232 -201 q 226 -197 228 -199 q 228 -193 226 -194 q 229 -187 228 -189 q 224 -190 229 -187 q 219 -189 222 -192 q 221 -185 219 -186 q 224 -183 222 -185 q 226 -182 225 -183 l 222 -182 q 218 -181 221 -181 q 215 -176 215 -178 l 217 -175 q 219 -175 218 -174 q 224 -176 222 -175 q 229 -176 226 -176 q 233 -178 231 -178 q 238 -175 236 -176 q 243 -172 240 -174 q 246 -171 244 -171 q 243 -169 244 -169 q 240 -168 242 -169 q 237 -166 238 -167 q 233 -164 236 -165 q 225 -167 225 -167 l 219 -168 q 215 -165 218 -168 l 215 -162 q 218 -161 217 -162 q 222 -160 221 -161 q 226 -160 224 -160 q 224 -158 225 -158 q 222 -157 224 -158 q 219 -153 219 -156 q 222 -151 222 -151 l 224 -151 q 225 -152 225 -151 q 226 -153 225 -153 q 229 -154 228 -154 q 228 -153 229 -153 q 228 -151 228 -153 q 227 -149 228 -150 q 226 -146 226 -149 q 229 -143 226 -143 q 233 -147 233 -147 q 234 -150 233 -149 q 235 -154 235 -151 q 235 -156 235 -156 q 236 -158 236 -157 q 246 -164 240 -161 q 249 -165 246 -165 l 249 -151 l 242 -144 q 239 -142 239 -144 q 239 -137 238 -140 q 243 -137 239 -133 l 244 -139 l 249 -143 l 249 -137 q 251 -135 249 -135 q 254 -137 254 -135 l 254 -140 l 254 -143 l 257 -140 q 260 -137 260 -140 q 265 -137 263 -135 l 265 -142 q 261 -146 263 -144 q 257 -149 260 -147 q 254 -151 257 -149 l 254 -165 q 260 -162 257 -165 q 263 -160 263 -161 q 267 -158 264 -160 q 268 -154 268 -156 q 269 -150 268 -153 l 271 -144 q 274 -143 271 -140 q 276 -144 275 -143 l 276 -149 q 275 -151 275 -150 q 274 -154 275 -153 q 279 -151 274 -154 q 283 -153 281 -150 l 283 -156 q 281 -157 282 -157 q 279 -158 281 -157 q 276 -160 278 -160 l 281 -160 q 285 -161 282 -161 q 288 -165 288 -162 q 283 -168 285 -168 q 274 -165 275 -165 q 269 -164 272 -164 m 549 268 q 563 255 560 268 q 551 238 567 242 q 464 208 507 224 q 381 174 421 192 q 349 82 369 126 q 299 3 328 38 q 235 -51 271 -31 q 160 -72 200 -72 q 118 -59 131 -72 q 103 -29 106 -46 q 98 -80 100 -56 q 93 -129 96 -104 q 91 -252 92 -203 q 90 -308 90 -301 q 83 -320 90 -317 q 64 -324 75 -324 q 35 -318 49 -324 q 19 -304 21 -312 q 1 -147 7 -229 q -7 15 -6 -65 q -6 166 -8 94 q -1 293 -4 238 q 6 382 3 349 q 13 417 10 415 q 31 427 21 425 q 51 429 40 429 q 83 423 67 428 q 101 407 99 418 q 101 385 101 406 q 101 332 101 365 q 101 255 101 299 q 99 163 100 211 q 126 265 110 213 q 163 360 142 317 q 210 430 183 403 q 268 457 236 457 q 359 410 324 457 q 394 285 394 364 q 388 214 394 253 q 419 226 396 217 q 468 244 442 235 q 518 261 494 254 q 549 268 542 268 m 51 117 q 67 136 67 119 q 51 156 67 151 q 53 183 53 169 q 53 210 53 196 q 55 310 54 264 q 56 390 56 356 q 51 393 56 393 q 47 390 47 393 q 47 310 47 356 q 46 210 47 264 q 45 183 46 196 q 44 157 44 171 q 25 136 25 154 q 44 115 25 118 q 42 6 43 61 q 42 -101 42 -50 q 43 -194 42 -151 q 47 -268 44 -237 q 51 -271 47 -271 q 56 -267 56 -271 q 51 -193 53 -236 q 50 -99 50 -150 q 50 7 50 -49 q 51 117 50 63 m 110 24 q 167 94 126 61 q 261 156 208 128 q 276 293 276 225 q 268 380 276 351 q 254 408 260 408 q 217 377 238 408 q 178 292 197 346 q 140 169 158 239 q 110 24 122 100 m 156 -33 q 206 8 181 -33 q 250 111 231 49 q 169 50 199 81 q 139 -11 139 19 q 144 -29 139 -25 q 156 -33 150 -33 m 329 222 q 344 228 339 222 q 350 243 350 235 q 332 264 350 261 q 323 357 333 314 q 288 425 313 400 q 283 425 286 428 q 283 421 282 424 q 317 354 307 396 q 325 263 328 313 q 308 243 308 260 q 322 224 308 228 q 289 89 315 156 q 219 -24 263 22 q 221 -29 217 -26 l 225 -29 q 295 85 268 18 q 329 222 322 153 m 76 551 q 75 556 75 551 q 81 557 78 558 l 85 554 l 86 560 q 90 563 86 563 q 93 558 93 560 l 92 551 l 96 547 l 99 556 q 100 558 99 558 q 103 558 103 558 l 111 556 l 111 563 l 104 564 q 103 569 101 567 q 107 571 103 574 l 111 569 l 111 575 q 115 579 111 579 q 118 575 118 579 l 118 569 l 122 571 q 128 569 125 572 q 125 564 128 567 l 118 563 l 118 556 l 126 558 l 129 558 q 131 556 131 558 l 133 547 l 139 551 l 138 557 q 139 563 136 560 q 144 560 142 563 l 144 554 l 149 557 q 154 556 151 558 q 153 551 158 551 l 149 549 l 151 544 q 151 540 156 544 q 150 539 150 539 q 147 540 147 539 l 142 544 l 136 542 l 143 536 q 144 535 143 535 q 144 533 144 535 q 143 531 143 531 l 136 525 l 142 522 l 147 526 q 151 526 150 529 q 151 521 154 524 l 149 518 l 153 515 q 154 511 156 513 l 151 508 q 149 510 150 508 l 144 513 l 143 507 q 140 504 143 504 q 136 508 136 504 l 138 515 l 133 518 l 131 510 q 126 507 129 507 l 118 510 l 118 504 l 125 501 q 128 497 128 501 q 122 494 125 494 l 118 496 l 118 492 q 115 488 118 488 q 111 492 111 488 l 111 497 l 107 496 q 106 494 106 494 q 103 497 103 494 q 104 501 101 501 l 111 504 l 111 510 l 103 508 q 100 508 101 507 q 99 510 99 510 l 96 518 l 92 515 l 93 508 q 90 504 93 507 q 86 507 86 504 l 85 513 l 81 510 q 78 508 79 508 l 75 511 q 76 515 75 514 l 82 518 l 78 521 q 78 526 75 524 q 82 526 81 529 l 88 522 l 93 525 l 86 531 l 86 533 l 86 536 l 93 542 l 88 544 l 82 540 q 81 539 81 539 q 78 540 78 539 q 78 546 75 543 l 81 549 l 76 551 m 126 522 l 122 525 q 118 524 121 524 l 118 518 l 125 515 l 126 522 m 125 535 l 125 532 l 131 529 l 135 533 l 131 538 l 125 535 m 118 543 q 120 542 119 543 q 122 542 121 542 l 126 544 l 125 551 l 118 549 l 118 543 m 115 536 q 111 533 111 536 q 115 529 111 529 q 118 533 118 529 q 115 536 118 536 m 111 524 q 108 525 108 524 l 103 522 l 104 515 l 111 518 l 111 524 m 103 544 l 108 542 q 111 543 110 543 l 111 549 l 104 551 l 103 544 m 94 533 l 100 529 l 104 531 l 104 535 l 100 538 l 94 533 z "},"q":{"ha":468,"x_min":-32,"x_max":501,"o":"m 96 532 q 94 536 94 533 q 100 538 97 540 l 104 535 l 106 540 q 110 543 106 543 q 113 539 113 540 l 111 532 l 117 529 l 118 538 l 119 539 q 122 539 121 540 l 131 538 l 131 543 l 124 546 q 122 550 118 546 q 126 551 122 556 l 131 550 l 131 556 q 135 560 131 560 q 138 556 138 560 l 138 550 l 143 551 q 147 550 144 553 q 144 546 147 546 l 138 543 l 138 536 l 146 539 q 149 539 149 542 q 150 538 150 538 l 153 528 l 158 532 l 157 539 q 160 543 156 540 q 164 540 161 543 l 164 535 l 169 538 q 174 536 172 540 q 172 532 178 532 l 168 529 l 171 526 q 172 521 175 524 q 169 519 169 519 q 167 521 167 519 l 161 525 l 156 522 l 163 517 l 163 511 l 156 506 l 161 503 l 167 507 q 172 507 169 510 q 171 501 172 503 l 168 499 l 172 496 q 174 492 175 493 q 171 489 171 489 q 169 490 169 489 q 168 490 169 490 l 164 493 l 163 488 q 160 485 163 485 q 156 489 156 488 l 158 496 l 153 500 l 150 490 l 150 489 q 147 488 149 489 l 146 489 l 138 492 l 138 485 l 144 482 q 147 478 147 482 q 143 475 144 475 q 142 476 143 476 l 138 478 l 138 472 q 135 468 138 468 q 131 472 131 468 l 131 478 l 126 476 q 122 478 122 476 q 124 483 121 481 l 131 485 l 131 492 l 122 489 q 119 489 122 489 q 118 492 118 490 l 117 500 l 111 496 l 113 489 q 110 485 113 488 q 106 488 106 485 l 104 493 l 100 490 q 99 489 99 489 q 94 492 97 489 q 96 496 94 496 l 101 499 l 97 503 q 97 507 93 503 q 101 507 100 510 l 107 503 l 113 506 l 106 511 l 106 514 l 106 517 l 113 522 l 107 525 l 101 521 q 100 519 100 519 q 97 521 97 521 q 97 526 94 524 l 101 529 l 96 532 m 146 503 l 142 506 q 140 505 140 506 q 138 504 139 504 l 138 499 l 144 496 l 146 503 m 144 517 l 144 513 l 150 510 l 154 514 l 150 519 l 144 517 m 138 524 q 140 523 139 524 q 142 522 140 522 l 146 525 l 144 532 l 138 529 l 138 524 m 135 518 q 131 514 131 518 q 135 510 131 510 q 138 514 138 510 q 135 518 138 518 m 131 504 q 128 506 128 506 l 122 503 l 124 496 l 131 499 l 131 504 m 122 525 l 128 522 q 131 524 128 524 l 131 529 l 124 532 l 122 525 m 114 514 l 119 510 l 124 513 l 124 515 l 119 518 l 114 514 m 482 285 q 495 279 489 285 q 499 264 501 274 q 413 81 451 168 q 379 3 396 43 q 349 -73 363 -36 q 326 -142 336 -110 q 311 -199 315 -175 q 303 -279 306 -249 q 299 -312 300 -310 q 288 -320 297 -318 q 268 -322 279 -322 q 241 -319 254 -322 q 225 -310 228 -317 q 217 -212 219 -272 q 217 -83 215 -153 q 225 63 219 -12 q 239 207 231 139 q 203 133 222 169 q 163 66 183 96 q 121 18 142 36 q 81 0 100 0 q -4 42 24 0 q -32 158 -32 83 q -17 244 -32 200 q 27 325 -1 289 q 95 384 56 361 q 183 407 135 407 q 238 401 217 407 q 272 386 260 396 q 279 408 275 399 q 286 425 283 418 q 299 429 289 428 q 321 431 310 431 q 347 428 335 431 q 363 422 360 426 q 360 379 363 419 q 352 276 357 339 q 341 135 347 213 q 328 -17 335 58 q 373 84 349 32 q 418 178 397 136 q 468 275 443 228 q 482 285 472 285 m 56 201 q 44 219 56 215 q 90 308 60 268 q 156 367 119 347 q 157 372 158 369 q 153 374 157 374 q 84 313 115 354 q 38 222 53 271 q 21 217 28 222 q 14 201 14 213 q 28 182 14 189 q 53 51 13 97 q 56 50 54 50 q 58 51 57 50 q 58 56 61 54 q 35 181 19 101 q 50 187 44 181 q 56 201 56 193 m 104 75 q 132 92 117 75 q 163 134 147 108 q 194 192 179 160 q 224 257 210 225 q 222 283 224 268 q 218 314 221 299 q 209 340 215 329 q 193 350 203 350 q 162 333 181 350 q 126 284 143 315 q 97 210 110 253 q 85 115 85 167 q 104 75 85 75 m 292 163 q 306 285 299 226 q 322 386 314 343 q 319 390 322 390 q 315 388 315 390 q 299 286 307 344 q 285 164 292 228 q 270 158 276 164 q 264 143 264 151 q 281 124 264 126 q 271 1 275 63 q 263 -112 267 -60 q 258 -205 260 -164 q 257 -267 257 -246 q 261 -269 257 -269 q 264 -267 264 -269 q 265 -205 264 -246 q 270 -112 267 -164 q 278 1 274 -60 q 289 122 283 61 q 306 143 306 126 q 292 163 306 158 m 149 -110 q 140 -114 143 -112 q 133 -118 136 -115 q 128 -121 131 -121 q 136 -126 131 -124 q 142 -130 139 -129 q 149 -133 146 -131 q 164 -129 160 -131 q 169 -128 167 -129 q 174 -128 171 -128 q 179 -131 176 -126 l 179 -135 q 177 -136 178 -136 q 175 -137 176 -136 l 172 -137 q 161 -140 167 -140 q 165 -142 164 -142 q 168 -144 165 -143 q 171 -146 169 -146 q 172 -153 174 -149 q 169 -156 172 -156 q 165 -154 167 -156 q 163 -153 164 -154 q 161 -153 163 -153 q 157 -150 158 -150 q 158 -156 157 -153 q 159 -160 158 -158 q 160 -164 160 -161 q 157 -169 163 -169 q 153 -169 157 -169 q 150 -167 153 -169 l 150 -164 q 148 -156 149 -160 q 146 -149 147 -153 q 145 -146 146 -147 q 144 -143 144 -144 q 142 -142 142 -142 q 135 -137 139 -139 q 128 -133 131 -136 q 122 -131 125 -131 l 122 -154 l 140 -172 q 140 -179 144 -176 q 133 -179 138 -186 q 132 -178 132 -179 q 131 -178 132 -178 l 122 -169 l 122 -179 q 118 -185 122 -185 q 113 -179 113 -185 l 113 -175 l 113 -169 l 108 -174 l 103 -179 q 94 -179 99 -183 q 94 -172 92 -176 q 97 -169 97 -169 q 102 -165 100 -167 q 107 -160 104 -162 q 113 -154 111 -158 l 113 -131 l 104 -135 l 92 -143 q 90 -151 90 -147 q 88 -158 89 -154 q 86 -162 86 -161 q 85 -167 86 -164 q 79 -169 85 -172 q 77 -169 78 -169 q 75 -168 76 -168 l 75 -164 q 76 -161 75 -161 q 79 -150 76 -156 q 76 -151 76 -151 q 72 -153 75 -151 q 69 -154 72 -154 q 63 -153 65 -158 l 63 -149 q 65 -146 63 -149 q 67 -144 67 -144 q 69 -143 68 -144 q 74 -140 71 -143 q 68 -139 69 -140 q 64 -138 65 -139 q 60 -137 63 -137 q 56 -131 56 -136 q 58 -128 58 -128 q 63 -128 61 -126 l 65 -128 q 79 -132 71 -129 q 83 -133 82 -132 q 86 -133 83 -133 q 89 -132 88 -133 q 103 -125 97 -126 l 107 -121 l 99 -117 q 86 -110 90 -111 q 78 -112 82 -111 q 71 -114 75 -112 q 67 -115 68 -114 q 63 -115 65 -115 q 56 -112 58 -118 q 57 -108 56 -110 q 60 -106 57 -106 q 63 -104 61 -106 q 74 -101 65 -104 q 68 -99 71 -101 q 65 -97 65 -97 q 63 -90 58 -94 q 67 -87 65 -87 l 69 -87 q 72 -89 71 -89 q 74 -90 72 -89 q 76 -92 75 -92 q 79 -93 78 -92 q 78 -87 78 -92 q 76 -83 76 -85 q 75 -79 76 -82 q 79 -72 74 -75 l 81 -72 q 82 -74 82 -74 q 85 -76 85 -74 q 86 -79 86 -79 q 89 -93 89 -90 q 90 -97 90 -96 q 92 -100 90 -99 l 94 -101 l 107 -110 q 113 -112 113 -112 l 113 -87 l 94 -71 q 94 -64 92 -67 q 103 -64 99 -60 l 113 -74 l 113 -64 q 118 -58 113 -58 q 122 -64 122 -58 l 122 -68 l 122 -74 l 133 -64 q 140 -64 138 -57 q 140 -71 143 -67 q 139 -72 139 -71 q 138 -72 139 -72 q 133 -78 135 -75 q 128 -83 131 -81 q 122 -87 125 -86 l 122 -112 q 132 -107 128 -110 q 144 -100 136 -106 q 147 -92 146 -96 q 149 -85 147 -89 q 149 -81 149 -82 q 150 -76 150 -79 q 157 -72 153 -72 q 160 -75 160 -75 q 160 -79 160 -79 l 160 -82 q 157 -93 157 -90 q 160 -91 158 -92 q 163 -89 161 -90 q 165 -87 164 -89 q 172 -90 169 -85 q 172 -94 176 -90 q 171 -97 171 -96 q 169 -98 169 -97 q 167 -99 168 -99 q 161 -101 164 -101 q 167 -103 164 -103 q 175 -106 172 -106 q 179 -112 179 -108 l 176 -115 l 174 -115 l 169 -115 q 156 -111 161 -112 q 149 -110 154 -110 z "},"u":{"ha":414,"x_min":-4,"x_max":446,"o":"m 164 -32 q 154 -37 160 -35 q 151 -39 151 -39 l 156 -43 l 164 -47 q 172 -44 169 -44 q 174 -44 174 -44 q 178 -43 175 -43 q 181 -44 181 -43 l 181 -47 q 176 -49 178 -49 q 174 -50 175 -50 q 171 -51 172 -50 q 174 -53 174 -53 q 175 -53 175 -53 q 176 -54 175 -54 q 176 -58 181 -54 q 172 -60 175 -60 q 168 -56 168 -56 l 168 -60 l 169 -64 q 168 -68 174 -68 l 165 -68 q 165 -67 165 -67 q 164 -65 164 -67 q 163 -60 163 -62 q 161 -56 163 -58 q 160 -51 161 -53 l 158 -51 q 151 -46 156 -50 q 149 -44 149 -46 l 149 -58 q 154 -65 150 -61 l 158 -69 q 158 -74 161 -72 q 154 -74 157 -76 l 153 -72 l 149 -68 l 149 -74 q 144 -76 149 -76 q 142 -74 142 -76 l 142 -71 l 142 -68 l 136 -74 q 132 -74 135 -76 q 132 -69 131 -72 l 139 -62 q 142 -58 142 -60 l 142 -44 q 138 -47 139 -47 l 129 -51 q 128 -56 129 -54 q 128 -61 128 -58 l 126 -65 q 122 -68 125 -68 l 121 -67 q 121 -64 119 -65 q 122 -60 121 -61 q 122 -56 122 -58 q 119 -58 119 -58 q 117 -60 118 -58 q 114 -58 114 -60 q 113 -56 113 -57 q 117 -53 115 -53 q 119 -51 118 -51 q 117 -50 118 -50 l 111 -49 q 110 -44 108 -49 q 115 -43 114 -43 q 119 -44 118 -44 q 122 -46 119 -44 q 126 -47 125 -46 q 136 -42 131 -44 l 139 -39 q 135 -36 138 -39 l 126 -32 q 119 -35 124 -33 q 113 -36 115 -36 q 110 -35 110 -36 q 110 -32 110 -32 q 115 -29 114 -29 q 119 -28 117 -29 q 114 -25 119 -28 q 114 -21 110 -25 q 122 -24 121 -22 l 122 -19 l 121 -15 q 122 -11 117 -11 l 125 -11 q 126 -12 125 -12 q 126 -14 126 -12 q 128 -19 128 -17 q 129 -24 128 -21 l 129 -28 q 139 -33 136 -31 q 142 -35 142 -33 l 142 -21 l 132 -10 q 132 -6 131 -8 q 136 -6 135 -4 l 138 -7 l 142 -11 l 142 -6 q 144 -3 142 -3 q 149 -8 149 -3 l 149 -11 l 154 -6 q 158 -6 157 -4 q 158 -10 161 -8 l 157 -11 l 151 -17 q 149 -21 149 -19 l 149 -35 q 153 -32 151 -32 q 160 -28 158 -29 q 163 -18 163 -19 l 164 -14 q 168 -11 164 -11 q 169 -15 169 -14 q 169 -19 169 -18 q 168 -24 168 -21 l 172 -19 q 176 -21 176 -19 q 178 -24 178 -22 q 171 -28 172 -28 q 179 -31 174 -31 q 181 -35 183 -31 q 175 -36 176 -36 q 171 -35 172 -35 q 167 -33 169 -35 q 164 -32 165 -33 m 247 821 q 244 829 242 824 q 253 832 249 833 l 261 826 l 263 835 q 265 839 263 838 q 269 839 267 840 q 274 832 276 839 l 272 821 l 281 815 l 283 829 q 286 833 283 833 q 292 835 288 835 l 306 829 l 306 840 l 294 843 q 290 851 288 846 q 297 856 293 856 l 306 853 l 306 861 q 311 868 306 868 q 317 861 317 868 l 317 853 l 325 856 q 332 851 332 856 q 328 843 335 846 l 317 840 l 317 829 l 331 833 q 336 833 333 836 q 339 829 339 833 l 342 815 l 350 821 l 349 832 q 353 839 346 839 q 358 839 356 840 q 360 835 360 838 l 361 826 l 369 832 q 378 829 375 835 q 375 821 381 824 l 368 817 l 374 811 q 374 803 378 807 q 369 801 372 801 q 365 803 367 801 l 357 810 l 347 806 l 358 796 q 360 792 360 794 q 358 786 360 788 l 347 778 l 357 772 l 365 781 q 374 779 369 783 q 374 771 376 776 l 367 765 l 375 761 q 376 753 382 758 q 372 750 376 750 q 369 751 369 750 l 361 756 l 360 747 q 353 743 358 743 q 349 750 346 743 l 350 761 l 342 767 l 339 753 q 338 751 338 751 q 336 749 338 750 l 331 749 l 317 753 l 317 742 l 328 739 q 332 731 335 738 q 326 726 328 726 l 325 728 l 317 729 l 317 721 q 311 715 317 715 q 306 721 306 715 l 306 729 l 297 728 q 290 732 290 728 q 294 739 288 736 l 306 743 l 306 753 l 292 749 l 286 749 q 283 753 283 751 l 281 767 l 272 761 l 274 750 q 269 743 275 746 q 263 747 263 743 l 261 756 l 253 751 q 250 750 253 750 q 244 753 247 750 q 247 761 242 758 l 256 765 l 249 771 q 249 779 246 776 q 257 781 253 783 l 265 772 l 275 778 l 264 788 q 263 792 263 788 q 264 796 263 794 l 275 806 l 265 811 l 257 803 q 253 801 256 801 q 249 803 250 801 q 249 811 244 807 l 256 817 l 247 821 m 331 774 l 322 778 q 317 774 319 775 l 317 765 l 328 761 l 331 774 m 329 794 l 329 792 l 329 788 l 336 783 l 346 792 l 336 799 l 329 794 m 317 808 q 322 804 319 807 l 331 810 l 328 821 l 317 817 l 317 808 m 311 797 q 306 792 306 797 q 311 785 306 785 q 317 792 317 785 q 311 797 317 797 m 306 774 q 300 778 303 775 l 292 774 l 294 761 l 306 765 l 306 774 m 292 810 l 300 806 q 306 808 300 806 l 306 818 l 294 821 l 292 810 m 276 792 l 286 783 l 293 788 l 293 792 l 293 794 l 286 799 l 276 792 m 428 286 q 440 281 435 286 q 443 265 446 275 q 386 121 414 183 q 360 67 374 93 q 334 20 347 40 q 308 -12 321 0 q 285 -25 296 -25 q 235 0 253 -25 q 210 59 218 25 q 200 130 201 93 q 199 192 199 167 q 199 215 199 203 q 200 243 199 228 q 176 184 190 217 q 146 122 163 151 q 111 74 129 93 q 75 54 93 54 q 31 72 47 54 q 8 115 15 89 q -2 173 0 142 q -4 232 -4 204 q 6 332 -4 288 q 21 399 15 376 q 28 406 22 403 q 56 413 35 413 q 92 397 78 413 q 107 353 107 381 q 103 299 107 340 q 95 215 99 258 q 90 137 92 171 q 94 103 89 103 q 112 120 101 103 q 134 165 122 138 q 159 224 146 192 q 184 288 172 257 q 205 343 196 318 q 219 379 214 368 q 231 381 226 381 q 242 381 236 381 q 286 368 271 381 q 301 343 301 356 q 299 315 301 339 q 295 258 297 292 q 291 188 293 225 q 289 119 289 150 q 292 67 289 88 q 301 46 294 46 q 315 56 307 46 q 331 82 322 65 q 350 119 340 99 q 369 161 360 140 q 414 276 390 213 q 428 286 418 286 m 69 89 q 68 94 72 92 q 53 134 57 103 q 49 206 49 165 q 65 225 65 208 q 50 244 65 242 q 55 314 51 281 q 64 371 58 347 q 61 375 64 375 q 57 372 57 375 q 48 316 51 350 q 42 246 44 282 q 24 225 24 243 q 42 206 24 208 q 47 133 42 165 q 64 89 51 100 q 67 88 65 88 q 69 89 68 88 m 271 24 q 272 28 275 25 q 253 87 257 43 q 249 181 249 131 q 267 201 267 186 q 250 221 267 218 q 256 292 253 260 q 261 344 258 325 q 258 349 263 346 q 254 346 257 349 q 249 296 251 331 q 243 221 246 261 q 225 201 225 221 q 242 181 225 185 q 247 84 242 129 q 267 24 251 39 q 269 22 267 22 q 271 24 271 22 z "},"r":{"ha":319,"x_min":-44,"x_max":351,"o":"m 333 285 q 346 279 340 285 q 349 264 351 274 q 276 101 313 172 q 244 42 261 71 q 210 -10 228 13 q 177 -47 193 -33 q 146 -61 161 -61 q 76 -27 101 -61 q 50 67 50 7 q 55 151 50 107 q 65 235 60 194 q 74 310 69 275 q 79 365 79 344 q 76 383 79 378 q 67 390 72 388 q 60 361 65 383 q 47 315 54 339 q 32 272 40 290 q 15 253 24 253 q 3 260 8 253 q 0 275 -3 267 q 19 338 11 308 q 33 393 28 368 q 4 407 11 393 q 1 438 -3 421 q 17 468 4 454 q 46 482 29 482 q 72 467 64 482 q 72 417 81 453 q 115 415 94 417 q 149 404 135 413 q 173 381 164 396 q 182 338 182 365 q 178 298 182 326 q 171 233 175 269 q 163 156 167 196 q 156 84 158 117 q 157 30 154 51 q 168 8 160 8 q 188 20 176 8 q 210 51 199 32 q 235 93 222 69 q 261 142 249 117 q 319 275 289 200 q 333 285 321 285 m 133 -12 q 120 12 125 -6 q 115 53 115 29 q 115 108 114 78 q 118 168 117 138 q 136 188 136 171 q 121 207 136 204 l 121 211 q 128 329 126 278 q 114 393 129 381 q 110 393 113 396 q 110 388 107 390 q 119 365 117 382 q 121 324 121 349 q 119 271 121 300 q 114 213 117 242 l 114 208 q 100 202 106 208 q 94 188 94 196 q 111 168 94 171 q 107 106 108 136 q 108 50 106 75 q 115 8 110 25 q 129 -18 119 -10 q 135 -17 133 -18 q 133 -12 135 -12 m 38 -60 q 36 -65 39 -64 l 32 -68 l 36 -71 q 36 -76 39 -74 l 31 -76 l 25 -72 l 21 -75 l 26 -81 q 28 -83 28 -81 q 26 -86 28 -85 l 21 -92 l 25 -94 l 31 -90 q 36 -90 33 -87 q 36 -94 39 -93 l 32 -99 l 36 -101 q 38 -106 42 -101 q 33 -107 38 -107 l 28 -104 l 28 -110 q 24 -111 28 -111 q 21 -107 21 -111 l 22 -100 l 17 -97 l 15 -106 q 13 -108 15 -108 l 10 -108 l 1 -106 l 1 -112 l 8 -114 q 11 -119 11 -115 q 7 -121 11 -121 l 3 -119 l 3 -125 q -1 -128 3 -128 q -6 -125 -6 -128 l -6 -119 l -10 -121 q -14 -118 -14 -121 q -11 -114 -14 -115 l -6 -112 l -6 -106 l -12 -108 l -17 -108 q -18 -106 -18 -107 l -19 -97 l -25 -100 l -24 -107 q -26 -111 -24 -111 q -31 -108 -31 -111 l -32 -104 l -36 -107 q -40 -106 -40 -107 q -39 -101 -44 -101 l -35 -99 l -39 -94 q -39 -90 -42 -93 q -33 -89 -36 -87 l -28 -94 l -24 -92 l -29 -86 q -31 -83 -31 -83 q -29 -81 -31 -81 l -24 -75 l -28 -71 l -33 -76 l -39 -76 q -39 -71 -42 -74 l -35 -68 l -39 -65 q -40 -60 -42 -64 q -36 -58 -40 -58 l -32 -61 l -31 -57 q -26 -54 -31 -54 q -24 -58 -24 -54 l -25 -65 l -19 -68 l -18 -60 q -12 -57 -15 -57 l -6 -60 l -6 -54 l -11 -51 q -14 -47 -14 -51 q -10 -44 -14 -44 l -6 -46 l -6 -42 q -1 -37 -6 -37 q 3 -42 3 -37 l 3 -46 l 7 -44 q 11 -47 11 -44 q 8 -51 15 -51 l 3 -54 l 3 -60 l 11 -57 l 13 -57 q 15 -60 13 -57 l 17 -68 l 22 -65 l 21 -58 q 24 -54 21 -54 q 28 -57 28 -54 l 29 -61 l 33 -58 q 38 -60 38 -58 m -12 -72 l -8 -75 l -6 -72 l -6 -67 l -11 -65 l -12 -72 m -12 -85 l -12 -81 l -17 -78 l -22 -83 l -17 -87 l -12 -85 m -6 -93 q -7 -92 -7 -93 q -8 -92 -7 -92 l -12 -94 l -11 -100 l -6 -99 l -6 -93 m -1 -86 q 3 -83 3 -86 q -1 -79 3 -79 q -6 -83 -6 -79 q -1 -86 -6 -86 m 3 -74 q 6 -75 4 -74 l 10 -72 l 8 -65 l 3 -68 l 3 -74 m 10 -94 l 6 -92 q 4 -92 4 -92 q 3 -93 4 -93 l 3 -99 l 8 -100 l 10 -94 m 19 -83 l 14 -78 l 10 -81 l 10 -85 l 14 -87 l 19 -83 m 122 722 q 121 728 121 724 q 126 729 125 732 l 131 726 l 132 731 q 136 733 132 738 q 139 729 139 733 l 138 722 l 143 719 l 144 728 q 145 729 144 729 q 146 731 146 729 l 149 731 l 157 728 l 157 735 l 150 736 q 149 740 147 739 q 153 743 149 743 l 157 742 l 157 747 q 161 750 157 750 q 164 747 164 750 l 164 742 l 169 743 q 174 740 172 743 q 171 736 174 739 l 164 735 l 164 728 l 172 731 l 175 731 l 178 728 l 179 719 l 185 722 l 183 729 q 186 733 182 733 q 190 731 188 735 l 190 726 l 196 729 q 200 728 197 731 q 199 722 203 726 l 194 719 l 197 717 q 199 713 201 715 q 196 711 196 711 l 193 711 l 188 717 l 182 714 l 189 708 q 190 706 190 706 q 189 703 190 703 l 182 697 l 188 693 l 193 699 q 199 699 196 701 q 197 693 199 694 l 194 690 l 199 688 q 200 682 201 685 q 196 681 199 681 l 190 683 l 190 679 q 185 676 188 676 q 183 681 179 676 l 185 688 l 179 690 l 176 682 q 175 679 176 681 l 172 679 l 164 682 l 164 676 l 171 674 q 174 669 174 674 q 169 667 171 667 l 164 668 l 164 663 q 161 660 164 660 q 157 663 157 660 l 157 668 l 153 667 q 149 669 149 667 q 150 674 144 674 l 157 676 l 157 682 l 149 679 l 146 679 q 145 681 146 681 q 144 682 144 681 l 143 690 l 138 688 l 139 681 q 136 676 139 676 q 132 679 132 676 l 131 683 l 126 681 q 123 681 124 681 q 121 682 122 682 q 122 688 121 686 l 128 690 l 124 693 q 124 699 121 696 q 129 699 125 700 l 133 693 l 139 697 l 133 703 q 132 706 132 703 q 133 708 132 707 l 139 714 l 133 717 l 129 713 q 126 711 126 711 q 124 713 124 711 q 124 717 122 715 l 128 721 l 122 722 m 172 694 l 168 697 q 166 696 167 696 q 164 694 165 696 l 164 689 l 171 688 l 172 694 m 171 707 l 171 703 l 176 700 l 181 706 l 176 710 l 171 707 m 164 715 q 166 714 165 714 q 168 713 167 714 l 172 715 l 171 722 l 164 721 l 164 715 m 161 708 q 157 706 157 708 q 161 701 157 701 q 164 706 164 701 q 161 708 164 708 m 157 694 q 154 697 154 697 l 149 694 l 150 688 l 157 689 l 157 694 m 149 717 l 154 714 q 157 715 156 715 l 157 721 l 150 722 l 149 717 m 140 706 l 146 700 l 150 703 l 150 707 l 146 710 l 140 706 z "},"s":{"ha":274,"x_min":-4,"x_max":306,"o":"m 57 771 q 62 774 60 774 q 67 778 64 775 q 69 778 68 778 q 71 779 69 779 q 64 783 69 781 q 54 789 61 788 q 49 788 51 788 q 43 786 46 788 q 39 785 40 786 q 36 785 38 785 q 31 788 33 783 q 32 790 31 789 q 36 793 38 793 q 40 794 39 793 q 44 794 42 794 q 40 797 42 797 q 38 799 39 799 q 36 804 35 803 l 39 807 q 42 806 42 807 q 44 804 44 804 q 47 803 46 803 q 49 801 47 803 q 47 806 49 804 q 47 810 47 808 q 46 813 46 811 q 49 818 46 815 l 51 818 l 54 815 l 54 813 q 56 807 56 810 q 57 801 56 804 q 58 796 58 800 q 61 794 60 796 q 66 792 64 793 q 71 789 68 792 q 73 788 72 788 q 75 786 74 788 l 75 806 q 71 810 72 808 q 67 814 69 811 l 61 819 q 61 825 58 822 q 67 825 64 828 q 68 824 68 825 q 69 824 68 824 q 72 820 71 821 q 75 817 74 819 l 75 825 q 79 829 75 829 q 83 825 83 829 l 83 821 l 83 817 l 92 825 q 97 825 94 828 q 97 819 100 822 l 94 818 q 88 810 93 815 l 83 806 l 83 786 q 90 790 89 789 q 100 796 94 793 q 101 803 101 800 q 103 808 101 806 q 104 812 104 811 q 106 815 104 813 q 110 818 106 818 q 113 815 110 818 l 113 813 l 113 810 q 111 806 111 807 q 110 801 111 804 q 114 804 113 804 q 117 806 115 806 q 122 804 119 808 l 122 801 q 122 800 122 800 q 121 799 121 800 q 118 797 118 797 q 116 796 117 796 q 114 794 115 796 l 118 794 q 121 793 119 793 q 125 792 122 793 q 128 788 128 792 q 125 785 128 785 q 122 785 124 783 l 119 785 q 110 788 114 788 q 104 789 107 789 q 101 788 103 789 q 97 785 99 786 q 92 782 94 785 l 88 779 q 90 778 89 778 q 94 776 92 778 q 99 773 97 774 q 104 769 101 772 q 115 774 113 772 q 119 774 118 774 q 122 775 121 775 q 128 772 125 776 l 128 769 q 125 768 126 768 q 122 767 124 767 q 118 765 119 765 q 114 764 117 765 q 118 761 115 764 l 121 761 q 122 756 125 758 q 119 753 122 753 q 117 754 118 753 q 114 756 114 754 q 112 756 113 756 q 110 757 111 757 q 110 755 110 756 q 111 753 111 754 q 112 750 111 751 q 113 747 113 749 q 110 742 115 742 l 107 742 q 106 744 106 743 q 104 747 104 746 q 103 753 103 750 q 101 758 103 756 q 101 760 101 760 q 100 763 100 761 q 97 764 99 764 q 92 767 94 767 q 88 771 90 768 q 85 772 86 771 q 83 772 85 772 l 83 753 l 92 744 q 94 742 93 743 q 97 740 96 742 q 97 735 100 738 q 92 735 96 731 l 83 742 l 83 735 q 79 731 83 731 q 75 735 75 731 l 75 738 l 75 742 q 72 739 75 742 l 67 735 q 61 735 65 731 q 61 740 58 738 l 75 754 l 75 772 q 72 772 74 771 q 68 769 71 772 q 63 767 65 768 q 58 763 61 765 q 57 757 57 760 q 56 751 57 754 q 54 744 54 749 q 49 742 53 742 q 47 742 47 742 q 46 743 47 743 l 46 747 q 49 757 49 756 q 44 754 47 757 l 42 754 q 36 756 39 751 l 36 758 q 38 761 38 760 q 42 763 40 761 q 44 764 43 764 q 40 765 43 765 q 38 767 39 767 q 33 768 36 767 q 31 772 31 768 q 33 775 31 772 l 36 775 l 39 775 q 50 771 42 774 q 54 769 53 771 q 57 771 56 771 m 288 285 q 300 279 294 285 q 303 264 306 274 q 260 174 286 211 q 206 110 233 138 q 208 90 208 99 q 208 72 208 81 q 184 -37 208 3 q 101 -78 160 -78 q 84 -74 94 -78 q 64 -62 74 -71 q 47 -42 54 -54 q 40 -10 40 -29 q 60 38 40 19 q 110 76 79 57 q 81 180 100 121 q 43 297 61 239 q 35 279 39 288 q 29 264 32 271 q 15 254 25 254 q 1 260 7 254 q 0 275 -4 265 q 8 296 4 285 q 28 346 17 314 q 15 398 19 374 q 10 439 10 422 q 23 482 10 465 q 55 509 36 499 q 95 524 74 519 q 133 528 117 528 q 165 519 154 528 q 180 499 176 510 q 181 480 183 489 q 174 471 179 471 q 161 476 164 471 q 156 488 158 482 q 151 499 154 494 q 136 504 147 504 q 120 494 128 504 q 113 463 113 485 q 122 403 113 439 q 146 326 132 368 q 174 238 160 283 q 199 151 189 193 q 239 204 219 174 q 274 275 258 235 q 288 285 278 285 m 97 -33 q 109 -18 104 -33 q 114 36 114 -3 q 89 12 99 24 q 79 -12 79 0 q 97 -33 79 -33 m 154 -28 q 163 17 163 -11 q 159 78 164 44 q 145 149 154 111 q 126 224 136 186 q 138 240 138 228 q 131 255 138 249 q 117 261 125 261 q 116 265 117 264 q 115 269 115 267 q 97 340 106 306 q 83 403 88 375 q 77 452 78 432 q 82 481 76 472 q 82 485 85 483 q 76 485 79 488 q 69 455 69 475 q 74 406 69 435 q 88 342 79 376 q 107 268 97 307 q 108 264 108 265 q 110 260 108 263 q 96 240 96 256 q 101 226 96 232 q 117 219 107 219 q 119 221 118 219 q 138 147 129 183 q 151 77 146 110 q 156 18 156 44 q 149 -25 156 -8 q 150 -31 147 -28 q 154 -28 154 -31 z "},"t":{"ha":233,"x_min":-121,"x_max":265,"o":"m 247 285 q 260 279 254 285 q 263 264 265 274 q 210 132 236 190 q 186 83 199 107 q 161 41 174 60 q 136 11 149 22 q 113 0 124 0 q 57 30 79 0 q 21 110 35 60 q 1 228 7 161 q -6 372 -6 296 q -3 481 -6 426 q 3 583 0 535 q -42 581 -21 581 q -79 581 -64 581 l -97 581 q -116 588 -111 581 q -119 603 -121 594 q -111 618 -118 611 q -96 625 -104 625 q -60 624 -87 625 q 7 624 -33 624 q 18 723 13 685 q 26 765 24 761 q 49 778 33 775 q 79 782 64 782 q 115 774 97 782 q 133 750 133 767 q 130 710 133 743 q 122 629 126 678 q 206 638 164 632 l 208 638 q 220 632 217 638 q 223 620 224 626 q 217 608 222 614 q 204 601 213 603 q 162 597 183 599 q 119 592 140 594 q 112 471 115 536 q 108 342 108 406 q 109 252 108 299 q 113 167 110 206 q 119 103 115 128 q 131 78 124 78 q 160 109 143 78 q 194 176 178 140 q 233 275 213 219 q 247 285 238 285 m 100 53 q 101 58 103 56 q 80 116 89 81 q 66 194 71 151 q 59 287 61 238 q 57 386 57 336 q 74 406 74 389 q 57 426 74 422 q 61 534 58 482 q 67 628 64 586 q 72 701 69 671 q 76 742 75 731 q 72 744 76 744 q 68 742 72 746 q 65 702 67 732 q 59 629 63 672 q 53 534 56 586 q 50 426 51 482 q 32 406 32 424 q 50 386 32 389 q 52 285 50 335 q 60 192 54 236 q 74 113 65 149 q 96 54 82 78 q 100 53 96 53 m 178 -115 q 176 -119 182 -119 l 172 -122 l 175 -126 q 175 -131 178 -129 q 174 -132 174 -132 q 171 -131 171 -132 l 165 -126 l 160 -129 l 167 -135 q 167 -136 167 -136 q 168 -137 168 -136 q 167 -140 167 -140 l 160 -146 l 165 -149 l 171 -144 q 175 -144 174 -143 q 175 -150 178 -147 l 172 -153 l 176 -156 q 178 -160 179 -158 l 175 -162 q 172 -161 174 -162 l 168 -160 l 167 -164 q 164 -167 167 -167 q 160 -162 160 -167 l 161 -156 l 157 -153 l 154 -161 q 150 -164 153 -164 l 142 -161 l 142 -167 l 149 -169 q 150 -174 154 -169 q 146 -176 150 -176 l 142 -175 l 142 -179 q 139 -183 142 -183 q 135 -179 135 -183 l 135 -174 l 131 -175 l 129 -176 q 126 -174 126 -176 q 128 -169 125 -169 l 135 -167 l 135 -161 l 126 -162 q 124 -162 125 -164 q 122 -161 122 -161 l 119 -153 l 115 -156 l 117 -162 q 114 -167 117 -164 q 110 -164 110 -167 l 108 -158 l 104 -161 q 101 -162 103 -162 l 99 -160 q 100 -156 99 -157 l 104 -153 l 101 -150 q 101 -144 99 -147 q 106 -144 104 -143 l 111 -149 l 117 -146 l 110 -140 l 110 -137 l 110 -135 l 117 -129 l 111 -126 l 106 -131 q 104 -132 104 -132 q 101 -131 101 -132 q 101 -125 99 -128 l 104 -122 l 100 -119 q 99 -115 94 -119 q 104 -114 101 -112 l 108 -117 l 110 -111 q 114 -108 110 -108 q 117 -112 117 -111 l 115 -119 l 119 -124 l 122 -115 q 124 -112 122 -112 l 126 -112 l 135 -115 l 135 -108 l 128 -107 q 126 -101 125 -104 q 131 -100 126 -99 l 135 -101 l 135 -96 q 139 -92 135 -92 q 142 -96 142 -92 l 142 -101 l 146 -100 q 151 -101 149 -99 q 149 -107 151 -104 l 142 -108 l 142 -115 l 150 -112 l 153 -112 q 154 -115 154 -112 l 157 -124 l 163 -119 l 161 -114 q 163 -110 160 -110 q 167 -111 167 -108 l 168 -117 l 172 -114 q 178 -115 175 -112 m 126 -126 l 132 -129 q 135 -128 133 -128 l 135 -122 l 128 -119 l 126 -126 m 128 -140 l 128 -136 l 124 -133 l 118 -137 l 124 -142 l 128 -140 m 135 -147 q 132 -146 132 -147 l 126 -149 l 128 -156 l 135 -153 l 135 -147 m 139 -142 q 142 -137 142 -142 q 139 -135 142 -135 q 135 -137 135 -135 q 139 -142 135 -142 m 142 -128 q 144 -129 144 -129 l 150 -126 l 149 -119 l 142 -122 l 142 -128 m 150 -149 l 146 -146 q 142 -147 144 -147 l 142 -153 l 149 -156 l 150 -149 m 158 -137 l 153 -133 l 149 -136 l 149 -139 l 153 -142 l 158 -137 z "},"v":{"ha":282,"x_min":-28,"x_max":267,"o":"m 249 435 q 261 431 256 435 q 264 421 267 428 q 256 387 263 417 q 240 314 250 357 q 220 222 231 271 q 199 128 210 172 q 181 53 189 85 q 168 17 172 22 q 150 3 163 8 q 122 -1 138 -1 q 92 5 107 -1 q 69 25 76 11 q 33 124 51 63 q 2 245 15 185 q -19 352 -11 306 q -25 407 -28 399 q -2 422 -21 417 q 39 426 17 426 q 76 422 60 426 q 94 407 93 417 q 110 283 103 340 q 123 185 117 226 q 134 121 129 144 q 142 97 139 97 q 150 120 143 97 q 166 178 157 143 q 185 253 175 213 q 203 331 194 294 q 219 392 213 367 q 226 422 225 418 q 235 432 229 429 q 249 435 242 435 m 113 56 q 114 60 115 58 q 92 131 103 86 q 71 224 81 176 q 85 243 85 228 q 78 258 85 251 q 64 264 72 264 q 46 349 53 313 q 39 386 39 385 q 35 389 39 389 q 32 385 28 389 q 38 347 32 383 q 54 261 44 311 q 43 243 43 256 q 63 222 43 225 q 85 129 74 174 q 108 57 97 85 q 113 56 108 56 m 122 497 q 132 503 126 500 q 135 504 135 504 q 131 507 132 507 l 122 511 q 118 510 119 511 q 114 510 117 510 l 108 508 q 106 510 106 506 l 106 513 q 110 514 108 514 q 115 515 111 515 q 113 518 113 518 l 110 518 q 110 522 108 521 q 111 524 110 524 q 114 524 111 524 q 117 522 117 522 l 118 521 l 118 524 q 117 529 117 525 q 118 533 115 531 q 121 532 119 533 q 124 526 124 528 q 125 521 124 524 q 126 517 125 518 q 131 513 129 514 q 135 511 132 513 l 138 510 l 138 524 l 132 531 l 128 535 q 128 539 124 535 l 132 539 l 138 532 l 138 539 q 142 542 138 542 q 144 539 144 542 l 144 538 l 144 536 l 144 532 q 145 533 144 533 q 146 535 146 533 l 150 539 l 154 539 q 154 535 158 535 l 153 533 q 150 530 151 531 q 147 526 149 529 l 144 524 l 144 510 q 147 511 146 511 q 149 513 147 511 l 157 517 q 158 521 157 519 q 158 525 158 522 q 160 531 160 528 q 164 533 163 533 q 165 532 165 532 q 165 529 165 529 q 165 525 165 526 q 164 521 164 524 q 167 524 167 524 l 169 524 q 172 522 172 526 q 174 521 174 521 q 173 519 174 519 q 172 518 172 519 l 169 518 l 167 515 l 169 515 q 175 514 171 514 q 176 510 178 511 q 171 508 172 508 q 167 510 168 510 q 164 511 167 510 l 160 511 q 150 506 154 510 q 147 504 149 506 q 151 501 149 504 l 160 497 q 164 499 163 499 q 168 500 165 499 l 174 501 q 176 499 176 501 q 167 493 169 493 q 172 490 167 493 q 172 486 175 489 q 164 488 165 488 l 164 485 l 165 479 q 164 476 168 476 l 161 476 q 160 481 160 479 q 158 485 158 483 q 157 489 158 486 l 157 492 q 147 497 153 494 q 144 499 144 499 l 144 485 l 150 479 l 154 475 q 154 471 157 474 q 150 471 153 469 l 149 472 l 144 476 l 144 471 q 142 468 144 468 q 138 474 138 468 l 138 476 l 132 471 q 128 471 131 469 q 128 475 126 474 l 138 485 l 138 499 q 133 496 136 499 l 126 492 q 124 483 125 489 q 118 476 122 476 q 117 482 117 481 q 117 485 117 483 q 118 488 118 486 q 114 485 119 488 q 110 486 110 485 q 108 489 108 486 q 115 493 117 493 q 113 494 114 493 l 107 496 q 106 499 103 496 q 107 501 106 500 q 111 500 110 501 q 115 499 114 500 q 119 499 117 499 l 122 497 m 260 -69 q 257 -78 263 -75 l 250 -82 l 256 -87 q 256 -96 261 -93 q 251 -99 253 -99 q 249 -98 250 -99 q 247 -97 249 -97 l 239 -89 l 229 -94 l 240 -103 q 243 -108 243 -106 q 240 -112 243 -110 l 229 -122 l 239 -126 l 247 -119 q 251 -118 249 -118 q 256 -119 256 -118 q 256 -128 261 -125 l 250 -133 l 257 -137 q 260 -146 263 -140 q 251 -149 257 -149 l 243 -143 l 242 -151 q 235 -156 242 -156 q 231 -149 228 -156 l 233 -137 l 224 -132 l 221 -146 q 218 -150 221 -150 q 215 -151 215 -151 l 213 -151 l 199 -146 l 199 -157 l 210 -160 q 214 -168 217 -162 q 207 -172 214 -172 l 199 -169 l 199 -178 q 193 -185 199 -185 q 188 -178 188 -185 l 188 -169 l 179 -172 q 172 -168 175 -172 q 176 -160 171 -162 l 188 -157 l 188 -146 l 174 -150 q 169 -150 172 -153 q 167 -149 167 -150 q 165 -146 167 -147 l 163 -132 l 154 -137 l 157 -149 q 151 -156 157 -156 q 144 -151 147 -156 l 143 -143 l 136 -149 l 132 -149 q 128 -146 131 -149 q 129 -137 125 -140 l 138 -133 l 132 -128 q 131 -119 128 -124 q 135 -118 132 -118 q 139 -119 139 -118 l 149 -126 l 157 -122 l 146 -112 q 144 -108 144 -111 q 146 -103 144 -104 l 157 -93 l 149 -89 l 139 -96 q 135 -99 136 -99 q 131 -96 133 -99 q 132 -87 128 -92 l 138 -82 l 129 -78 q 128 -69 122 -75 q 132 -67 131 -67 q 136 -68 135 -67 l 143 -72 l 144 -64 q 151 -60 147 -58 q 157 -67 157 -60 l 154 -78 l 163 -83 l 165 -69 q 167 -67 167 -68 q 169 -65 167 -67 q 174 -65 174 -65 l 188 -69 l 188 -58 l 176 -56 q 172 -47 171 -53 q 181 -44 175 -43 l 188 -46 l 188 -37 q 193 -32 188 -32 q 199 -37 199 -32 l 199 -46 l 207 -44 q 214 -49 214 -42 q 211 -56 217 -53 l 200 -60 l 200 -69 l 214 -65 l 218 -65 q 221 -69 221 -68 l 224 -83 l 233 -78 l 231 -67 q 235 -60 229 -62 q 242 -64 242 -57 l 243 -72 l 251 -68 q 260 -69 257 -65 m 174 -89 l 182 -94 q 188 -90 185 -92 l 188 -82 l 176 -78 l 174 -89 m 176 -111 q 175 -108 175 -110 q 176 -104 175 -106 l 168 -100 l 160 -108 l 168 -115 l 176 -111 m 188 -125 q 182 -122 182 -122 l 174 -126 l 176 -137 l 188 -135 l 188 -125 m 193 -114 q 199 -108 199 -114 q 193 -101 199 -101 q 188 -108 188 -101 q 193 -114 188 -114 m 199 -92 q 206 -94 200 -92 l 213 -90 l 211 -78 l 199 -82 l 199 -92 m 213 -126 l 206 -121 q 200 -125 203 -122 l 200 -133 l 211 -137 l 213 -126 m 228 -108 l 219 -100 l 211 -104 l 211 -108 l 211 -111 l 219 -115 l 228 -108 z "},"w":{"ha":468,"x_min":-18,"x_max":540,"o":"m 90 775 q 97 779 93 778 q 103 782 100 781 q 108 786 106 783 l 100 790 q 88 797 92 796 q 72 793 76 794 q 68 792 69 793 q 64 792 67 792 q 57 794 60 789 q 58 799 57 797 q 61 801 58 801 q 64 803 63 801 q 75 806 67 803 q 67 810 74 806 q 64 817 60 813 l 67 819 l 71 819 q 73 818 72 818 q 75 817 74 818 q 81 814 75 817 q 79 819 79 815 q 76 828 76 825 q 79 835 75 831 q 83 833 82 835 q 86 831 86 833 q 88 828 86 828 q 89 820 89 824 q 90 814 89 817 q 92 810 92 811 q 93 807 92 808 q 102 802 99 804 q 108 797 106 800 q 111 796 110 796 q 114 794 113 796 l 114 819 l 96 836 q 96 843 93 840 q 103 843 100 847 q 106 842 106 842 l 114 833 l 114 843 q 119 849 114 849 q 124 843 124 849 l 124 839 l 124 833 l 128 838 q 135 843 131 839 q 142 843 139 847 q 142 836 144 840 q 140 835 140 836 q 139 835 140 835 q 134 829 136 832 q 129 824 132 826 q 126 822 128 822 q 124 819 125 821 l 124 794 q 128 797 126 796 q 132 800 129 799 q 138 803 135 803 q 146 807 142 804 q 148 815 147 811 q 149 822 149 818 q 151 831 151 828 q 158 835 154 835 l 161 832 l 161 828 l 161 825 q 158 814 158 817 q 164 818 161 817 q 167 819 165 818 q 174 817 171 822 l 174 813 q 172 810 172 811 q 169 809 169 810 q 168 808 169 808 q 163 806 163 806 q 168 804 164 804 q 176 801 174 801 q 181 794 181 800 l 178 792 l 174 792 l 171 792 q 164 794 168 793 q 157 796 160 794 q 150 797 154 797 q 147 796 149 797 q 135 789 143 793 q 129 786 132 786 q 134 783 132 783 q 138 781 136 782 q 150 774 146 776 q 165 778 161 776 q 169 778 168 778 q 174 779 171 779 q 181 776 178 782 l 181 772 q 178 771 179 771 q 176 769 178 771 l 174 769 q 163 767 165 767 q 166 765 165 765 q 169 763 167 764 q 172 761 171 761 q 174 754 175 758 q 171 751 171 751 q 167 753 168 751 q 165 753 165 753 q 163 754 164 754 q 158 757 160 757 q 160 751 158 754 q 160 747 160 749 q 161 743 161 746 q 158 738 164 738 q 154 738 158 738 q 151 740 151 738 q 150 743 151 743 q 149 751 150 747 q 147 758 149 754 q 146 764 146 760 q 143 765 143 765 q 129 774 138 768 q 126 775 128 775 q 124 776 125 775 l 124 753 l 135 742 l 142 735 q 142 728 146 732 q 135 728 138 724 l 124 738 l 124 728 q 119 722 124 722 q 114 728 114 722 l 114 732 l 114 738 l 110 733 q 107 731 108 732 q 103 728 106 731 q 96 728 100 725 q 96 735 93 732 l 99 738 l 108 747 q 111 749 110 749 q 114 753 113 750 l 114 776 l 106 772 l 93 764 q 90 756 90 760 q 89 749 90 753 q 88 744 88 746 q 86 740 88 743 q 79 738 83 735 q 76 739 78 739 l 76 743 l 76 746 q 81 757 79 754 q 74 754 75 754 q 71 753 74 753 q 64 754 65 750 l 64 758 q 67 761 64 758 q 69 764 69 764 q 75 767 72 764 q 69 768 71 767 q 65 769 67 768 q 61 769 64 769 q 57 776 57 772 q 60 779 57 779 q 64 779 63 782 l 67 779 q 74 777 69 778 q 81 775 78 776 q 84 774 83 775 q 88 774 85 774 q 90 775 89 774 m 326 431 q 336 436 331 433 q 339 438 338 438 q 333 440 336 440 q 326 444 332 442 q 322 444 324 444 q 318 443 321 443 q 313 442 315 442 q 308 443 311 440 q 310 446 308 444 q 319 449 315 449 q 317 450 318 450 q 315 451 317 450 q 313 456 313 453 q 315 457 314 457 q 319 456 318 457 q 321 455 321 456 q 322 454 321 454 q 322 456 322 456 q 321 457 321 456 l 319 463 q 322 467 319 464 q 328 454 328 457 q 329 450 329 453 q 339 444 333 447 q 340 444 340 444 q 342 443 340 443 l 342 457 l 335 464 q 332 467 332 467 q 332 472 329 469 l 336 472 l 338 471 q 342 465 339 468 l 342 471 q 344 475 342 475 q 347 471 347 475 l 347 468 l 347 465 l 350 468 l 354 472 l 358 472 q 358 467 358 472 l 347 457 l 347 443 q 353 446 353 446 q 356 448 356 447 q 360 450 357 449 l 360 451 q 361 454 361 453 q 363 458 361 456 l 364 464 q 368 467 364 467 q 369 464 369 464 l 369 463 q 368 458 368 460 q 367 454 368 457 q 372 457 367 454 q 376 456 374 458 q 375 451 376 453 q 371 449 371 450 l 374 449 l 379 447 q 381 443 381 446 l 379 442 q 376 442 378 440 q 367 444 372 442 l 363 444 q 358 442 360 443 q 354 439 357 440 q 350 438 351 439 q 356 435 356 435 q 363 431 361 432 q 367 432 365 432 q 372 433 369 432 l 376 435 q 381 432 381 435 q 371 426 376 426 l 372 425 q 375 424 374 425 q 376 419 378 421 q 372 418 374 418 q 369 419 372 419 q 367 421 369 421 q 369 417 368 421 q 369 413 369 414 q 368 410 369 410 l 365 410 q 364 414 364 413 q 362 419 364 415 q 360 425 360 424 q 350 431 356 428 l 347 432 l 347 418 l 354 413 l 358 408 q 358 404 358 408 q 354 404 354 400 l 353 406 q 350 408 351 407 q 347 410 349 408 l 347 404 q 344 401 347 401 q 342 404 342 401 l 342 407 l 342 410 q 339 408 340 408 q 336 404 339 407 q 332 404 335 403 q 332 408 331 407 l 339 415 l 342 418 l 342 432 q 336 429 342 432 q 329 425 335 428 q 328 421 328 422 q 326 417 328 419 q 325 411 326 414 q 322 410 325 410 q 319 413 321 410 q 322 421 319 418 q 317 418 322 421 q 313 419 314 418 l 313 422 q 317 425 318 425 q 319 426 318 426 q 317 428 317 426 l 311 429 q 308 432 308 429 q 309 433 308 433 q 310 435 310 433 l 313 435 q 322 432 321 432 l 326 431 m 525 357 q 538 341 540 357 q 518 319 536 325 q 490 313 508 317 q 453 306 472 308 q 419 300 435 303 q 396 296 403 297 q 400 259 399 283 q 401 192 401 235 q 387 74 401 124 q 351 -8 372 25 q 304 -56 329 -40 q 258 -71 279 -71 q 216 -56 232 -71 q 191 -18 200 -40 q 178 31 182 4 q 174 79 175 57 q 174 117 174 101 q 171 132 174 132 q 158 111 168 132 q 131 66 147 90 q 92 21 114 42 q 43 0 69 0 q 17 10 29 0 q -2 34 6 19 q -14 66 -10 49 q -18 97 -18 83 q -12 197 -18 142 q 1 301 -7 251 q 18 386 10 350 q 32 428 26 422 q 53 432 36 432 q 78 429 64 432 q 106 422 93 426 q 127 410 118 417 q 136 396 136 404 q 133 363 136 389 q 124 301 129 336 q 115 228 119 267 q 106 156 110 189 q 99 102 101 124 q 99 81 97 81 q 116 106 101 81 q 149 160 131 131 q 183 217 167 190 q 203 249 199 244 q 228 256 208 256 q 252 252 239 256 q 272 242 265 249 q 277 217 276 239 q 277 166 278 196 q 275 103 276 136 q 274 41 274 69 q 275 -6 274 13 q 281 -25 276 -25 q 301 -13 288 -25 q 326 25 314 -1 q 349 92 339 51 q 358 188 358 132 q 354 268 358 240 q 347 311 350 296 q 369 326 344 326 q 401 331 382 328 q 443 339 421 335 q 485 348 465 343 q 517 356 504 353 q 522 356 519 356 q 525 357 524 357 m 72 224 q 56 243 72 240 q 64 321 58 283 q 76 386 69 358 q 74 390 76 390 q 69 388 69 390 q 57 323 63 361 q 49 244 51 285 q 31 224 31 239 q 46 204 31 210 q 42 108 42 150 q 49 58 43 65 q 51 57 51 57 l 54 57 q 54 63 57 60 q 50 109 50 68 q 53 203 50 150 q 67 209 61 203 q 72 224 72 215 m 226 90 q 243 110 243 93 q 226 129 243 126 q 229 165 228 149 q 233 193 231 182 q 238 217 235 206 q 235 221 238 221 q 231 218 231 225 q 226 193 228 207 q 222 166 224 182 q 219 131 221 150 q 201 110 201 128 q 219 89 201 93 q 222 33 219 63 q 231 -28 224 4 q 235 -31 231 -31 q 238 -26 238 -31 q 228 34 231 6 q 226 90 226 63 m 467 -169 q 465 -175 467 -174 l 460 -178 l 464 -181 q 464 -186 467 -183 q 461 -187 463 -187 l 460 -186 l 454 -181 l 449 -185 l 456 -190 l 456 -193 l 456 -196 l 449 -201 l 454 -204 l 460 -200 q 464 -200 463 -199 q 464 -204 467 -203 l 460 -208 l 465 -211 q 467 -215 467 -211 q 461 -217 465 -217 l 457 -214 l 456 -218 q 453 -221 456 -221 q 449 -217 449 -221 l 450 -210 l 444 -207 l 443 -215 q 442 -218 442 -218 l 439 -218 l 431 -215 l 431 -222 l 438 -224 q 439 -228 440 -226 q 435 -231 439 -231 l 431 -229 l 431 -235 q 426 -237 431 -237 q 424 -235 424 -237 l 424 -229 l 418 -231 q 414 -228 415 -231 q 417 -224 414 -226 l 424 -222 l 424 -215 l 415 -218 l 413 -218 q 411 -215 411 -218 l 408 -207 l 403 -210 l 404 -217 q 401 -221 407 -221 q 397 -218 399 -221 l 397 -214 l 392 -217 q 388 -215 388 -217 q 389 -210 386 -214 l 393 -208 l 390 -204 q 390 -200 389 -203 q 394 -199 390 -194 l 400 -204 l 406 -201 l 399 -196 q 397 -193 397 -193 q 399 -190 399 -190 l 406 -185 l 400 -181 l 394 -186 l 392 -186 l 389 -186 q 390 -181 389 -182 l 393 -178 l 389 -175 q 388 -169 386 -172 q 392 -168 389 -168 l 397 -171 l 397 -167 q 401 -164 400 -164 q 404 -168 408 -164 l 403 -175 l 408 -178 l 411 -169 q 415 -167 413 -167 l 424 -169 l 424 -164 l 417 -161 q 414 -157 414 -161 q 419 -154 417 -154 l 424 -156 l 424 -151 q 426 -147 424 -147 q 431 -151 431 -147 l 431 -156 l 435 -154 q 439 -157 439 -154 q 438 -161 443 -161 l 431 -164 l 431 -169 l 439 -167 q 443 -169 440 -167 l 444 -178 l 450 -175 l 449 -168 q 451 -164 449 -164 q 456 -167 456 -164 l 457 -171 l 461 -168 q 467 -169 465 -168 m 415 -182 l 419 -185 q 422 -183 421 -183 q 424 -182 422 -183 l 424 -176 l 417 -175 l 415 -182 m 417 -194 l 417 -190 l 411 -187 l 407 -193 l 411 -197 l 417 -194 m 424 -203 q 422 -202 422 -203 q 419 -201 421 -201 l 415 -204 l 417 -210 l 424 -208 l 424 -203 m 426 -196 q 431 -193 431 -196 q 426 -189 431 -189 q 424 -193 424 -189 q 426 -196 424 -196 m 431 -183 q 433 -185 433 -183 l 439 -182 l 438 -175 l 431 -178 l 431 -183 m 439 -204 l 433 -201 q 431 -203 432 -203 l 431 -208 l 438 -210 l 439 -204 m 447 -193 l 442 -187 l 438 -190 l 438 -194 l 442 -197 l 447 -193 z "},"x":{"ha":272,"x_min":-68,"x_max":263,"o":"m 228 422 q 251 413 240 422 q 256 389 263 403 q 242 363 253 382 q 213 315 231 343 q 174 253 196 288 q 125 183 151 219 q 151 119 139 150 q 174 62 164 88 q 192 19 185 36 q 200 -1 199 3 q 190 -28 204 -14 q 157 -42 176 -42 q 135 -35 146 -42 q 118 -12 125 -28 q 101 25 115 -7 q 67 103 86 57 q 31 57 49 79 q -4 14 14 35 q -31 -1 -18 -1 q -46 10 -42 -1 q -40 33 -50 22 q 1 84 -22 54 q 47 149 24 114 q 14 226 31 186 q -17 299 -3 265 q -42 356 -32 332 q -57 389 -53 381 q -53 427 -68 414 q -17 440 -39 440 q 13 433 -1 440 q 33 410 28 425 q 41 388 35 404 q 57 348 47 372 q 79 294 67 324 q 104 233 92 265 q 171 341 142 290 q 210 411 200 392 q 228 422 215 422 m 78 200 q 86 217 86 208 q 78 233 86 229 q 61 236 71 236 l -12 404 q -18 406 -15 407 q -19 400 -21 403 l 54 233 q 44 217 44 229 q 52 200 44 204 q 71 196 60 196 l 157 3 q 160 0 157 0 q 164 6 164 1 l 78 200 m 82 546 q 81 554 78 549 q 89 556 82 558 l 96 551 l 97 560 q 104 564 100 564 q 110 557 110 563 l 107 546 l 115 540 l 119 554 q 122 558 119 556 l 126 558 l 140 554 l 140 564 l 129 568 q 125 575 124 571 q 133 579 126 579 l 140 576 l 140 586 q 146 592 140 592 q 153 586 153 592 l 153 576 l 160 579 q 168 575 165 582 q 164 568 168 571 l 153 564 l 153 554 l 167 558 l 171 558 q 174 554 174 556 l 176 540 l 186 544 l 183 557 q 188 564 182 561 q 194 560 194 564 l 197 551 l 204 556 q 213 554 210 558 q 210 546 214 549 l 203 540 l 208 535 q 208 526 214 532 l 207 526 q 204 525 206 525 q 202 526 203 525 q 200 526 201 526 l 192 535 l 182 529 l 193 519 q 196 515 196 519 q 193 511 196 514 l 182 501 l 192 496 l 200 504 q 208 504 204 508 q 208 496 214 499 l 203 490 l 210 486 q 213 478 214 482 q 207 475 211 475 l 204 475 l 196 479 l 194 472 q 188 467 194 467 q 183 475 182 469 l 186 486 l 176 492 l 174 476 q 171 474 174 474 q 168 472 168 472 l 165 472 l 151 478 l 151 467 l 164 463 q 167 456 171 463 q 160 451 167 451 l 153 454 l 153 446 q 146 439 153 439 q 140 446 140 439 l 140 454 l 132 451 q 125 456 128 451 q 129 463 122 463 l 140 467 l 140 478 l 126 472 q 122 474 124 472 q 119 478 119 474 l 115 492 l 107 486 l 110 475 q 103 467 110 468 q 97 472 100 467 l 96 479 l 89 475 l 85 475 q 81 478 82 475 q 82 486 78 483 l 90 490 l 85 496 q 83 504 81 499 q 88 507 86 507 q 92 504 92 507 l 101 497 l 110 501 l 99 511 q 97 515 97 513 q 99 519 97 519 l 110 529 l 101 535 l 92 526 l 90 526 q 88 525 89 525 q 83 528 86 525 q 85 536 81 532 l 90 542 l 82 546 m 165 497 l 158 501 q 156 500 157 500 q 153 499 154 500 l 153 489 l 164 486 l 165 497 m 164 519 l 164 515 l 164 513 l 172 508 l 181 515 l 172 524 l 164 519 m 153 532 q 158 529 153 532 l 165 533 l 164 546 l 153 542 l 153 532 m 146 521 q 140 515 140 521 q 146 510 140 510 q 153 515 153 510 q 146 521 153 521 m 140 499 q 135 501 138 499 l 126 497 l 129 486 l 140 489 l 140 499 m 126 533 l 135 529 q 140 532 138 532 l 140 542 l 129 546 l 126 533 m 113 515 l 121 508 l 129 513 q 128 515 128 514 q 129 519 128 518 l 121 524 l 113 515 m -26 719 q -17 725 -22 722 q -14 726 -17 726 q -19 731 -17 729 q -26 735 -21 732 q -35 732 -32 732 q -38 731 -37 732 q -40 731 -39 731 q -44 732 -43 731 q -43 735 -44 735 q -37 738 -39 738 q -33 739 -36 738 q -35 740 -35 739 q -37 740 -36 740 q -40 746 -40 742 q -39 747 -39 746 q -37 747 -39 747 q -33 746 -35 746 l -31 743 q -32 747 -31 746 l -33 751 q -31 756 -33 756 l -28 756 q -26 753 -28 754 q -26 748 -26 750 q -25 743 -25 746 q -24 739 -24 742 q -14 733 -18 738 q -11 732 -12 733 l -11 746 l -18 753 q -21 757 -18 754 q -21 761 -24 760 q -17 761 -19 764 l -15 760 l -11 756 l -11 761 q -8 764 -11 764 q -6 761 -6 764 l -6 758 l -6 756 l 1 761 q 6 761 4 764 q 6 757 8 760 l -3 750 q -6 746 -3 749 l -6 732 q 0 735 0 735 q 3 737 3 736 q 7 739 4 738 q 8 744 8 742 q 10 749 8 746 l 11 753 q 15 756 11 756 q 17 751 17 753 q 15 743 15 747 q 19 746 15 744 q 24 746 22 749 l 24 743 l 19 739 q 18 739 18 739 q 21 738 18 738 q 28 732 28 738 q 24 731 26 731 q 19 732 21 732 q 14 733 17 732 q 10 735 11 733 q 6 731 7 732 q 1 729 4 731 q -1 726 -1 726 q 3 724 0 726 l 10 719 q 19 722 18 722 l 24 724 q 28 722 28 724 l 28 719 q 24 718 25 718 q 21 717 22 717 q 18 715 19 717 q 22 713 17 715 q 24 708 28 713 q 19 707 21 707 q 17 708 19 708 q 16 710 17 710 q 15 711 15 710 l 15 707 q 16 705 15 706 q 17 703 17 704 q 15 699 17 699 l 13 699 q 11 701 11 700 q 10 706 10 704 q 8 711 10 708 q 7 715 8 714 l 6 715 q -3 721 0 718 q -6 722 -4 721 l -6 708 l 1 701 l 6 697 q 6 693 6 697 q 1 693 1 689 l -6 699 l -6 693 q -8 690 -6 690 q -11 693 -11 690 l -11 696 l -11 699 q -14 697 -12 697 q -17 693 -14 696 q -21 693 -19 692 q -21 697 -24 696 l -19 699 q -15 703 -18 700 q -11 708 -12 707 l -11 722 q -17 719 -14 719 q -24 715 -18 718 q -26 706 -24 711 l -26 701 q -31 699 -28 699 q -33 703 -33 701 q -31 707 -32 706 q -31 711 -31 708 q -33 710 -32 710 q -36 707 -33 710 q -40 708 -39 707 l -40 711 q -36 714 -37 714 q -33 715 -36 715 q -36 717 -36 717 l -42 718 q -44 722 -44 718 q -42 724 -42 724 l -40 724 q -35 722 -37 722 q -31 721 -33 722 l -26 719 z "}}}
